<?xml version="1.0" encoding="utf-8"?>
<!-- Generator: Adobe Illustrator 27.0.0, SVG Export Plug-In . SVG Version: 6.00 Build 0)  -->
<svg version="1.1" id="Layer_1" xmlns="http://www.w3.org/2000/svg" xmlns:xlink="http://www.w3.org/1999/xlink" x="0px" y="0px"
	 viewBox="0 0 35 35" style="enable-background:new 0 0 35 35;" xml:space="preserve">
<style type="text/css">
	.st0{fill:#131313;}
	.st1{fill:#0A58CA;}
	.st2{fill:none;}
</style>
<g>
	<path class="st0" d="M34.7,5.6c-0.1-0.1-0.1-0.2-0.1-0.2c0-0.6,0-1.1,0-1.7c0-0.1,0-0.2,0.1-0.2C34.7,4.2,34.7,4.9,34.7,5.6z"/>
	<path class="st1" d="M16.8,23.9c-2.9,0-5.8,0-8.7,0c-0.1,0-0.2,0-0.3,0c-0.3,0-0.4-0.2-0.5-0.5c0-0.3,0.1-0.5,0.4-0.5
		c0.1,0,0.2,0,0.4,0c5.9,0,11.7,0,17.6,0c0.1,0,0.1,0,0.2,0c0.4,0,0.6,0.2,0.6,0.5c0,0.3-0.2,0.5-0.6,0.5
		C22.8,23.9,19.8,23.9,16.8,23.9z"/>
	<path class="st1" d="M16.8,26.9c-2.9,0-5.8,0-8.7,0c-0.1,0-0.2,0-0.3,0c-0.3,0-0.4-0.2-0.5-0.5c0-0.3,0.1-0.5,0.4-0.5
		c0.1,0,0.2,0,0.4,0c5.9,0,11.7,0,17.6,0c0.1,0,0.1,0,0.2,0c0.4,0,0.6,0.2,0.6,0.5c0,0.3-0.2,0.5-0.6,0.5
		C22.8,26.9,19.8,26.9,16.8,26.9z"/>
	<path class="st1" d="M34.7,3.2c-0.1,0-0.1-0.1-0.1-0.1c-0.3-1.3-1-2.1-2.3-2.5c-0.5-0.1-1.1-0.1-1.6-0.1c-7.7,0-15.5,0-23.2,0
		c-0.3,0-0.7,0-1,0.1C5.1,0.9,4.1,2.1,4.1,3.7c0,7.9,0,15.7,0,23.6c0,0.1,0,0.2,0,0.3c0,0.3,0.2,0.4,0.5,0.5c0.3,0,0.5-0.1,0.5-0.4
		c0-0.1,0-0.3,0-0.4c0-7.8,0-15.6,0-23.4c0-1.3,0.9-2.2,2.2-2.2c7.2,0,14.4,0,21.5,0c0.1,0,0.2,0,0.3,0.1c-0.6,0.7-0.7,1.5-0.7,2.4
		c0,9.1,0,18.2,0,27.3c0,0.2,0,0.5,0,0.7c-0.2,1-1.1,1.6-2.2,1.5c-1-0.1-1.8-0.9-1.8-2c0-0.4,0-0.7,0-1.1c-0.1-0.9-0.9-1.4-1.9-1.4
		c-6.8,0-13.6,0-20.4,0c-0.1,0-0.1,0-0.2,0c-0.8,0-1.4,0.5-1.6,1.2c-0.2,1-0.2,2,0.4,2.9c0.7,1,1.7,1.4,2.8,1.4c7.4,0,14.7,0,22.1,0
		c0.1,0,0.2,0,0.4,0c0.4,0,0.8,0,1.2-0.2c1.4-0.4,2.2-1.6,2.2-3.1c0-8,0-16,0-24c0-0.3,0.1-0.3,0.3-0.3c1,0,2,0,3,0
		c0.9,0,1.5-0.4,1.8-1.2c0,0,0-0.1,0.1-0.1c0,0,0-0.1,0-0.1c-0.1-0.7-0.1-1.4,0-2.2C34.7,3.3,34.7,3.3,34.7,3.2z M22.5,33.6
		c-6.3,0-12.6,0-18.9,0C3,33.6,2.5,33.5,2,33c-0.4-0.4-0.6-0.8-0.6-1.4c0-0.3,0-0.5,0-0.8c0-0.4,0.3-0.6,0.7-0.7c0.1,0,0.2,0,0.2,0
		c6.7,0,13.5,0,20.2,0c0.7,0,0.9,0.2,0.9,0.9c-0.1,0.9,0.1,1.8,0.7,2.5C23.5,33.6,23,33.6,22.5,33.6z M33.6,5.3
		c0,0.5-0.3,0.7-0.7,0.7c-0.5,0-1,0-1.5,0c-0.5,0-1,0-1.5,0c-0.2,0-0.2,0-0.2-0.2c0-0.8,0-1.5,0-2.3c0-1.1,0.9-1.9,2.1-1.9
		c1,0,1.9,0.9,1.9,1.9C33.7,4.1,33.7,4.7,33.6,5.3z"/>
	<path class="st2" d="M20.7,13.7c-0.6-0.2-1.3-0.1-1.9-0.1c-0.2,0-0.3,0.1-0.3,0.3c-0.2,0.9-1,1.5-2,1.6c-0.9,0.1-1.8-0.4-2.1-1.2
		c-0.2-0.6-0.6-0.7-1.1-0.6c-0.1,0-0.1,0-0.2,0c-2,0-3.6,1.4-4,3.3c-0.4,2,1,3.2,2.6,3.1c1.6-0.1,3.1,0,4.7,0c1.6,0,3.3,0,4.9,0
		c1.4,0,2.4-1.1,2.4-2.4C23.7,15.8,22.5,14.2,20.7,13.7z"/>
	<path class="st2" d="M15.2,6.3c0.8,0.3,1.7,0.3,2.5,0C18.5,6,19,6.2,19.4,6.9c0-0.4,0.1-0.7-0.1-0.9c-0.5-0.9-1.1-1.6-2.1-2
		c-1-0.3-1.9,0.1-2.7,0.8c-0.2,0.2-0.4,0.3-0.6,0.4c-0.3,0.1-0.4,0.3-0.5,0.5c-0.2,0.5-0.2,1-0.1,1.6c0.1-0.1,0.1-0.2,0.1-0.2
		C13.9,6.1,14.3,5.9,15.2,6.3z"/>
	<path class="st2" d="M17.2,12.3c1.1-0.3,2-1.3,1.9-3c0-0.2,0.1-0.5-0.1-0.8c-0.3-0.4-0.5-0.7-0.6-1.1c-0.1-0.2-0.2-0.2-0.3-0.1
		c-1.1,0.4-2.2,0.4-3.3-0.1c-0.2-0.1-0.3,0-0.3,0.1c-0.2,0.5-0.4,0.9-0.8,1.3c-0.1,0.1-0.1,0.2-0.1,0.3c0,0.3,0,0.5,0,0.8
		C13.7,11.7,15.5,12.9,17.2,12.3z"/>
	<path class="st1" d="M24.8,17.5c-0.1-2.4-2-4.5-4.4-4.9c-0.4-0.1-0.9,0-1.4-0.1c0.2-0.3,0.4-0.5,0.5-0.7c0.4-0.7,0.6-1.4,0.6-2.2
		c0-0.4,0-0.8,0.1-1.2c0.3-1.4,0.3-2.8-0.8-3.9c0,0-0.1-0.1-0.1-0.2c-0.7-0.7-1.5-1.3-2.5-1.4c-1.2-0.1-2.2,0.3-3,1.1
		c-0.1,0.1-0.2,0.2-0.3,0.2c-0.5,0.2-0.8,0.5-1,1c-0.2,0.5-0.3,1.1-0.2,1.7c0.1,1.1,0.4,2.3,0.4,3.4c0,0.1,0,0.1,0,0.2
		c0.1,0.8,0.5,1.5,1.1,2.1c-0.2,0-0.4,0-0.5,0c-2.6,0-4.7,1.7-5.2,4.3c-0.4,2.3,1.1,4.2,3.3,4.3c3.3,0,6.7,0,10,0
		C23.4,21.1,24.8,19.5,24.8,17.5z M13.4,7.2c-0.1-0.6-0.1-1.1,0.1-1.6c0.1-0.2,0.2-0.4,0.5-0.5c0.3-0.1,0.4-0.2,0.6-0.4
		c0.8-0.6,1.6-1.1,2.7-0.8c1,0.3,1.6,1.1,2.1,2c0.1,0.2,0.1,0.6,0.1,0.9C19,6.2,18.5,6,17.7,6.2c-0.8,0.3-1.7,0.3-2.5,0
		c-0.9-0.3-1.4-0.1-1.8,0.8C13.4,7.1,13.4,7.1,13.4,7.2z M13.6,9.8c0-0.3,0-0.5,0-0.8c0-0.1,0-0.2,0.1-0.3c0.4-0.4,0.6-0.8,0.8-1.3
		c0.1-0.2,0.1-0.2,0.3-0.1c1.1,0.4,2.2,0.5,3.3,0.1c0.2-0.1,0.3,0,0.3,0.1c0.1,0.4,0.4,0.8,0.6,1.1c0.2,0.3,0,0.5,0.1,0.8
		c0.1,1.6-0.8,2.6-1.9,3C15.5,12.9,13.7,11.7,13.6,9.8z M17.4,13.8c-0.2,0.4-0.6,0.6-1.1,0.6c-0.5,0-0.8-0.3-1-0.8
		c0.7,0,1.3,0,1.9,0C17.5,13.6,17.5,13.7,17.4,13.8z M21.3,20.1c-1.6,0-3.3,0-4.9,0c-1.6,0-3.1,0-4.7,0c-1.5,0.1-3-1.1-2.6-3.1
		c0.4-2,2-3.3,4-3.3c0.1,0,0.1,0,0.2,0c0.5-0.1,0.9,0,1.1,0.6c0.3,0.8,1.3,1.3,2.1,1.2c1-0.1,1.7-0.7,2-1.6c0-0.2,0.1-0.3,0.3-0.3
		c0.6,0,1.3,0,1.9,0.1c1.7,0.5,3,2.1,3,3.9C23.7,19,22.7,20.1,21.3,20.1z"/>
</g>
</svg>
