<?xml version="1.0" encoding="utf-8"?>
<!-- Generator: Adobe Illustrator 27.0.0, SVG Export Plug-In . SVG Version: 6.00 Build 0)  -->
<svg version="1.1" id="Layer_1" xmlns="http://www.w3.org/2000/svg" xmlns:xlink="http://www.w3.org/1999/xlink" x="0px" y="0px"
	 viewBox="0 0 35 35" style="enable-background:new 0 0 35 35;" xml:space="preserve">
<style type="text/css">
	.st0{fill:#0A58CA;}
	.st1{fill:#FEFEFE;}
</style>
<path class="st0" d="M12,16.4c-0.3-0.2-0.6-0.4-0.9-0.5c-0.1-0.1-0.1-0.2-0.1-0.3c0-0.4,0-0.8,0-1.2c0-0.2-0.1-0.4-0.2-0.6
	c-1.7-1.8-3.4-3.5-5.2-5.2C5.1,8,4.6,7.5,4.2,7C3.3,5.6,4,3.8,5.7,3.5c1-0.2,1.8,0.3,2.5,0.9c1.4,1.4,2.9,2.8,4.3,4.3
	C12.6,8.9,12.8,9,13,9c0.8,0,1.7,0,2.5,0c0.3,0,0.5,0.1,0.7,0.3c0.3,0.5,0.7,0.9,1,1.4c0.1,0.2,0.2,0.2,0.3,0c0.3-0.5,0.7-0.9,1-1.3
	c0.2-0.3,0.5-0.4,0.8-0.4c0.8,0,1.7,0,2.5,0c0.2,0,0.3-0.1,0.5-0.2c1.4-1.4,2.9-2.9,4.3-4.3c0.6-0.6,1.3-1,2.1-1
	c1.6,0,2.7,1.9,1.9,3.3c-0.2,0.4-0.5,0.8-0.9,1.1c-1.2,1.2-2.4,2.4-3.5,3.5c-0.8,0.8-1.5,1.6-2.3,2.4c-0.2,0.2-0.2,0.3-0.2,0.6
	c0,0.1,0,0.2,0,0.2c0,0.4,0.1,0.8-0.1,1.1c-0.2,0.3-0.6,0.4-1,0.6c0-0.5,0.1-1,0-1.5c-0.1-0.9,0.2-1.6,0.9-2.3
	c1.6-1.6,3.2-3.2,4.8-4.8c0.4-0.4,0.9-0.9,1.2-1.4c0.4-0.6,0.4-1,0.1-1.4c-0.5-0.6-1-0.7-1.7-0.3c-0.3,0.1-0.5,0.3-0.7,0.5
	c-1.5,1.5-3,3-4.4,4.5c-0.2,0.2-0.4,0.3-0.7,0.3c-0.8,0-1.7,0-2.5,0c-0.2,0-0.3,0.1-0.5,0.2c-0.4,0.5-0.8,1-1.2,1.6
	c-0.4,0.6-0.9,0.6-1.3,0c-0.4-0.5-0.8-1.1-1.2-1.6c-0.1-0.2-0.2-0.2-0.4-0.2c-0.8,0-1.6,0-2.5,0c-0.3,0-0.6-0.1-0.8-0.3
	C10.4,8.2,9,6.7,7.5,5.3C7.3,5.1,7.1,4.9,6.9,4.7C6.1,4.3,5.4,4.5,5,5.2C4.8,5.5,4.8,5.8,4.9,6.1c0.2,0.4,0.4,0.7,0.7,1
	C6.8,8.2,8,9.4,9.1,10.6c0.9,0.9,1.7,1.8,2.6,2.7c0.2,0.2,0.3,0.4,0.3,0.7C12,14.8,12,15.5,12,16.4z"/>
<path class="st0" d="M30.3,20.6c0,2.3-1.9,4.2-4.2,4.2c-2.3,0-4.2-1.9-4.2-4.2c0-2.3,1.9-4.2,4.2-4.2C28.5,16.4,30.3,18.2,30.3,20.6
	z"/>
<path class="st0" d="M4.6,20.6c0-2.3,1.9-4.2,4.2-4.2c2.3,0,4.2,1.9,4.2,4.2c0,2.3-1.9,4.2-4.2,4.2C6.4,24.8,4.6,22.9,4.6,20.6z"/>
<path class="st0" d="M13.8,4.2c0-2,1.7-3.7,3.7-3.7c2,0,3.7,1.7,3.7,3.7c0,2-1.7,3.7-3.7,3.7C15.4,7.9,13.8,6.3,13.8,4.2z"/>
<path class="st0" d="M29.3,24.8c0.3-0.3,0.6-0.6,0.9-0.9c0.1-0.1,0.2-0.1,0.3-0.1c1.9,0.3,3.5,1.9,3.7,3.9c0,0.4,0.1,0.8,0.1,1.3
	c0,1.5,0,3.1,0,4.6c0,0.4-0.2,0.7-0.5,0.7c-0.3,0-0.5-0.3-0.5-0.7c0-1.7,0-3.4,0-5.1c0-0.5-0.1-1-0.2-1.5c-0.5-1.4-1.5-2-3-2.2
	C29.8,24.8,29.6,24.8,29.3,24.8z"/>
<path class="st0" d="M5.6,24.8c-0.6,0-1.1,0-1.6,0.2c-1.4,0.5-2.3,1.7-2.4,3.4c0,1.7,0,3.5,0,5.2c0,0.1,0,0.2,0,0.3
	c-0.1,0.2-0.2,0.4-0.5,0.4c-0.2,0-0.4-0.1-0.5-0.3c0-0.1,0-0.1,0-0.2c0-2-0.1-4,0.1-6c0.2-2,1.8-3.6,3.7-3.9c0.2,0,0.3,0,0.4,0.1
	C5,24.2,5.3,24.5,5.6,24.8z"/>
<path class="st0" d="M12,24.7c0.3-0.3,0.6-0.6,0.9-0.9c0.1-0.1,0.2-0.1,0.3-0.1c1.9,0.3,3.5,2,3.7,3.9c0.2,2,0,4,0.1,5.9
	c0,0.3-0.2,0.6-0.5,0.6c-0.3,0-0.5-0.2-0.5-0.6c0-1.7,0-3.4,0-5.1c0-0.4,0-0.9-0.2-1.3c-0.4-1.4-1.6-2.4-3-2.5
	C12.4,24.8,12.2,24.8,12,24.7z"/>
<path class="st0" d="M23,24.8c-0.5,0-0.9,0-1.3,0.1C20,25.3,19,26.6,19,28.4c0,1.7,0,3.4,0,5.1c0,0.2,0,0.3-0.1,0.5
	c-0.1,0.2-0.3,0.2-0.5,0.2c-0.2,0-0.3-0.1-0.4-0.3c0-0.1,0-0.1,0-0.2c0-1.9-0.1-3.9,0-5.8c0.1-2,1.7-3.7,3.7-4c0.2,0,0.3,0,0.4,0.1
	C22.3,24.2,22.6,24.5,23,24.8z"/>
<path class="st0" d="M13.8,32.9c0,0.3,0,0.5,0,0.8c0,0.3-0.2,0.5-0.5,0.5c-0.3,0-0.5-0.2-0.5-0.5c0-0.5,0-1.1,0-1.6
	c0-0.3,0.3-0.5,0.5-0.5c0.3,0,0.5,0.2,0.5,0.5c0,0,0,0,0,0.1C13.8,32.4,13.8,32.7,13.8,32.9C13.8,32.9,13.8,32.9,13.8,32.9z"/>
<path class="st0" d="M21.1,32.9c0-0.3,0-0.5,0-0.8c0-0.3,0.2-0.5,0.5-0.5c0.3,0,0.5,0.2,0.5,0.5c0,0.5,0,1.1,0,1.6
	c0,0.3-0.3,0.5-0.5,0.5c-0.3,0-0.5-0.2-0.5-0.5C21.1,33.4,21.1,33.2,21.1,32.9z"/>
<path class="st0" d="M4.8,32.9c0,0.3,0,0.5,0,0.8c0,0.3-0.2,0.5-0.5,0.5c-0.3,0-0.5-0.2-0.5-0.5c0-0.5,0-1.1,0-1.6
	c0-0.3,0.2-0.5,0.5-0.5c0.3,0,0.5,0.2,0.5,0.5C4.8,32.4,4.8,32.6,4.8,32.9C4.8,32.9,4.8,32.9,4.8,32.9z"/>
<path class="st0" d="M31.1,32.9c0,0.3,0,0.5,0,0.8c0,0.3-0.2,0.5-0.5,0.5c-0.3,0-0.5-0.2-0.5-0.5c0-0.5,0-1.1,0-1.6
	c0-0.3,0.2-0.5,0.5-0.5c0.3,0,0.5,0.2,0.5,0.5C31.1,32.4,31.1,32.7,31.1,32.9z"/>
<path class="st0" d="M17.4,14.2c-0.3,0-0.5-0.2-0.5-0.5c0-0.3,0.2-0.5,0.5-0.5c0.3,0,0.5,0.2,0.5,0.5C17.9,14,17.7,14.2,17.4,14.2z"
	/>
<path class="st0" d="M17.4,16.3c-0.3,0-0.5-0.2-0.5-0.5c0-0.3,0.2-0.5,0.5-0.5c0.3,0,0.5,0.2,0.5,0.5C18,16.1,17.7,16.3,17.4,16.3z"
	/>
<path class="st1" d="M23,20.6c0-1.8,1.4-3.2,3.1-3.2c1.7,0,3.2,1.4,3.2,3.2c0,1.7-1.4,3.1-3.1,3.2C24.4,23.7,23,22.3,23,20.6z"/>
<path class="st1" d="M11.9,20.5c0,1.7-1.4,3.2-3.2,3.2c-1.7,0-3.2-1.4-3.2-3.2c0-1.7,1.4-3.1,3.1-3.1C10.5,17.4,11.9,18.8,11.9,20.5
	z"/>
<path class="st1" d="M20.1,4.2c0,1.5-1.2,2.6-2.7,2.6c-1.4,0-2.6-1.2-2.6-2.6c0-1.5,1.2-2.6,2.7-2.6C18.9,1.6,20.1,2.8,20.1,4.2z"/>
</svg>
