<svg id="Layer_1" data-name="Layer 1" xmlns="http://www.w3.org/2000/svg" viewBox="0 0 540 540"><defs><style>.cls-1{fill:#26247b;}.cls-2{fill:#fff;}.cls-3{fill:#f89938;}</style></defs><polygon class="cls-1" points="418.2 250.19 418.2 136.34 314.49 240.05 371.41 296.98 418.2 250.19"/><polygon class="cls-1" points="149.32 405.22 263.17 405.22 304.34 364.05 247.42 307.12 149.32 405.22"/><polygon class="cls-1" points="135.88 273.49 174.82 234.54 135.88 195.58 135.88 273.49"/><polygon class="cls-1" points="275.25 134.12 208.54 134.12 241.9 167.47 275.25 134.12"/><polygon class="cls-1" points="404.76 134.12 290.91 134.12 249.73 175.3 306.65 232.23 404.76 134.12"/><polygon class="cls-1" points="135.88 289.15 135.88 403.01 239.58 299.29 182.66 242.36 135.88 289.15"/><polygon class="cls-1" points="418.2 265.85 379.25 304.81 418.2 343.77 418.2 265.85"/><polygon class="cls-1" points="278.82 405.22 345.52 405.22 312.18 371.88 278.82 405.22"/><rect class="cls-1" x="164.84" y="199.38" width="94.85" height="11.07" transform="translate(-82.72 210.12) rotate(-45)"/><rect class="cls-1" x="294.36" y="328.89" width="94.85" height="11.07" transform="translate(-136.37 339.63) rotate(-45)"/><rect class="cls-1" x="229.6" y="264.13" width="94.85" height="11.07" transform="translate(-109.55 274.87) rotate(-45)"/><rect class="cls-2" x="261.99" y="261.79" width="94.85" height="80.51" transform="translate(-122.96 307.25) rotate(-45)"/><polygon class="cls-2" points="208.54 134.12 135.88 134.12 135.88 195.58 174.82 234.54 241.9 167.47 208.54 134.12"/><rect class="cls-2" x="197.23" y="197.04" width="94.85" height="80.51" transform="translate(-96.14 242.5) rotate(-45)"/><polygon class="cls-2" points="418.2 343.77 379.25 304.81 312.18 371.88 345.52 405.22 418.2 405.22 418.2 343.77"/><path class="cls-1" d="M185.69,193.49v1.21H152.3v-1.21h2.13a12.05,12.05,0,0,0,4.47-.69,3.6,3.6,0,0,0,1.88-1.58c.35-.52.52-1.9.52-4.13V157.81c0-2.27-.17-3.7-.52-4.26a4.13,4.13,0,0,0-2.09-1.49,11.51,11.51,0,0,0-4.26-.64H152.3v-1.21h33.39v1.21h-2.12a12.07,12.07,0,0,0-4.47.68,3.91,3.91,0,0,0-1.94,1.58c-.34.53-.51,1.91-.51,4.13v29.28c0,2.27.18,3.7.54,4.26a4.33,4.33,0,0,0,2.12,1.5,11.78,11.78,0,0,0,4.27.64Z"/><path class="cls-1" d="M242,244.49v12.35a12.74,12.74,0,0,0,.48,4.54,3.41,3.41,0,0,0,1.69,1.5,12,12,0,0,0,4.44.55v1.21H224.41v-1.21a11.71,11.71,0,0,0,4.48-.57,3.54,3.54,0,0,0,1.65-1.5,12.56,12.56,0,0,0,.48-4.52V228a12.81,12.81,0,0,0-.48-4.55,3.38,3.38,0,0,0-1.67-1.49,11.79,11.79,0,0,0-4.46-.56v-1.21h20.77q10.27,0,14.73,3.41a10.33,10.33,0,0,1,4.46,8.53,10.51,10.51,0,0,1-2.88,7.42,15.09,15.09,0,0,1-8,4.2A58.49,58.49,0,0,1,242,244.49Zm0-21.78v19.23c.77.05,1.36.07,1.75.07a8.83,8.83,0,0,0,6.62-2.38q2.31-2.38,2.31-7.36c0-3.31-.77-5.72-2.31-7.25s-3.86-2.31-6.93-2.31Z"/><path class="cls-1" d="M329.4,283.43v12.05h-1.18a19.47,19.47,0,0,0-2.33-6,9,9,0,0,0-3.51-2.9A11.38,11.38,0,0,0,318,286h-3.32v34.33a14,14,0,0,0,.38,4.26,3.38,3.38,0,0,0,1.47,1.49,6,6,0,0,0,3,.64H321v1.22h-23.3v-1.22h1.48a6.13,6.13,0,0,0,3.11-.68,3.1,3.1,0,0,0,1.35-1.58,13.72,13.72,0,0,0,.35-4.13V286H300.8q-4.49,0-6.53,1.91a12.58,12.58,0,0,0-3.6,7.58h-1.25V283.43Z"/><path class="cls-1" d="M376.81,375.77l8.82-29.33h13.23v1.21H397.8a3.6,3.6,0,0,0-2.3.68,3.07,3.07,0,0,0-.95,1.54,17.73,17.73,0,0,0-.27,4.11v29.33a19.3,19.3,0,0,0,.27,4.26,3,3,0,0,0,1.08,1.5,3.44,3.44,0,0,0,2.17.64h1.06v1.21h-17v-1.21H383a3.6,3.6,0,0,0,2.3-.69,3.07,3.07,0,0,0,.95-1.58,17.83,17.83,0,0,0,.27-4.13v-33L374,390.93h-.57l-12.65-40.29V382a37.91,37.91,0,0,0,.12,4,5,5,0,0,0,1.35,2.67,4.5,4.5,0,0,0,3.27,1v1.21H354.4v-1.21h.34a4.09,4.09,0,0,0,2-.48,3.54,3.54,0,0,0,1.42-1.37,7.5,7.5,0,0,0,.74-2.39c0-.24,0-1.35,0-3.34V354a19.85,19.85,0,0,0-.26-4.22,3.08,3.08,0,0,0-1.08-1.47,3.43,3.43,0,0,0-2.18-.64h-1v-1.21h13.27Z"/><path class="cls-3" d="M103.47,76.76a5.47,5.47,0,0,1,1.17,2.46,1.78,1.78,0,0,1-.51,1.56,10.17,10.17,0,0,1-3.1,1.08,16.59,16.59,0,0,0-7.09,3.93,14.49,14.49,0,0,0-2.88,4,15.37,15.37,0,0,0-1.3,5.1,21.2,21.2,0,0,0,2.36,11.48,32.31,32.31,0,0,0,8.07,10.31,37.54,37.54,0,0,0,10.57,6.46,20.88,20.88,0,0,0,10.32,1.7,13.11,13.11,0,0,0,4.26-1.26,12.43,12.43,0,0,0,3.62-2.5,10.25,10.25,0,0,0,3-5.64,20.61,20.61,0,0,0-.28-7.87l-2.75-3a24.82,24.82,0,0,1,.9,8.27,7.68,7.68,0,0,1-2.22,5,6.81,6.81,0,0,1-5.8,2,19.06,19.06,0,0,1-7.9-3.15,62.06,62.06,0,0,1-9.21-7.15,41.36,41.36,0,0,1-7.58-9.19A14.1,14.1,0,0,1,95,92.78a8.38,8.38,0,0,1,2.42-6,8.79,8.79,0,0,1,7.36-2.36c3.08.33,6.31,1.86,9.72,4.59l.71-.63-11-12.3Z"/><path class="cls-3" d="M143.53,75.37a16.94,16.94,0,0,0-5.66-3,12.84,12.84,0,0,0-5.66-.33,10.74,10.74,0,0,0-5,2.2,11.41,11.41,0,0,0-3.5,4.53,12.35,12.35,0,0,0-1,5.62,16.68,16.68,0,0,0,1.61,6.19,26,26,0,0,0,4.05,6.18,28.58,28.58,0,0,0,5.44,5,20.66,20.66,0,0,0,5.57,2.77,12.34,12.34,0,0,0,5.32.54,9.13,9.13,0,0,0,4.63-2,9.71,9.71,0,0,0,3.15-4.13,13.1,13.1,0,0,0,.79-5.4A21.25,21.25,0,0,0,152,87.35a27.81,27.81,0,0,0-3.23-6.23A24,24,0,0,0,143.53,75.37Zm3.2,15.38a24.61,24.61,0,0,1,2,4.58,8.69,8.69,0,0,1,.39,3.53,3.5,3.5,0,0,1-1.22,2.31,3.21,3.21,0,0,1-3,.55,12,12,0,0,1-3.68-1.82,28.74,28.74,0,0,1-3.95-3.4c-1.34-1.36-2.6-2.77-3.8-4.24a41.21,41.21,0,0,1-4.18-6.05,19.35,19.35,0,0,1-1.87-4.66,6.84,6.84,0,0,1,0-3.34,4,4,0,0,1,1.31-2.09,3.67,3.67,0,0,1,2.64-.78,7.73,7.73,0,0,1,3.41,1.22,21.39,21.39,0,0,1,4,3.31,47.68,47.68,0,0,1,4.55,5.47A42.91,42.91,0,0,1,146.73,90.75Z"/><path class="cls-3" d="M148.27,60.79,140.08,66l.69,1a4.89,4.89,0,0,1,.7-.29,2.69,2.69,0,0,1,.88-.11,5.06,5.06,0,0,1,1.15.2,13.56,13.56,0,0,1,1.59.58l1.36.55,12.68,19.54A7.52,7.52,0,0,1,160.54,91a2.33,2.33,0,0,1-1.17,2.17l.68,1,6.49-4.15-.65-1a3.93,3.93,0,0,1-1.59.63,2.6,2.6,0,0,1-1.4-.26,4.08,4.08,0,0,1-1.29-1,13.81,13.81,0,0,1-1.29-1.74l-11.1-17.38A251.86,251.86,0,0,1,177.3,84.83l.67-.39L164.15,58.65a6.46,6.46,0,0,1-1-3.64,2.76,2.76,0,0,1,1.67-2.15l-.56-1.09c-2.68,1.27-5.2,2.8-7.78,4.24l.61,1.07a4.28,4.28,0,0,1,1.79-.61,2.77,2.77,0,0,1,1.48.31,4.28,4.28,0,0,1,1.25,1.07,10.86,10.86,0,0,1,1.1,1.66l6.74,12.35q-5.07-2.92-10.36-5.71C155.51,64.26,151.88,62.43,148.27,60.79Z"/><path class="cls-3" d="M173.24,63a10.23,10.23,0,0,0,2.65,2,9.78,9.78,0,0,0,2.76.93c.94.16,1.86.27,2.78.34s1.83.18,2.7.25a11.24,11.24,0,0,1,2.48.55,6.08,6.08,0,0,1,3.74,3.61,6.06,6.06,0,0,1,.55,3.5,3.22,3.22,0,0,1-2.13,2.36,5.66,5.66,0,0,1-2.73.4,7.49,7.49,0,0,1-2.91-1,14.16,14.16,0,0,1-3-2.29,25.22,25.22,0,0,1-3-3.53l-.78.39,6,11.8L183,82a7.51,7.51,0,0,1-.21-1.78,1,1,0,0,1,.51-.88,1.81,1.81,0,0,1,1-.13c.41.06.89.11,1.45.15a10.75,10.75,0,0,0,1.84-.07,8.18,8.18,0,0,0,2.24-.62,7,7,0,0,0,2.86-2.16,8,8,0,0,0,1.43-3.15,11.21,11.21,0,0,0,.12-3.86,16.6,16.6,0,0,0-1.17-4.25q-.33-.81-.72-1.62a12.59,12.59,0,0,0-.92-1.57,13.69,13.69,0,0,0-1.23-1.47,9.57,9.57,0,0,0-1.65-1.3,9.26,9.26,0,0,0-2.82-1.2,25.16,25.16,0,0,0-3-.48c-1-.09-1.95-.17-2.89-.21a18.45,18.45,0,0,1-2.62-.35,6.09,6.09,0,0,1-2.2-.9,4.86,4.86,0,0,1-1.66-2,5.78,5.78,0,0,1-.61-3.66,3.51,3.51,0,0,1,2.26-2.53,5,5,0,0,1,2.8-.38,8,8,0,0,1,2.9,1,13.26,13.26,0,0,1,2.82,2.16,20.91,20.91,0,0,1,2.54,3l.85-.36L182.4,42.28l-.89.39a4.05,4.05,0,0,1,.34,1.69,1.08,1.08,0,0,1-.57,1.09,2.1,2.1,0,0,1-1.15.07c-.48-.07-1-.13-1.69-.19a15.07,15.07,0,0,0-2.2,0,8.79,8.79,0,0,0-2.63.73,6.76,6.76,0,0,0-2.75,2.22,8,8,0,0,0-1.41,3.23,10.8,10.8,0,0,0,0,3.85,14.58,14.58,0,0,0,1.39,4.11A13.52,13.52,0,0,0,173.24,63Z"/><path class="cls-3" d="M211.76,33.1c-2.94.74-5.8,1.74-8.7,2.62l.36,1.17a4.57,4.57,0,0,1,1.85-.24,2.44,2.44,0,0,1,1.4.61,4.45,4.45,0,0,1,1.07,1.5,16.61,16.61,0,0,1,.9,2.39l4.2,14.07a17.75,17.75,0,0,1,.93,7.72,4.28,4.28,0,0,1-3.09,3.72,4.5,4.5,0,0,1-4.45-.81,12.69,12.69,0,0,1-3.3-5.56l-5.84-16.47a6.53,6.53,0,0,1-.47-3.57,2.77,2.77,0,0,1,2-1.87l-.39-1.16c-4.24,1.49-8.42,3.11-12.64,4.67l.46,1.13a3.37,3.37,0,0,1,2.88-.08,4.89,4.89,0,0,1,1.81,2.6l6.31,16.37a21.81,21.81,0,0,0,2.54,4.88,11.86,11.86,0,0,0,3.09,3.08,7.73,7.73,0,0,0,3.52,1.26,10.1,10.1,0,0,0,3.91-.51,7.22,7.22,0,0,0,5.1-5.24c.75-2.68.51-6.29-.8-10.79l-4.06-14a16.41,16.41,0,0,1-.58-2.61,4.9,4.9,0,0,1,.09-1.84,2.36,2.36,0,0,1,.76-1.21,3.75,3.75,0,0,1,1.45-.66Z"/><path class="cls-3" d="M238.73,49.65l-.86.16a31,31,0,0,1-.25,3.95,12.86,12.86,0,0,1-.83,3.34,6.9,6.9,0,0,1-1.6,2.46,5,5,0,0,1-2.6,1.3l-1.05.21a2,2,0,0,1-1.65-.25,3.84,3.84,0,0,1-.95-2.07l-5.13-22.62a13.86,13.86,0,0,1-.37-2.49,2.49,2.49,0,0,1,.35-1.52,2.39,2.39,0,0,1,1.16-.86,13.44,13.44,0,0,1,2.07-.54l-.26-1.2-3.59.71-3.57.88-7.12,1.8.32,1.18a8.75,8.75,0,0,1,1.62-.28,2,2,0,0,1,1.24.3,3,3,0,0,1,1,1.2,12.31,12.31,0,0,1,.83,2.42l5.63,22a12.84,12.84,0,0,1,.4,2.2,3.79,3.79,0,0,1-.13,1.52,1.89,1.89,0,0,1-.73,1,4.57,4.57,0,0,1-1.4.59l.32,1.18,9.14-2.31,9.25-1.8Z"/><path class="cls-3" d="M255.06,25.33l-5.63.49-5.61.77c-3.73.54-7.49.95-11.18,1.75l1.88,10.25.9-.18a16.67,16.67,0,0,1-.06-2.75,10,10,0,0,1,.47-2.67,6.11,6.11,0,0,1,1.12-2.1,3.1,3.1,0,0,1,1.9-1l2-.28,3.8,25.44a13.63,13.63,0,0,1,.19,2.5,3.86,3.86,0,0,1-.33,1.57,1.82,1.82,0,0,1-.84.87,4.92,4.92,0,0,1-1.38.38l.19,1.21c4-.51,7.92-1.15,11.89-1.59l-.13-1.22a5.63,5.63,0,0,1-1.61-.1,1.89,1.89,0,0,1-1-.73,4.26,4.26,0,0,1-.65-1.5,20.26,20.26,0,0,1-.41-2.33l-3.08-25.39,1.71-.24a3.39,3.39,0,0,1,2.27.45,5.62,5.62,0,0,1,1.73,1.61,9.27,9.27,0,0,1,1.2,2.42,17.05,17.05,0,0,1,.69,2.84l.92-.07Z"/><path class="cls-3" d="M267.44,49.34l1.64,5.33a8.84,8.84,0,0,1,.26.9,4,4,0,0,1,.07.67,1.27,1.27,0,0,1-.5,1.17,3.83,3.83,0,0,1-1.94.41L267,59c3.61-.08,7.23-.25,10.85-.26V57.55a2.12,2.12,0,0,1-1.63-1.1,14,14,0,0,1-1.49-3.67q-4.11-14.55-9.24-29.08l-.62,0c-2.36,9.29-4.4,18.87-6.13,28.26a21.61,21.61,0,0,1-1.27,4.74,3,3,0,0,1-1.89,1.93l.12,1.22,7.3-.61L263,58a3.61,3.61,0,0,1-2-.31,1.94,1.94,0,0,1-.88-1.74,7.42,7.42,0,0,1,0-1.07,9.67,9.67,0,0,1,.15-1.33l.75-3.86,3.23-.27C265.28,49.38,266.36,49.38,267.44,49.34Zm-.71-2.5c-1.78,0-3.55.16-5.32.32q1.05-5.17,2.22-10.36C264.7,40.12,265.73,43.49,266.73,46.84Z"/><path class="cls-3" d="M287.92,24.55l-9.72-.24v1.23a3.52,3.52,0,0,1,.74.16,2.63,2.63,0,0,1,.78.4,5.63,5.63,0,0,1,.84.81,12.71,12.71,0,0,1,1,1.38l.82,1.21-.51,23.29a7.39,7.39,0,0,1-.79,3.66,2.33,2.33,0,0,1-2.2,1.14v1.23l7.71.2.06-1.23a3.62,3.62,0,0,1-1.67-.38,2.6,2.6,0,0,1-1-1,4.52,4.52,0,0,1-.49-1.58,14.35,14.35,0,0,1-.09-2.16L284,32.07a257.46,257.46,0,0,1,14.47,28.66l.77.09,3.05-29.09a6.46,6.46,0,0,1,1.2-3.58,2.74,2.74,0,0,1,2.59-.86l.14-1.22c-1.46-.18-2.93-.38-4.39-.53l-4.42-.34-.1,1.22a4.14,4.14,0,0,1,1.82.49A2.68,2.68,0,0,1,300.14,28a4.37,4.37,0,0,1,.43,1.57,11.16,11.16,0,0,1,0,2l-1.37,14C295.79,38.58,292,31.42,287.92,24.55Z"/><path class="cls-3" d="M331.83,29.73l-.94-.21a3.09,3.09,0,0,1-1,1.4,1.43,1.43,0,0,1-1.18.19,2.31,2.31,0,0,1-1-.57q-.5-.45-1.23-1a12.63,12.63,0,0,0-1.85-1.07,11,11,0,0,0-2.83-.85,10,10,0,0,0-5.46.49,12,12,0,0,0-4.67,3.28,19.29,19.29,0,0,0-3.45,5.51A27,27,0,0,0,306.38,44a28.55,28.55,0,0,0-.09,7.13,17.76,17.76,0,0,0,1.6,5.72A12.73,12.73,0,0,0,311.05,61a9.75,9.75,0,0,0,4.68,2.13,8,8,0,0,0,4.51-.52,13.19,13.19,0,0,0,4.44-3.26l.69-3.08a24.83,24.83,0,0,1-2.17,2.18,10.75,10.75,0,0,1-2,1.43,7.56,7.56,0,0,1-2,.7,5.6,5.6,0,0,1-2,0c-2.09-.37-3.44-1.94-4.1-4.72s-.66-6.53.09-11.25a37.83,37.83,0,0,1,1.45-6.15,19.62,19.62,0,0,1,2.16-4.66A8.45,8.45,0,0,1,319.66,31a5,5,0,0,1,3.46-.55,4.32,4.32,0,0,1,2.38,1.29,8.08,8.08,0,0,1,1.68,2.65,14.27,14.27,0,0,1,.9,3.52,19.34,19.34,0,0,1,.09,4l.89.21Z"/><path class="cls-3" d="M343.82,49.23q-.46-5.55-1.12-11.15a5.09,5.09,0,0,1-.1-1.15,4.11,4.11,0,0,1,.13-.84,2,2,0,0,1,.21-.5.85.85,0,0,1,.41-.38,1.94,1.94,0,0,1,.77-.15,4.83,4.83,0,0,1,1.24.21l.35-1.19-6-1.7c-2-.6-4-1-6-1.47l-.29,1.19A2.34,2.34,0,0,1,335,33.55a12.2,12.2,0,0,1,.76,3.22c.69,5.12,1.22,10.41,1.66,15.57l-2.29,8.25a16,16,0,0,1-.71,2,4,4,0,0,1-.86,1.33,2.05,2.05,0,0,1-1.19.57,4.46,4.46,0,0,1-1.71-.16l-.31,1.19,5.92,1.69c2,.54,4,1.09,5.89,1.8l.38-1.17a6.65,6.65,0,0,1-1.49-.74,1.93,1.93,0,0,1-.74-1,3.26,3.26,0,0,1,0-1.55,17.11,17.11,0,0,1,.58-2.39l3.2-10.42c2.38-2.85,4.77-5.54,7.24-8.3A20.38,20.38,0,0,1,355.17,40a3.69,3.69,0,0,1,2.62-.78l.41-1.16-8-2.71-.37,1.17a2.9,2.9,0,0,1,1.77,1.21,2.2,2.2,0,0,1,0,1.66,7.31,7.31,0,0,1-.48,1.14,7.85,7.85,0,0,1-1,1.39C348,44.31,345.89,46.73,343.82,49.23Z"/><path class="cls-3" d="M348.12,78.38a21.5,21.5,0,0,0,4.82-7.68,12.76,12.76,0,0,0,1-6.47c-.28-1.79-1-2.92-2.25-3.3a3.19,3.19,0,0,0-3.12.79,7.41,7.41,0,0,0-2.35,3.51,7.54,7.54,0,0,0-.34,3.89c.24,1.21.74,1.95,1.52,2.21a2.14,2.14,0,0,0,1.65-.07.81.81,0,0,1,.44-.12c.09,0,.16.15.18.37a2.17,2.17,0,0,1-.18.91,16.26,16.26,0,0,1-3,5,10.55,10.55,0,0,1-4.74,3.19l-.5,1.46A12.79,12.79,0,0,0,348.12,78.38Z"/><path class="cls-3" d="M385.7,64,385.38,70l-.48,6q-.54,6-1.28,11.77c2.65,1.44,5.15,3.13,7.69,4.75l.71-1.09A2.92,2.92,0,0,1,391,89.24a27.2,27.2,0,0,1,.41-4.36c.86-5.89,1.43-11.63,1.92-17.59a10,10,0,0,0,5.59-.54,14.51,14.51,0,0,0,6.76-6.07A14.8,14.8,0,0,0,408,53.3a9.26,9.26,0,0,0-1.88-6.16,23.84,23.84,0,0,0-7.54-5.61c-4.85-2.48-9.65-5.05-14.67-7.2l-.53,1.18a6.33,6.33,0,0,1,2.73,1.9,3,3,0,0,1,.42,1.94,19.33,19.33,0,0,1-1.78,4.53L371.47,71.73A23,23,0,0,1,369.11,76a3.36,3.36,0,0,1-1.6,1,4.24,4.24,0,0,1-2.73-.56l-.53,1.18c4.5,1.91,8.79,4.31,13.16,6.49L378,83a4.46,4.46,0,0,1-2.13-1.76,3.21,3.21,0,0,1-.17-1.88,23.77,23.77,0,0,1,2-4.45l6.14-11.83ZM397,43.62a6.55,6.55,0,0,1,4,5.15c.21,2.12-.59,4.74-2.39,7.89a16.46,16.46,0,0,1-3.84,4.81A6.05,6.05,0,0,1,391,63a12.22,12.22,0,0,1-4.76-1.52l-1.2-.61,9.59-18.5Z"/><path class="cls-3" d="M417.09,71.22l2.9,2.07a5.9,5.9,0,0,1,1.8,1.92,5,5,0,0,1,.59,2.34,7.94,7.94,0,0,1-.42,2.64,16.16,16.16,0,0,1-1.27,2.88l.65.51,6.05-7.79c-1.41-1.09-2.78-2.23-4.24-3.27l-4.35-3.09-4.36-3.1-4.5-2.91-.67,1a5.51,5.51,0,0,1,1.39,1.18,2.23,2.23,0,0,1,.51,1.24,3.06,3.06,0,0,1-.29,1.42,11.93,11.93,0,0,1-1,1.75L397.1,89.23a19.35,19.35,0,0,1-1.2,1.63,4,4,0,0,1-1.16,1,2.07,2.07,0,0,1-1.28.19,4,4,0,0,1-1.56-.66l-.67,1c1.32.85,2.67,1.69,4,2.56l3.86,2.75,3.86,2.75c1.26,1,2.49,1.94,3.73,2.92l7.54-8-.63-.5A27.86,27.86,0,0,1,410.28,97a10.72,10.72,0,0,1-2.82,1.11,5.89,5.89,0,0,1-2.44,0,5.72,5.72,0,0,1-2.24-1l-1-.69a3,3,0,0,1-.77-.74,1.19,1.19,0,0,1-.18-.84,3.14,3.14,0,0,1,.41-1.15,18.72,18.72,0,0,1,1.05-1.64l5.82-8.22.87.62a3.3,3.3,0,0,1,1.42,2.85,9.57,9.57,0,0,1-1.86,4.75l.68.49,9.46-12.65-.73-.52a16,16,0,0,1-2.39,2.45,6.41,6.41,0,0,1-2,1.13,3,3,0,0,1-1.73,0,5,5,0,0,1-1.58-.78l-.66-.47Z"/><path class="cls-3" d="M422,89.49a10.3,10.3,0,0,0-.69,3.21,11.69,11.69,0,0,0,.29,2.91c.23.94.49,1.85.8,2.73s.61,1.73.89,2.57a10,10,0,0,1,.56,2.45,6,6,0,0,1-1.72,4.86,6.2,6.2,0,0,1-3,2,3.31,3.31,0,0,1-3.07-.92,4.88,4.88,0,0,1-1.5-2.32,8.25,8.25,0,0,1-.27-3.11,15.75,15.75,0,0,1,.84-3.69,24.5,24.5,0,0,1,2-4.16l-.68-.54-8.27,10.32.61.48a7.68,7.68,0,0,1,1.54-.93,1,1,0,0,1,1,.1,1.62,1.62,0,0,1,.53.87c.12.4.27.87.44,1.41a11.31,11.31,0,0,0,.78,1.7,6.72,6.72,0,0,0,1.52,1.77,7.1,7.1,0,0,0,3.2,1.66,9,9,0,0,0,3.46,0,11.22,11.22,0,0,0,3.53-1.46,16.43,16.43,0,0,0,3.38-2.81c.39-.42.79-.87,1.17-1.33a11.7,11.7,0,0,0,1.89-3.24,9.76,9.76,0,0,0,.52-2,8.93,8.93,0,0,0,0-3.1A22.72,22.72,0,0,0,430.9,96q-.5-1.38-1-2.67a15,15,0,0,1-.78-2.51A6.37,6.37,0,0,1,429,88.4,4.9,4.9,0,0,1,430.21,86a5.49,5.49,0,0,1,3.05-2,3.65,3.65,0,0,1,3.22,1A5,5,0,0,1,438,87.37a8,8,0,0,1,.31,3,12.39,12.39,0,0,1-.8,3.45,21.42,21.42,0,0,1-1.72,3.59l.67.63,8.17-8.79-.69-.67a4.3,4.3,0,0,1-1.39,1,1,1,0,0,1-1.21-.09,2.14,2.14,0,0,1-.54-1c-.13-.46-.32-1-.54-1.59a14.66,14.66,0,0,0-1-2,8.33,8.33,0,0,0-1.79-2.06,7.28,7.28,0,0,0-3.12-1.63,7.19,7.19,0,0,0-3.51,0,11.18,11.18,0,0,0-3.52,1.6,14.3,14.3,0,0,0-3.17,3A12.22,12.22,0,0,0,422,89.49Z"/><path class="cls-3" d="M451.76,101l2.45,2.58a5.66,5.66,0,0,1,1.4,2.23,4.71,4.71,0,0,1,.17,2.39,8.1,8.1,0,0,1-.91,2.52,18,18,0,0,1-1.78,2.6l.54.63,7.39-6.53c-2.28-2.74-4.81-5.27-7.25-7.85-1.24-1.28-2.44-2.6-3.72-3.84L446.18,92l-.84.9a5.34,5.34,0,0,1,1.13,1.42,2.3,2.3,0,0,1,.27,1.33,3,3,0,0,1-.55,1.34,11.33,11.33,0,0,1-1.3,1.54L428.75,115a19,19,0,0,1-1.48,1.37,3.9,3.9,0,0,1-1.32.73,2.11,2.11,0,0,1-1.29,0,4.26,4.26,0,0,1-1.41-.94l-.85.89,3.43,3.27c1.12,1.1,2.19,2.28,3.28,3.41,2.18,2.29,4.39,4.54,6.4,7l8.91-6.49-.53-.61a24.37,24.37,0,0,1-3.64,1.55,10.05,10.05,0,0,1-3,.56,6.35,6.35,0,0,1-2.42-.44,5.83,5.83,0,0,1-2-1.39L432,123a2.83,2.83,0,0,1-.61-.87,1.29,1.29,0,0,1,0-.87,3.43,3.43,0,0,1,.62-1,19.27,19.27,0,0,1,1.34-1.42l7.25-7,.74.78a3.28,3.28,0,0,1,.84,3.08,9.61,9.61,0,0,1-2.71,4.32l.58.61,11.65-10.66-.62-.66a15.65,15.65,0,0,1-2.81,2,6.12,6.12,0,0,1-2.19.73,3,3,0,0,1-1.72-.28,4.94,4.94,0,0,1-1.4-1.06l-.55-.58Z"/><path class="cls-3" d="M451.79,135.12l-3.38,4.38a7.41,7.41,0,0,1-.58.73,3.94,3.94,0,0,1-.5.44,1.3,1.3,0,0,1-1.26.28,3.92,3.92,0,0,1-1.48-1.32l-1,.75c2.3,2.79,4.33,5.78,6.43,8.72l1-.71a2,2,0,0,1,0-1.95,14.85,14.85,0,0,1,2.16-3.35q4.8-5.9,9.46-12t9-12.3l-.39-.49c-9.05,3.5-17.82,7.16-26.57,11.23a22.24,22.24,0,0,1-4.62,1.7,3.08,3.08,0,0,1-2.7-.41l-.93.81c1.57,1.86,3.25,3.64,4.71,5.61l1-.77a3.75,3.75,0,0,1-.85-1.84,2,2,0,0,1,.91-1.73,8.14,8.14,0,0,1,.88-.63,9.76,9.76,0,0,1,1.17-.65l3.57-1.61Zm1.62-2-3.29-4.18c3.19-1.4,6.42-2.78,9.67-4.11Q456.64,129,453.41,133.1Z"/><path class="cls-3" d="M468.09,149.16l.77,1.18c-3.08,4.39-6.36,8.75-9.72,13,1.34,2.38,2.79,4.69,4,7.13l1.08-.59c-.42-1,.18-2.62,1.84-4.83q3.78-5,7.44-10.14a9.64,9.64,0,0,0,4.69,1.68,9.43,9.43,0,0,0,5.21-1.35,11.41,11.41,0,0,0,3.09-2.4,7.28,7.28,0,0,0,1.65-3.08,8.49,8.49,0,0,0,0-3.76,13.12,13.12,0,0,0-1.81-4.39l-3.66-5.71c-1.21-1.9-2.42-3.81-3.77-5.63l-1,.69a6,6,0,0,1,.83,1.55,2,2,0,0,1,0,1.27,2.78,2.78,0,0,1-.76,1.15,11.28,11.28,0,0,1-1.53,1.18l-19.38,13a13.33,13.33,0,0,1-2,1.16,3.36,3.36,0,0,1-1.42.38,1.76,1.76,0,0,1-1.1-.34,4.25,4.25,0,0,1-1-1l-1,.69c1.17,1.57,2.2,3.22,3.25,4.87l3.17,4.92,1-.64a7,7,0,0,1-.59-1.37,1.78,1.78,0,0,1,.05-1.14,3.15,3.15,0,0,1,.88-1.15,13.89,13.89,0,0,1,1.95-1.41Zm14.27-9,.65,1c1,1.63,1.31,3.12.71,4.5a8.32,8.32,0,0,1-3.67,3.71,14.29,14.29,0,0,1-2.5,1.19,7.35,7.35,0,0,1-2.5.47,5,5,0,0,1-2.26-.51,4.56,4.56,0,0,1-1.87-1.75l-.63-1Z"/><path class="cls-3" d="M505,176.84l-.36-.89a3,3,0,0,1-1.69,0,1.42,1.42,0,0,1-.83-.85A2.51,2.51,0,0,1,502,174c.05-.44.08-1,.09-1.57a13.34,13.34,0,0,0-.17-2.13,11.51,11.51,0,0,0-.91-2.82,9.84,9.84,0,0,0-3.51-4.21,13.11,13.11,0,0,0-5.42-1.92,18.89,18.89,0,0,0-6.47.33,27.26,27.26,0,0,0-6.92,2.56,29.39,29.39,0,0,0-5.91,4,17.89,17.89,0,0,0-3.78,4.6,11.29,11.29,0,0,0-1.48,4.9,10.13,10.13,0,0,0,.91,5.06,7.62,7.62,0,0,0,3,3.41,14.52,14.52,0,0,0,5.24,1.75l2.92-1.2a24.72,24.72,0,0,1-3-.53,14,14,0,0,1-2.35-.82,6,6,0,0,1-1.73-1.19,5.57,5.57,0,0,1-1.14-1.66c-.87-1.93-.34-3.94,1.56-6.09s4.94-4.27,9.24-6.36a40.85,40.85,0,0,1,5.89-2.36,19.61,19.61,0,0,1,5.07-.9,8.28,8.28,0,0,1,3.89.74,5,5,0,0,1,2.42,2.52,4.42,4.42,0,0,1,.29,2.7,8.21,8.21,0,0,1-1.16,2.85,13.41,13.41,0,0,1-2.36,2.75,18.4,18.4,0,0,1-3.21,2.35l.34.86Z"/><path class="cls-3" d="M494.42,202.93,484.26,206c-.86.27-1.56.45-2.14.57a3.6,3.6,0,0,1-1.45,0,1.72,1.72,0,0,1-1-.58,4.16,4.16,0,0,1-.69-1.34l-1.17.37c.65,1.78,1.12,3.62,1.65,5.44L481,216l1.18-.31a4.48,4.48,0,0,1-.2-1.26,1.62,1.62,0,0,1,.38-1,3.43,3.43,0,0,1,1.2-.85,14.69,14.69,0,0,1,2.29-.8l21.94-6.07a19.42,19.42,0,0,1,2.14-.48,3.4,3.4,0,0,1,1.54,0,2,2,0,0,1,1,.79,6.24,6.24,0,0,1,.72,1.73l1.19-.31L512.62,201c-.63-2.16-1.18-4.33-1.95-6.44l-1.17.37a5.35,5.35,0,0,1,.31,1.61,1.77,1.77,0,0,1-.4,1.15,3.57,3.57,0,0,1-1.24.89,19.88,19.88,0,0,1-2.15.78l-9.12,2.79c-.86-2.84-1.89-5.64-2.82-8.47l9-3.15a17.1,17.1,0,0,1,2-.59,3.46,3.46,0,0,1,1.52-.06,2.1,2.1,0,0,1,1.14.67,4.42,4.42,0,0,1,.83,1.56l1.16-.39-2.17-6.41L505.08,179l-1.14.45a5.94,5.94,0,0,1,.44,1.75,2,2,0,0,1-.31,1.26,3.27,3.27,0,0,1-1.15,1,17.37,17.37,0,0,1-2.07.92l-21.27,8.1a8.08,8.08,0,0,1-3.58.77,2,2,0,0,1-1.59-1.37l-1.15.45c.67,1.71,1.36,3.4,2,5.12l1.76,5.21,1.16-.38a4.34,4.34,0,0,1-.27-1.37,1.58,1.58,0,0,1,.35-1.06,3.38,3.38,0,0,1,1.15-.9,17,17,0,0,1,2.19-.91l10-3.51C492.56,197.35,493.57,200.11,494.42,202.93Z"/><path class="cls-3" d="M495.32,237.92l-5.13,2.16a6.57,6.57,0,0,1-.88.35,5.57,5.57,0,0,1-.66.14,1.26,1.26,0,0,1-1.21-.39,3.67,3.67,0,0,1-.59-1.88l-1.21.17c.42,3.59,1,7.16,1.31,10.76l1.22-.11a2.13,2.13,0,0,1,.95-1.73,13.93,13.93,0,0,1,3.5-1.85q14.07-5.52,28-12.1l-.07-.61c-9.58-1.41-19.22-2.49-28.73-3.27a21.58,21.58,0,0,1-4.83-.79,3,3,0,0,1-2.1-1.7l-1.21.25,1.29,7.2,1.21-.21a3.57,3.57,0,0,1,.13-2,2,2,0,0,1,1.64-1.05,9.34,9.34,0,0,1,1.07-.11,9.91,9.91,0,0,1,1.33,0l3.92.36C494.63,233.66,495.11,235.77,495.32,237.92Zm2.43-1c-.18-1.76-.6-3.5-.88-5.25,3.5.35,7,.73,10.51,1.17Q502.63,235,497.75,237Z"/><path class="cls-3" d="M522,255.83l-.73-9.69-1.22.11a4,4,0,0,1-.08.76,2.52,2.52,0,0,1-.33.82,5.3,5.3,0,0,1-.73.92,13,13,0,0,1-1.26,1.12l-1.13.94-23.23,1.8a7.54,7.54,0,0,1-3.73-.42,2.36,2.36,0,0,1-1.35-2.07l-1.22.11.58,7.69,1.22-.07a3.69,3.69,0,0,1,.21-1.7,2.58,2.58,0,0,1,.88-1.11,4.33,4.33,0,0,1,1.52-.64,14.32,14.32,0,0,1,2.14-.3l20.58-1.45q-3.3,2.39-6.61,4.67c-2.22,1.53-4.53,3-6.8,4.44q-6.83,4.31-13.67,8.13l0,.78,29.26.13a6.43,6.43,0,0,1,3.68.84,2.75,2.75,0,0,1,1.11,2.49l1.24,0,.1-4.43-.1-4.42-1.24,0a4.12,4.12,0,0,1-.31,1.86,2.65,2.65,0,0,1-1,1.15,4.36,4.36,0,0,1-1.53.59,10.86,10.86,0,0,1-2,.18l-14.07,0C508.84,265.05,515.54,260.62,522,255.83Z"/><path class="cls-3" d="M487.82,274.54l-.14,5.95-.45,5.92a8.9,8.9,0,0,0,1,4.93,11.61,11.61,0,0,0,3.16,4,18.63,18.63,0,0,0,5.08,2.88,28.17,28.17,0,0,0,6.49,1.64,27.44,27.44,0,0,0,7.56.06,15.6,15.6,0,0,0,5.77-1.95,11,11,0,0,0,3.83-3.8,12.75,12.75,0,0,0,1.56-5.37l.49-6.7.18-6.71-1.24,0v.35a4.72,4.72,0,0,1-.23,1.41,1.78,1.78,0,0,1-.72.9,3.76,3.76,0,0,1-1.44.45,15.28,15.28,0,0,1-2.36.07l-22.74-.82a14.34,14.34,0,0,1-2.37-.25,3.58,3.58,0,0,1-1.37-.56,1.68,1.68,0,0,1-.64-.93,4.52,4.52,0,0,1-.14-1.34Zm31.61,10.68-.09,1.24a5.68,5.68,0,0,1-1.41,3.48,8.15,8.15,0,0,1-3.37,2.2,17.2,17.2,0,0,1-4.94.95,36.4,36.4,0,0,1-6.11-.16c-4.88-.5-8.43-1.44-10.64-2.78s-3.24-3-3.09-5a3.28,3.28,0,0,1,.19-.9,1.11,1.11,0,0,1,.55-.54,3.17,3.17,0,0,1,1.11-.21,15.82,15.82,0,0,1,1.86.05Z"/><path class="cls-3" d="M523.07,352.39a5.53,5.53,0,0,1-2.23-1.58,1.75,1.75,0,0,1-.33-1.61,10.2,10.2,0,0,1,2.17-2.48,16.29,16.29,0,0,0,4.27-6.91,14.28,14.28,0,0,0,.51-4.94,16,16,0,0,0-1.38-5.09A21.15,21.15,0,0,0,518.4,321a32.48,32.48,0,0,0-12.14-5,37,37,0,0,0-12.35-.4,20.89,20.89,0,0,0-9.83,3.59,14.15,14.15,0,0,0-5,7.14,10.42,10.42,0,0,0,.14,6.4,20.12,20.12,0,0,0,4.11,6.71l3.89,1.32a24.86,24.86,0,0,1-4.86-6.76,7.92,7.92,0,0,1-.5-5.4,6.79,6.79,0,0,1,4.09-4.54,19,19,0,0,1,8.42-1.16,62.52,62.52,0,0,1,11.55,1.7A40.88,40.88,0,0,1,517,328.82a14.07,14.07,0,0,1,5.56,5.44,8.37,8.37,0,0,1,.84,6.42,8.64,8.64,0,0,1-5.26,5.67q-4.26,1.84-10.71.8l-.3.9,15.61,5.32Z"/><path class="cls-3" d="M480.43,355.21l-5.52-.8a8.24,8.24,0,0,1-.93-.15,3.89,3.89,0,0,1-.63-.22,1.23,1.23,0,0,1-.84-.94,4.45,4.45,0,0,1,.42-1.94l-1.13-.47c-1.39,3.34-2.95,6.59-4.41,9.89l1.11.53a2,2,0,0,1,1.66-1,14.31,14.31,0,0,1,4,.23c9.94,1.69,20.12,3.09,30.27,4.09l.22-.57q-11.25-9.24-22.89-17.59A21.8,21.8,0,0,1,478,343.1a3.16,3.16,0,0,1-1-2.56l-1.16-.41c-.72,2.32-1.72,4.56-2.58,6.84l1.15.45a3.64,3.64,0,0,1,1.16-1.65,2,2,0,0,1,2-.06,9.81,9.81,0,0,1,1,.45,11.55,11.55,0,0,1,1.14.71l3.15,2.32Zm2.54.42,2-5q4.2,3.15,8.36,6.41C489.85,356.63,486.4,356.15,483,355.63Z"/><path class="cls-3" d="M476.29,376.34c-.38.8-.82,1.57-1.26,2.33a11,11,0,0,0-1.48,4.11,8.55,8.55,0,0,0,.33,3.69,9.1,9.1,0,0,0,1.86,3.17,13.89,13.89,0,0,0,3.11,2.57,10.26,10.26,0,0,0,4.15,1.57,7.53,7.53,0,0,0,3.57-.39,8,8,0,0,0,2.93-1.94,14.78,14.78,0,0,0,2.25-3c1.17-1.94,2.14-4,3.19-6l3.09-6-1.11-.53a3.49,3.49,0,0,1-2,2,5.07,5.07,0,0,1-3.3-.76l-20.73-10.4a14.37,14.37,0,0,1-2-1.17,4.15,4.15,0,0,1-1.07-1.07,1.66,1.66,0,0,1-.23-1.12,4.35,4.35,0,0,1,.46-1.32l-1.11-.54-2.67,5.2c-.9,1.73-1.73,3.5-2.75,5.17l1.07.59a5.22,5.22,0,0,1,1-1.17,2.11,2.11,0,0,1,1.1-.49,3.62,3.62,0,0,1,1.47.23,14.58,14.58,0,0,1,2.06.95Zm14.82,8-.44.84a5.17,5.17,0,0,1-1.59,1.87,3.9,3.9,0,0,1-2,.69,6,6,0,0,1-2.28-.35,16,16,0,0,1-2.63-1.22,10.08,10.08,0,0,1-4.17-3.77,3.7,3.7,0,0,1,0-3.74l.54-1Z"/><path class="cls-3" d="M459.9,393.08l-5.25-1.86a8,8,0,0,1-.89-.33,4.65,4.65,0,0,1-.58-.34,1.25,1.25,0,0,1-.64-1.1,4.41,4.41,0,0,1,.81-1.8l-1-.69c-2,3-4.17,5.9-6.24,8.86l1,.73a2,2,0,0,1,1.83-.66,14.19,14.19,0,0,1,3.84,1c9.42,3.59,19.1,6.93,28.89,9.91l.34-.52q-9.25-11.25-19-21.72a21.45,21.45,0,0,1-3-3.82,3.19,3.19,0,0,1-.48-2.71l-1.05-.63c-1.16,2.15-2.59,4.14-3.88,6.21l1,.67a3.62,3.62,0,0,1,1.45-1.4,2,2,0,0,1,1.94.33,9.58,9.58,0,0,1,.86.63,10.08,10.08,0,0,1,1,.91l2.65,2.89Zm2.43.91,2.87-4.49q3.53,3.9,7,7.92Q467.22,395.74,462.33,394Z"/><path class="cls-3" d="M457.65,436.83l.67-.7a3,3,0,0,1-.73-1.53,1.64,1.64,0,0,1,.41-1.12,2.15,2.15,0,0,1,1-.62,14.91,14.91,0,0,0,1.46-.59,14.37,14.37,0,0,0,1.86-1,10.77,10.77,0,0,0,2.17-2,9.29,9.29,0,0,0,2.31-5,13.05,13.05,0,0,0-.53-5.71,18.7,18.7,0,0,0-3-5.72,26.65,26.65,0,0,0-5.25-5.19,29,29,0,0,0-6.14-3.66,18.22,18.22,0,0,0-5.79-1.49,11.32,11.32,0,0,0-5.07.72,10.87,10.87,0,0,0-4.18,3,7.49,7.49,0,0,0-1.83,4.16,14.8,14.8,0,0,0,.65,5.51L438,418a23.64,23.64,0,0,1-.79-3,12.18,12.18,0,0,1-.28-2.5,6.15,6.15,0,0,1,.36-2.07,5.55,5.55,0,0,1,1-1.72c1.39-1.6,3.44-2,6.19-1.15s5.94,2.66,9.65,5.66a40.75,40.75,0,0,1,4.62,4.34,20.7,20.7,0,0,1,3,4.23,8.19,8.19,0,0,1,1,3.84,5,5,0,0,1-1.26,3.24,4.48,4.48,0,0,1-2.33,1.4,8.47,8.47,0,0,1-3.08.16,12.86,12.86,0,0,1-3.47-1,19.7,19.7,0,0,1-3.48-1.91l-.63.66Z"/><path class="cls-3" d="M423.16,423.37a5,5,0,0,1,1.18-.88,1.73,1.73,0,0,1,1.12-.15,3.26,3.26,0,0,1,1.31.67,17.21,17.21,0,0,1,1.75,1.61l15.92,16.27a15,15,0,0,1,1.61,1.9,3.18,3.18,0,0,1,.57,1.4,1.86,1.86,0,0,1-.32,1.18,8.3,8.3,0,0,1-1.07,1.22l.85.89c1.62-1.57,3.29-3.1,4.87-4.7l4.68-4.89-.89-.85a7.37,7.37,0,0,1-1.17,1,2,2,0,0,1-1.2.33,3.07,3.07,0,0,1-1.42-.55,14.14,14.14,0,0,1-1.91-1.61l-16.35-15.83a16.11,16.11,0,0,1-1.61-1.77,3.45,3.45,0,0,1-.67-1.33,1.7,1.7,0,0,1,.16-1.11,5.2,5.2,0,0,1,.87-1.13l-.89-.85-4,4.22c-1.38,1.37-2.81,2.68-4.2,4Z"/><path class="cls-3" d="M428,463.07l4.44-3.5c1.48-1.17,2.87-2.45,4.3-3.66,2.86-2.46,5.73-4.9,8.41-7.56L438,440.76l-.66.64a16.73,16.73,0,0,1,1.54,2.27,10.65,10.65,0,0,1,1.06,2.49,6.14,6.14,0,0,1,.19,2.38,2.87,2.87,0,0,1-1,1.88l-1.55,1.34-17-19.28a15.34,15.34,0,0,1-1.52-2,3.86,3.86,0,0,1-.58-1.5,1.79,1.79,0,0,1,.24-1.18,5.07,5.07,0,0,1,.95-1.08l-.83-.91-4.53,3.93c-1.52,1.29-3,2.66-4.59,3.86l.77.94a3.93,3.93,0,0,1,1.42-.77,2,2,0,0,1,1.3.05,4.42,4.42,0,0,1,1.36.91,21.14,21.14,0,0,1,1.61,1.74l16.39,19.63c-.45.38-.87.76-1.32,1.12a3.69,3.69,0,0,1-2.15.84,5.49,5.49,0,0,1-2.33-.4,9.3,9.3,0,0,1-2.31-1.37,18.37,18.37,0,0,1-2.13-2l-.72.57Z"/><path class="cls-3" d="M406.46,460.19c3.07,2.07,6.2,4.12,9.37,6.12a5.23,5.23,0,0,1,1,.65,4,4,0,0,1,.56.63,1.87,1.87,0,0,1,.26.48.91.91,0,0,1,0,.55,1.88,1.88,0,0,1-.37.69,4,4,0,0,1-.94.84l.71,1c3.37-2.43,6.82-4.75,10-7.38l-.75-1a2.29,2.29,0,0,1-2.16.37,11.88,11.88,0,0,1-3-1.43c-4.45-2.73-8.87-5.6-13.16-8.51l-5-7a15.52,15.52,0,0,1-1.15-1.84,4.3,4.3,0,0,1-.49-1.5,2.1,2.1,0,0,1,.3-1.29,4.84,4.84,0,0,1,1.19-1.24l-.73-1-5,3.58c-.85.59-1.67,1.21-2.53,1.77l-2.6,1.66.66,1a6.57,6.57,0,0,1,1.52-.7,1.91,1.91,0,0,1,1.25.06,3.48,3.48,0,0,1,1.25,1,16.58,16.58,0,0,1,1.49,2l6.1,9.05q1,5.35,1.89,10.82a20.85,20.85,0,0,1,.29,5.2,3.72,3.72,0,0,1-1,2.53l.65,1,7.13-4.58-.69-1a2.88,2.88,0,0,1-2,.62,2.14,2.14,0,0,1-1.31-1,6.64,6.64,0,0,1-.59-1.09,7.68,7.68,0,0,1-.46-1.65C407.63,466.46,407.1,463.36,406.46,460.19Z"/><path class="cls-3" d="M367.18,492.53a11.19,11.19,0,0,0,.66,6.32,13.77,13.77,0,0,0,3.59,5.21,10.08,10.08,0,0,0,5.3,2.58c1.9.24,4.7-.51,8.38-2.16l3.84-1.75,3.75-1.9,7.51-3.86-.62-1.14a6.45,6.45,0,0,1-3.19,1,3.19,3.19,0,0,1-1.83-.86A20,20,0,0,1,392,491.8l-14.21-27.41a22.57,22.57,0,0,1-2-4.43,3.18,3.18,0,0,1,.15-1.87,4.25,4.25,0,0,1,2.14-1.77l-.62-1.14c-4.35,2.16-8.6,4.55-13.07,6.44a12.92,12.92,0,0,0-4.47,3.2,10.54,10.54,0,0,0-2.46,4.41,14.58,14.58,0,0,0,.75,9.24,12.42,12.42,0,0,0,5.43,6.75,12.64,12.64,0,0,0,7.36,1.09C368.9,488.47,367.56,490.43,367.18,492.53Zm5.6-10.09a6.78,6.78,0,0,1-4-2.23,16,16,0,0,1-3.29-5.07,17,17,0,0,1-1.37-5.18,8.06,8.06,0,0,1,.59-4.23,4.77,4.77,0,0,1,2.37-2.45,2,2,0,0,1,2,.15,5.67,5.67,0,0,1,1.77,2.34l.74,1.59,6.6,13.76A10.88,10.88,0,0,1,372.78,482.44Zm14.63,18.06c-2.27,1.05-4.07,1.5-5.38,1.32a6.67,6.67,0,0,1-3.61-1.74,12.37,12.37,0,0,1-2.88-4.37,13.4,13.4,0,0,1-1.29-5.12,7.29,7.29,0,0,1,1-3.91,8.8,8.8,0,0,1,4.08-3.08Z"/><path class="cls-3" d="M337.63,507.51c2.93-.75,5.84-1.62,8.75-2.44L346,503.9a4.83,4.83,0,0,1-1.86.19,2.48,2.48,0,0,1-1.39-.64,4.88,4.88,0,0,1-1-1.54,15.67,15.67,0,0,1-.84-2.4L337,485.35a17.76,17.76,0,0,1-.77-7.73,4.29,4.29,0,0,1,3.18-3.64,4.41,4.41,0,0,1,4.4.85,12.93,12.93,0,0,1,3.2,5.63l5.51,16.59a6.39,6.39,0,0,1,.4,3.57,2.87,2.87,0,0,1-2,1.84l.38,1.17,6.39-2.16c2.13-.71,4.26-1.42,6.33-2.28l-.43-1.14a3.33,3.33,0,0,1-2.85.12,5,5,0,0,1-1.77-2.64l-6-16.49a22.3,22.3,0,0,0-2.45-4.94,12.12,12.12,0,0,0-3-3.16,7.91,7.91,0,0,0-3.5-1.37A8.57,8.57,0,0,0,340,470a7.31,7.31,0,0,0-5.2,5.13c-.81,2.65-.64,6.25.58,10.79L339.19,500a15.47,15.47,0,0,1,.51,2.62,4.65,4.65,0,0,1-.12,1.84,2.31,2.31,0,0,1-.79,1.19,3.37,3.37,0,0,1-1.45.67Z"/><path class="cls-3" d="M317.2,478a4.69,4.69,0,0,1,1.46-.07,1.81,1.81,0,0,1,1,.49,3.23,3.23,0,0,1,.74,1.27,15,15,0,0,1,.6,2.29l4.6,22.29a15.45,15.45,0,0,1,.33,2.48,3.05,3.05,0,0,1-.28,1.49,1.85,1.85,0,0,1-.91.81,8.08,8.08,0,0,1-1.55.42l.24,1.2c1.1-.21,2.22-.38,3.33-.61l3.31-.76,6.6-1.52-.3-1.2a6.93,6.93,0,0,1-1.55.22,1.89,1.89,0,0,1-1.18-.37,3.1,3.1,0,0,1-.91-1.24,14.78,14.78,0,0,1-.75-2.38L326.8,480.6a13.2,13.2,0,0,1-.39-2.35,3.44,3.44,0,0,1,.15-1.48,1.62,1.62,0,0,1,.74-.83,4.94,4.94,0,0,1,1.34-.47l-.3-1.2-5.66,1.31-2.84.66c-.95.19-1.91.34-2.86.52Z"/><path class="cls-3" d="M297.73,492l.87-.07a32,32,0,0,1,.58-3.88,13.8,13.8,0,0,1,1.09-3.27,7.25,7.25,0,0,1,1.79-2.35,5,5,0,0,1,2.7-1.11l1.06-.13a1.88,1.88,0,0,1,1.61.35,3.79,3.79,0,0,1,.78,2.16l3.32,23a14.8,14.8,0,0,1,.18,2.5,2.55,2.55,0,0,1-.47,1.48,2.45,2.45,0,0,1-1.23.78,12.7,12.7,0,0,1-2.1.4l.15,1.22c2.43-.33,4.86-.57,7.27-1l7.22-1.29-.22-1.21a9.81,9.81,0,0,1-1.64.17,2,2,0,0,1-1.21-.39,2.87,2.87,0,0,1-.87-1.27,12.66,12.66,0,0,1-.64-2.47l-3.85-22.37a13.47,13.47,0,0,1-.23-2.21,3.69,3.69,0,0,1,.26-1.51,2,2,0,0,1,.81-.93,4.5,4.5,0,0,1,1.43-.49l-.22-1.2c-6.17,1.21-12.41,2-18.66,2.68Z"/><path class="cls-3" d="M295.8,479.7c-4,.27-7.89.7-11.87.7a8.84,8.84,0,0,0-4.8,1.45,12.78,12.78,0,0,0-3.56,3.65,18.1,18.1,0,0,0-2.31,5.34,28.45,28.45,0,0,0-.9,6.63,27.65,27.65,0,0,0,.77,7.53,15.86,15.86,0,0,0,2.58,5.54,10.16,10.16,0,0,0,4.19,3.31,12.79,12.79,0,0,0,5.5,1c4.48,0,8.94-.5,13.41-.81l-.1-1.22-.34,0a4.59,4.59,0,0,1-1.43-.09,1.75,1.75,0,0,1-1-.63,3.55,3.55,0,0,1-.61-1.38,13.35,13.35,0,0,1-.32-2.33l-1.69-22.7a13.52,13.52,0,0,1,0-2.37,3.33,3.33,0,0,1,.4-1.42,1.66,1.66,0,0,1,.86-.73,4.18,4.18,0,0,1,1.32-.28Zm-7.13,32.62-1.24,0a5.85,5.85,0,0,1-3.63-1,8.19,8.19,0,0,1-2.55-3.13,17.87,17.87,0,0,1-1.5-4.82,38.24,38.24,0,0,1-.51-6.09c-.05-4.92.5-8.54,1.58-10.87s2.61-3.52,4.61-3.57a3,3,0,0,1,.91.1,1.17,1.17,0,0,1,.59.5,2.8,2.8,0,0,1,.34,1.08c.07.47.12,1.09.16,1.86Z"/><path class="cls-3" d="M259,481a5.56,5.56,0,0,1,1.43.28,1.71,1.71,0,0,1,.86.73,3.26,3.26,0,0,1,.37,1.42,18,18,0,0,1,0,2.38L260,508.51a13.56,13.56,0,0,1-.34,2.47,2.86,2.86,0,0,1-.68,1.35,1.79,1.79,0,0,1-1.1.55,7.57,7.57,0,0,1-1.6,0l-.11,1.22,6.75.51c2.25.21,4.51.16,6.77.26l0-1.24a7.56,7.56,0,0,1-1.55-.17,1.85,1.85,0,0,1-1-.66,3,3,0,0,1-.53-1.42,12.53,12.53,0,0,1-.08-2.5l1-22.75a15.81,15.81,0,0,1,.25-2.37,3.27,3.27,0,0,1,.56-1.39,1.61,1.61,0,0,1,.93-.63,5.29,5.29,0,0,1,1.41-.12l0-1.23c-1.94-.09-3.89,0-5.82-.21l-5.81-.44Z"/><path class="cls-3" d="M246.33,513.09l4.83.61c1.6.21,3.23.27,4.84.42l.1-1.23a4.14,4.14,0,0,1-.73-.19,2.88,2.88,0,0,1-.74-.44,4.83,4.83,0,0,1-.78-.86A12.68,12.68,0,0,1,253,510l-.73-1.26,2.38-23.17a7.51,7.51,0,0,1,1.08-3.59,2.42,2.42,0,0,1,2.28-1l.12-1.22c-2.58-.13-5.11-.52-7.66-.83l-.15,1.22a3.6,3.6,0,0,1,1.63.54,2.59,2.59,0,0,1,.93,1.09,4.51,4.51,0,0,1,.35,1.62,15,15,0,0,1-.08,2.16L250.88,506q-3.52-7.44-6.56-14.82c-2-4.91-3.84-10.05-5.52-15L238,476l-5.4,28.76a6.54,6.54,0,0,1-1.48,3.49,2.87,2.87,0,0,1-2.67.72l-.24,1.2,8.72,1.56.2-1.21a4.37,4.37,0,0,1-1.77-.68,2.73,2.73,0,0,1-1-1.18,4.19,4.19,0,0,1-.3-1.63,9.45,9.45,0,0,1,.19-2l2.49-13.84c1.4,3.66,2.9,7.35,4.47,11S244.55,509.48,246.33,513.09Z"/><path class="cls-3" d="M202.82,504.46l.87.29a3.79,3.79,0,0,1,1-1.37,1.17,1.17,0,0,1,1-.15,2.61,2.61,0,0,1,1,.62c.35.32.77.68,1.27,1.09a15.78,15.78,0,0,0,1.79,1.24,11.31,11.31,0,0,0,2.62,1.07,9.37,9.37,0,0,0,5.67,0,13.26,13.26,0,0,0,5.06-3,18.65,18.65,0,0,0,3.93-5.26,27.46,27.46,0,0,0,2.45-7,29.18,29.18,0,0,0,.68-6.79,17.78,17.78,0,0,0-1-5.81,11,11,0,0,0-2.89-4.35,10.46,10.46,0,0,0-2.18-1.52,12.11,12.11,0,0,0-2.7-1.1,13.74,13.74,0,0,0-4.59-.52,15.41,15.41,0,0,0-4.32.88l-2.53,8a3.66,3.66,0,0,1-1.32,2.1,2.45,2.45,0,0,1-2.11.07l-.4,1.23c3.74,1.36,7.59,2.34,11.41,3.44l.34-1.24a3.22,3.22,0,0,1-2.07-1.34,3.54,3.54,0,0,1,0-2.6l2.16-7.52a3.57,3.57,0,0,1,1.49-.29,5.53,5.53,0,0,1,1.36.18,3.5,3.5,0,0,1,1.76,1.25,7.53,7.53,0,0,1,1.19,2.33,13.27,13.27,0,0,1,.37,4.92,48.1,48.1,0,0,1-1.31,7.31,41.44,41.44,0,0,1-2.12,6.53,20.47,20.47,0,0,1-2.64,4.63,8,8,0,0,1-3,2.52,4.49,4.49,0,0,1-3.18.24,5.25,5.25,0,0,1-2.46-1.45,6.71,6.71,0,0,1-1.45-2.52,12.74,12.74,0,0,1-.61-3.5,37.61,37.61,0,0,1,0-4.35l-.82-.28Z"/><path class="cls-3" d="M180.81,498.42c4.82-4.29,8.49-10,11.27-16.91a56,56,0,0,0,4.24-19.95c.14-6.31-.76-11-2.83-14l-.75,1.59a13.92,13.92,0,0,1,.84,5.11,42.12,42.12,0,0,1-1.54,9.5A111,111,0,0,1,186.46,479a93,93,0,0,1-7.9,15.25,26.84,26.84,0,0,1-5.71,6.32,17.92,17.92,0,0,1-5.53,2.62l-.68,1.45C171.28,504.65,176,502.63,180.81,498.42Z"/><path class="cls-3" d="M150,458.58a51.55,51.55,0,0,1,6.58-5.86,11.12,11.12,0,0,1,4.58-2.07,5.66,5.66,0,0,1,4,1c.68.44,1.35.87,2.07,1.26a6.41,6.41,0,0,1,2.09,1.56,2.42,2.42,0,0,1,.13,1.79,24.34,24.34,0,0,1-2.09,4.16l-15.13,26.26a20.05,20.05,0,0,1-2.45,3.69,3.13,3.13,0,0,1-1.76.93,3.82,3.82,0,0,1-2.5-.59l-1.32-.76-.68,1.11c5.41,3.13,10.79,6.31,16.42,9.06l.59-1.15-1-.53a3.55,3.55,0,0,1-1.76-1.67,3.27,3.27,0,0,1-.27-1.94,20.9,20.9,0,0,1,1.9-4.15L174.09,463a24.31,24.31,0,0,1,2.29-3.79,3.46,3.46,0,0,1,1.55-1.1,2.81,2.81,0,0,1,2.15.27l.85.44.59-1.15c-1.88-1-3.79-1.9-5.65-2.93l-5.52-3.18L167.58,450l-2.67-1.72-5.37-3.43-10.27,13.2Z"/><path class="cls-3" d="M121.83,447.06a17.48,17.48,0,0,0-1.51,6.26,12.7,12.7,0,0,0,1.05,5.59,11.72,11.72,0,0,0,3.41,4.25,11.46,11.46,0,0,0,5.2,2.36,12.57,12.57,0,0,0,5.74-.51,17.42,17.42,0,0,0,5.6-3.09,25.45,25.45,0,0,0,5-5.43,28.26,28.26,0,0,0,3.48-6.5,20.12,20.12,0,0,0,1.31-6.08,12.45,12.45,0,0,0-.84-5.21,9.38,9.38,0,0,0-3-4.09,9.19,9.19,0,0,0-4.84-2,12.79,12.79,0,0,0-5.4.51,21.17,21.17,0,0,0-5.61,2.77,27.84,27.84,0,0,0-5.24,4.65A24.78,24.78,0,0,0,121.83,447.06Zm14.06-6.82a25.09,25.09,0,0,1,4-3,9.2,9.2,0,0,1,3.37-1.3,3.26,3.26,0,0,1,2.55.61,3.32,3.32,0,0,1,1.23,2.8,12,12,0,0,1-.88,4A29,29,0,0,1,143.8,448a54.73,54.73,0,0,1-3.17,4.72,39.85,39.85,0,0,1-4.83,5.54,18.4,18.4,0,0,1-4,2.94,6.69,6.69,0,0,1-3.21.82,3.87,3.87,0,0,1-2.32-.79,4,4,0,0,1-1.41-2.36,7.31,7.31,0,0,1,.3-3.56,21.32,21.32,0,0,1,2.2-4.7,48.34,48.34,0,0,1,4.2-5.76A45.17,45.17,0,0,1,135.89,440.24Z"/><path class="cls-3" d="M94.83,435.15l.67.69a3.07,3.07,0,0,1,1.61-.6,1.5,1.5,0,0,1,1.09.49,2.15,2.15,0,0,1,.53,1,15.52,15.52,0,0,0,.45,1.51,14.18,14.18,0,0,0,.87,2,11.44,11.44,0,0,0,1.79,2.35,9.25,9.25,0,0,0,4.79,2.69,12.94,12.94,0,0,0,5.71,0,18.43,18.43,0,0,0,5.94-2.5A26.4,26.4,0,0,0,123.9,438a28.77,28.77,0,0,0,4.18-5.8,18.38,18.38,0,0,0,2-5.66,11.56,11.56,0,0,0-.26-5.13,11,11,0,0,0-2.65-4.39,7.36,7.36,0,0,0-4-2.22,13.74,13.74,0,0,0-5.57.21l-2.33,2.13a25,25,0,0,1,3.06-.57,11.88,11.88,0,0,1,2.51-.05,6.08,6.08,0,0,1,2,.55,5.31,5.31,0,0,1,1.6,1.18,4.4,4.4,0,0,1,1.24,2.72,7.46,7.46,0,0,1-.58,3.52q-1.53,4-6.49,9.13a40.39,40.39,0,0,1-4.73,4.22,19.26,19.26,0,0,1-4.46,2.6,8.71,8.71,0,0,1-4,.7,5,5,0,0,1-3.1-1.57,4.52,4.52,0,0,1-1.18-2.46,8.61,8.61,0,0,1,.12-3.1,13.25,13.25,0,0,1,1.25-3.37,18.4,18.4,0,0,1,2.18-3.29l-.63-.67Z"/><path class="cls-3" d="M104.48,407l3.33-4.46a9.29,9.29,0,0,1,.58-.74,4,4,0,0,1,.48-.45,1.29,1.29,0,0,1,1.25-.29,3.83,3.83,0,0,1,1.48,1.32l1-.77C110.35,398.77,108,396,106,393l-1,.72a2,2,0,0,1,.05,2,14.78,14.78,0,0,1-2.12,3.4c-6.26,7.93-12.23,16.1-18,24.56l.38.49c8.9-3.56,17.8-7.52,26.42-11.68a22.08,22.08,0,0,1,4.57-1.76,3.07,3.07,0,0,1,2.69.39l.91-.81-4.8-5.55-.94.79a3.46,3.46,0,0,1,.92,1.79,1.94,1.94,0,0,1-.88,1.74,9.24,9.24,0,0,1-.86.63,12.5,12.5,0,0,1-1.17.67L108.58,412C107.14,410.43,105.8,408.72,104.48,407Zm-1.61,2c1.09,1.4,2.18,2.81,3.37,4.13-3.18,1.46-6.45,2.93-9.64,4.29C98.66,414.64,100.76,411.83,102.87,409.06Z"/><path class="cls-3" d="M84,382l.43.76a32.48,32.48,0,0,1,3.77-1.13,13.39,13.39,0,0,1,3.39-.38,7.93,7.93,0,0,1,2.87.64,5.08,5.08,0,0,1,2.17,2l.59.9a1.9,1.9,0,0,1,.36,1.61A3.82,3.82,0,0,1,96,388l-19.4,12.71a14.51,14.51,0,0,1-2.19,1.22,2.59,2.59,0,0,1-1.55.2,2.43,2.43,0,0,1-1.23-.78,13.61,13.61,0,0,1-1.26-1.71l-1,.65,4,6.17c1.37,2,2.82,4,4.22,6l1-.72a9.55,9.55,0,0,1-.86-1.41,1.89,1.89,0,0,1-.15-1.25,2.85,2.85,0,0,1,.77-1.33,12.21,12.21,0,0,1,2-1.61l18.64-13A13.41,13.41,0,0,1,100.8,392a3.72,3.72,0,0,1,1.47-.42,2,2,0,0,1,1.18.34,4.44,4.44,0,0,1,1.07,1.09l1-.71c-1.82-2.57-3.68-5.1-5.32-7.79s-3.48-5.24-5-8Z"/><path class="cls-3" d="M60.64,352.22l2.78,7.06,1.12-.48a2.37,2.37,0,0,1-.08-1.55A2.09,2.09,0,0,1,65.83,356a11,11,0,0,1,2.72-.65,22.43,22.43,0,0,1,4.12-.09c-.51.65-1.07,1.34-1.68,2.06s-1.26,1.46-1.91,2.17-1.31,1.42-2,2.09-1.27,1.3-1.85,1.85a18.81,18.81,0,0,0-2.69-1.88,9.49,9.49,0,0,0-2.4-.95,6.3,6.3,0,0,0-2.33-.08,11.5,11.5,0,0,0-2.5.73,7.88,7.88,0,0,0-2.14,1.31,6.89,6.89,0,0,0-1.48,1.84,5,5,0,0,0-.59,2.11,4.57,4.57,0,0,0,.41,2.16A6.1,6.1,0,0,0,53.43,371a7.38,7.38,0,0,0,2.87,1.3,10,10,0,0,0,3.52.11,12.66,12.66,0,0,0,3.82-1.16A17.83,17.83,0,0,0,66,369.91c.74-.52,1.53-1.11,2.35-1.78a13.33,13.33,0,0,0,2.83,1.4,12.58,12.58,0,0,0,3.26.74,12.36,12.36,0,0,0,3.52-.16,14,14,0,0,0,3.73-1.31,14.8,14.8,0,0,0,3-2,9.68,9.68,0,0,0,2-2.39,5.9,5.9,0,0,0,.82-2.61,5.83,5.83,0,0,0-.51-2.73,6,6,0,0,0-2.35-2.7,13.51,13.51,0,0,0-4-1.51,9.92,9.92,0,0,0,1.8-3.53,4.63,4.63,0,0,0-.09-2.85,2.64,2.64,0,0,0-1.25-1.36,6.92,6.92,0,0,0-2.14-.74,12.94,12.94,0,0,0-2.64-.22,16.55,16.55,0,0,0-2.75.23l-.31.85a4.77,4.77,0,0,1,1.81.43,1.66,1.66,0,0,1,.86.77,2.83,2.83,0,0,1-.27,2,19.87,19.87,0,0,1-2,3.34,27.3,27.3,0,0,0-3.48-.12c-1.27,0-2.49,0-3.65,0a13.16,13.16,0,0,1-3.06-.46,2.41,2.41,0,0,1-1.73-1.42Zm11.7,12.34c.91-.9,1.81-1.84,2.69-2.79s1.74-1.91,2.57-2.86,1.54-1.83,2.17-2.65a3.54,3.54,0,0,1,1,.62,2.84,2.84,0,0,1,.7,1,2.65,2.65,0,0,1-.11,2.12,9.71,9.71,0,0,1-1.53,2.53A17.39,17.39,0,0,1,77.4,365a13.62,13.62,0,0,1-2.74,1.81,7.55,7.55,0,0,1-2.43.72,4.21,4.21,0,0,1-2.51-.48C70.55,366.28,71.43,365.47,72.34,364.56ZM61,367.19a20.17,20.17,0,0,1-3.1,1.76,5.38,5.38,0,0,1-2.23.54,1.32,1.32,0,0,1-1.37-.68,1.39,1.39,0,0,1,.05-1.24,4.32,4.32,0,0,1,1-1.21,10,10,0,0,1,1.48-1.07,13.55,13.55,0,0,1,1.54-.8,10.71,10.71,0,0,1,1.41-.51,7.6,7.6,0,0,1,1.46-.26,4.36,4.36,0,0,1,1.44.15,3.44,3.44,0,0,1,1.32.72A16.07,16.07,0,0,1,61,367.19Z"/><path class="cls-3" d="M28.51,330a20.61,20.61,0,0,1-.77-5.66,7.28,7.28,0,0,1,2.3-4.81q2-1.89,6.66-3.13l-.17-1-13.42,2.53.66,3.65.82,3.62,1.67,7.23c.51,2.43,1.3,4.78,1.94,7.17l2,7.14,1.24-.39c-.12-.36-.21-.74-.33-1.12a3.75,3.75,0,0,1,0-2.44,3.31,3.31,0,0,1,1.22-1.55,22.37,22.37,0,0,1,4.31-1.54l30-8.74A22.61,22.61,0,0,1,71,330a3.37,3.37,0,0,1,1.85.35,2.76,2.76,0,0,1,1.26,1.74c.09.31.16.62.27.92l1.24-.39-2-7.21c-.33-1.2-.73-2.39-1-3.62l-.84-3.65-1.26.3.21.93a2.69,2.69,0,0,1-.23,2,3.54,3.54,0,0,1-1.34,1.32,24.79,24.79,0,0,1-4.36,1.38l-14.11,3.6-.21-.89a6,6,0,0,1,1.09-4.87q1.66-2.39,8.18-4.26l-.18-.76-23.34,5,.19.85a20.11,20.11,0,0,1,6.21-.1,7.4,7.4,0,0,1,3.64,1.54A6,6,0,0,1,48,327.4l.2.9-18.93,4.84Z"/><path class="cls-3" d="M41.84,285.3a16.94,16.94,0,0,0-5.48,3.35,12.82,12.82,0,0,0-3.22,4.68,10.82,10.82,0,0,0-.62,5.43,11.56,11.56,0,0,0,6.39,9.05,17.41,17.41,0,0,0,6.18,1.77,25.39,25.39,0,0,0,7.37-.31,28.94,28.94,0,0,0,7.06-2.13,20.11,20.11,0,0,0,5.2-3.36,13.58,13.58,0,0,0,3.16-4.29,9.32,9.32,0,0,0,.7-5,10,10,0,0,0-2-4.82,13,13,0,0,0-4.2-3.44,20.67,20.67,0,0,0-5.94-2,28.37,28.37,0,0,0-7-.44A26.16,26.16,0,0,0,41.84,285.3Zm14.79,5.12a25,25,0,0,1,4.93.68,9.28,9.28,0,0,1,3.27,1.46,3.3,3.3,0,0,1,1.38,2.24,3.23,3.23,0,0,1-1.08,2.84,11.87,11.87,0,0,1-3.47,2.23,29.56,29.56,0,0,1-4.95,1.66c-1.85.45-3.72.82-5.59,1.09a39.61,39.61,0,0,1-7.32.5,17.92,17.92,0,0,1-4.94-.78A6.72,6.72,0,0,1,36,300.65a4,4,0,0,1-1.09-2.21,3.88,3.88,0,0,1,.66-2.66,7,7,0,0,1,2.75-2.31,22.27,22.27,0,0,1,4.91-1.76,47.19,47.19,0,0,1,7-1.11A48.75,48.75,0,0,1,56.63,290.42Z"/><path class="cls-3" d="M51.18,272.22l0-1.41c4.94-2.12,10-4.11,15.07-6,0-2.74.22-5.46.32-8.19l-1.22-.08c-.12,1.1-1.48,2.14-4.08,3.17-3.93,1.48-7.84,3.06-11.68,4.73a10.09,10.09,0,0,0-3.12-3.88A9.19,9.19,0,0,0,41.32,259a11.41,11.41,0,0,0-3.91.43,7.29,7.29,0,0,0-3,1.76,8.19,8.19,0,0,0-2,3.19,14.49,14.49,0,0,0-.74,4.68q.11,6.78.34,13.55l1.23-.07a5.44,5.44,0,0,1,.15-1.76,2.1,2.1,0,0,1,.68-1.08,2.69,2.69,0,0,1,1.25-.58,11.57,11.57,0,0,1,1.92-.2l23.31-.89a14.69,14.69,0,0,1,2.3.06,3.56,3.56,0,0,1,1.42.43,1.74,1.74,0,0,1,.72.87,4.29,4.29,0,0,1,.24,1.39l1.22-.06c-.09-3.91-.22-7.81-.27-11.71H64.93a10.4,10.4,0,0,1-.24,1.48,1.68,1.68,0,0,1-.62.95,3.28,3.28,0,0,1-1.35.52,14.64,14.64,0,0,1-2.39.17Zm-16.88.19,0-1.19A4.71,4.71,0,0,1,36.05,267a8.26,8.26,0,0,1,5.05-1.24,15.75,15.75,0,0,1,2.75.3,7.91,7.91,0,0,1,2.39.9,4.89,4.89,0,0,1,1.66,1.63,5.24,5.24,0,0,1,.65,2.47l0,1.17Z"/><path class="cls-3" d="M35.44,244.18l.4-3.54a5.86,5.86,0,0,1,.82-2.5,5.25,5.25,0,0,1,1.74-1.67,8,8,0,0,1,2.5-.92,16.71,16.71,0,0,1,3.13-.3l.12-.81L34.4,233c-1.11,7-1.77,14.15-2.27,21.26l1.23.08a5,5,0,0,1,.37-1.79,2.38,2.38,0,0,1,.85-1.06A3.21,3.21,0,0,1,36,251a13.68,13.68,0,0,1,2,0l23,1.77a15.75,15.75,0,0,1,2,.25,3.66,3.66,0,0,1,1.4.54,2,2,0,0,1,.78,1,4.91,4.91,0,0,1,.17,1.69l1.22.08c.46-6.31,1-12.6,2-18.84L57.87,234.9l-.11.78a27.73,27.73,0,0,1,3.55,1.8,10.33,10.33,0,0,1,2.36,1.92,5.77,5.77,0,0,1,1.21,2.14A5.71,5.71,0,0,1,65.1,244L65,245.15a3,3,0,0,1-.28,1,1.22,1.22,0,0,1-.64.58,3.31,3.31,0,0,1-1.21.2c-.5,0-1.15,0-1.94-.12l-10-1,.12-1.06a3.32,3.32,0,0,1,1.82-2.63,9.79,9.79,0,0,1,5.06-.71l.1-.83-15.65-2.06-.1.9a16,16,0,0,1,3.3.89,6.09,6.09,0,0,1,2,1.2,2.94,2.94,0,0,1,.88,1.49,5.07,5.07,0,0,1,.08,1.75l-.09.8Z"/><path class="cls-3" d="M69.8,224.23a4.8,4.8,0,0,1-.48,1.38,1.77,1.77,0,0,1-.84.76,3.33,3.33,0,0,1-1.46.18,17.65,17.65,0,0,1-2.35-.35l-22.3-4.54A13.63,13.63,0,0,1,40,221a3.15,3.15,0,0,1-1.25-.85,1.8,1.8,0,0,1-.39-1.15,8,8,0,0,1,.2-1.6l-1.21-.26c-1,4.4-1.78,8.85-2.53,13.3l1.21.2a6.47,6.47,0,0,1,.39-1.51,1.87,1.87,0,0,1,.81-.94,3.15,3.15,0,0,1,1.49-.35,13.33,13.33,0,0,1,2.49.26L63.59,232a14.26,14.26,0,0,1,2.32.57,3.34,3.34,0,0,1,1.3.72,1.6,1.6,0,0,1,.48,1,6.58,6.58,0,0,1-.07,1.42l1.21.2c.66-3.82,1.33-7.65,2.18-11.43Z"/><path class="cls-3" d="M43.41,191.83l-.28.88a3.7,3.7,0,0,1,1.35,1,1.11,1.11,0,0,1,.12,1,2.74,2.74,0,0,1-.64,1c-.33.34-.71.76-1.13,1.24a16.45,16.45,0,0,0-1.3,1.76,11.13,11.13,0,0,0-1.07,2.62,10.26,10.26,0,0,0-.06,5.68,13.48,13.48,0,0,0,2.9,5.1,19,19,0,0,0,5.2,4,27.63,27.63,0,0,0,7,2.56,28.66,28.66,0,0,0,6.76.78,17.93,17.93,0,0,0,5.82-.95,11,11,0,0,0,7.11-7.66,16.69,16.69,0,0,0,.61-4.59A13.06,13.06,0,0,0,75,202l-7.92-2.64A3.66,3.66,0,0,1,65,198a2.41,2.41,0,0,1,0-2.1l-1.23-.42c-.69,1.87-1.28,3.75-1.88,5.65s-1.22,3.79-1.74,5.7l1.25.36a3.13,3.13,0,0,1,1.33-2.06,3.65,3.65,0,0,1,2.62.08l7.48,2.27A3.87,3.87,0,0,1,73,209a5.22,5.22,0,0,1-.18,1.37,3.38,3.38,0,0,1-1.25,1.75,6.77,6.77,0,0,1-2.36,1.16,13.94,13.94,0,0,1-5,.28A49.36,49.36,0,0,1,57,212.09a43.15,43.15,0,0,1-6.5-2.21,19.65,19.65,0,0,1-4.55-2.71,8.42,8.42,0,0,1-2.46-3,4.61,4.61,0,0,1-.25-3.2,4.91,4.91,0,0,1,1.48-2.44,6.91,6.91,0,0,1,2.58-1.41,13.53,13.53,0,0,1,3.52-.55,38.93,38.93,0,0,1,4.37.11l.26-.83Z"/><path class="cls-3" d="M48.69,179.71l-1.77,4.53-1.62,4.59,1.15.4a5.69,5.69,0,0,1,.39-.66,2.63,2.63,0,0,1,.63-.61,5.05,5.05,0,0,1,1-.53,12.23,12.23,0,0,1,1.61-.49l1.4-.39,21.85,8.06a7.44,7.44,0,0,1,3.22,1.95A2.34,2.34,0,0,1,77,199l1.15.41c.83-2.43,1.75-4.83,2.7-7.21l-1.14-.45a3.48,3.48,0,0,1-.92,1.44,2.59,2.59,0,0,1-1.27.63,4.1,4.1,0,0,1-1.66-.05,13,13,0,0,1-2.07-.62l-19.3-7.27a250.89,250.89,0,0,1,31.88-4.29l.33-.71L60.17,168.5a6.53,6.53,0,0,1-3-2.31,2.82,2.82,0,0,1,0-2.75L56,162.91c-1.23,2.68-2.52,5.34-3.7,8.05l1.13.5a4,4,0,0,1,1.07-1.56,2.8,2.8,0,0,1,1.39-.63,4.3,4.3,0,0,1,1.65.12,10.36,10.36,0,0,1,1.87.67l12.78,5.86c-3.93.43-7.81,1-11.74,1.62S52.6,178.87,48.69,179.71Z"/><path class="cls-3" d="M94,170.72A55.24,55.24,0,0,0,78.43,157.9c-6.59-3.73-13.05-5.89-19.51-6.22s-11.51,1-15.09,3.93l1.58.77a13.35,13.35,0,0,1,5.53-1.4,30.69,30.69,0,0,1,9.58,1.61,92.7,92.7,0,0,1,14.76,6.6A114.56,114.56,0,0,1,90,172.12a38,38,0,0,1,6.18,5.66A20,20,0,0,1,99,182.63l1.45.71C100.17,179.68,98,175.49,94,170.72Z"/><polygon class="cls-1" points="89.97 120.85 93.83 132.74 106.33 132.74 96.21 140.08 100.08 151.97 89.97 144.63 79.85 151.97 83.71 140.08 73.61 132.74 86.11 132.74 89.97 120.85"/></svg>