<?xml version="1.0" encoding="utf-8"?>
<!-- Generator: Adobe Illustrator 27.0.0, SVG Export Plug-In . SVG Version: 6.00 Build 0)  -->
<svg version="1.1" id="Layer_1" xmlns="http://www.w3.org/2000/svg" xmlns:xlink="http://www.w3.org/1999/xlink" x="0px" y="0px"
	 viewBox="0 0 24.48 21.6" style="enable-background:new 0 0 24.48 21.6;" xml:space="preserve">
<style type="text/css">
	.st0{fill:url(#SVGID_1_);}
	.st1{fill:#EC9B21;}
	.st2{fill:#ED2228;}
</style>
<g>
	
		<linearGradient id="SVGID_1_" gradientUnits="userSpaceOnUse" x1="12.2534" y1="18.8741" x2="12.2534" y2="2.5043" gradientTransform="matrix(1 0 0 -1 0 24)">
		<stop  offset="0" style="stop-color:#2EA749"/>
		<stop  offset="0.2453" style="stop-color:#2CA449"/>
		<stop  offset="0.4994" style="stop-color:#289646"/>
		<stop  offset="0.7566" style="stop-color:#248340"/>
		<stop  offset="1" style="stop-color:#1D6935"/>
	</linearGradient>
	<path class="st0" d="M16.37,5.48c4.21,0.29,7.24,2.88,7.94,6.74c0.62,3.4-1.22,6.8-4.5,8.17c-2.22,0.93-4.5,1.06-6.48-0.43
		c-2.64-1.99-5.14-4.17-7.69-6.28c-0.88-0.73-1.72-1.52-2.84-2.51c0,3.63,0,6.95,0,10.33c-1,0-1.81,0-2.73,0c0-5.42,0-10.81,0-16.37
		c0.36,0.27,0.66,0.47,0.92,0.7c4.07,3.57,8.14,7.15,12.22,10.71c2.16,1.89,3.6,2.17,5.67,1.15c1.84-0.9,2.86-2.83,2.61-4.96
		c-0.26-2.2-1.65-3.69-4.02-4.27C16.01,8.09,16.4,6.49,16.37,5.48z"/>
	<path class="st1" d="M0.61,0.31c3.96,3.3,7.93,6.61,12.06,10.05c0-3.46,0-6.79,0-10.19c0.99,0,1.83,0,2.76,0c0,5.41,0,10.81,0,16.4
		c-0.42-0.33-0.74-0.57-1.04-0.82C9.93,11.88,5.5,7.99,1.01,4.17c-1.34-1.14-0.84-3.89-0.8-3.68C0.17,0.28,0.46,0.25,0.61,0.31z"/>
	<rect x="16.41" y="1.21" class="st2" width="5.24" height="2.62"/>
</g>
</svg>
