<?xml version="1.0" encoding="utf-8"?>
<!-- Generator: Adobe Illustrator 25.2.0, SVG Export Plug-In . SVG Version: 6.00 Build 0)  -->
<svg version="1.1" id="Layer_1" xmlns="http://www.w3.org/2000/svg" xmlns:xlink="http://www.w3.org/1999/xlink" x="0px" y="0px"
	 viewBox="0 0 841.89 595.28" style="enable-background:new 0 0 841.89 595.28;" xml:space="preserve">
<style type="text/css">
	.st0{fill:#26247B;}
	.st1{fill:#FFFFFF;}
	.st2{fill:#F89938;}
</style>
<g>
	<g>
		<g>
			<polygon class="st0" points="573.38,277.26 573.38,156.04 462.95,266.47 523.56,327.08 			"/>
			<polygon class="st0" points="287.09,442.33 408.31,442.33 452.15,398.49 391.54,337.88 			"/>
			<polygon class="st0" points="272.78,302.07 314.25,260.6 272.78,219.12 			"/>
			<polygon class="st0" points="421.17,153.68 350.15,153.68 385.66,189.19 			"/>
			<polygon class="st0" points="559.07,153.68 437.85,153.68 394,197.53 454.61,258.14 			"/>
			<polygon class="st0" points="272.78,318.75 272.78,439.97 383.2,329.54 322.59,268.93 			"/>
			<polygon class="st0" points="573.38,293.94 531.9,335.42 573.38,376.9 			"/>
			<polygon class="st0" points="424.98,442.33 495.99,442.33 460.49,406.83 			"/>
			
				<rect x="303.63" y="223.16" transform="matrix(0.7071 -0.7071 0.7071 0.7071 -58.2489 317.4952)" class="st0" width="100.99" height="11.79"/>
			
				<rect x="441.53" y="361.06" transform="matrix(0.7071 -0.7071 0.7071 0.7071 -115.3673 455.3925)" class="st0" width="100.99" height="11.79"/>
			
				<rect x="372.58" y="292.11" transform="matrix(0.7071 -0.7071 0.7071 0.7071 -86.8084 386.4425)" class="st0" width="100.99" height="11.79"/>
			
				<rect x="407.06" y="289.62" transform="matrix(0.7071 -0.7071 0.7071 0.7071 -101.0877 420.9184)" class="st1" width="100.99" height="85.72"/>
			<polygon class="st1" points="350.15,153.68 272.78,153.68 272.78,219.12 314.25,260.6 385.66,189.19 			"/>
			
				<rect x="338.11" y="220.68" transform="matrix(0.7071 -0.7071 0.7071 0.7071 -72.5285 351.9694)" class="st1" width="100.99" height="85.72"/>
			<polygon class="st1" points="573.38,376.9 531.9,335.42 460.49,406.83 495.99,442.33 573.38,442.33 			"/>
		</g>
		<g>
			<path class="st0" d="M325.82,216.89v1.29h-35.55v-1.29h2.26c1.97,0,3.56-0.24,4.76-0.73c0.87-0.33,1.54-0.88,2.01-1.68
				c0.37-0.56,0.55-2.03,0.55-4.4v-31.17c0-2.42-0.18-3.94-0.55-4.54c-0.37-0.61-1.11-1.14-2.23-1.59
				c-1.12-0.45-2.63-0.68-4.54-0.68h-2.26v-1.29h35.55v1.29h-2.26c-1.97,0-3.56,0.24-4.76,0.73c-0.87,0.33-1.55,0.89-2.06,1.68
				c-0.37,0.56-0.55,2.03-0.55,4.4v31.17c0,2.42,0.19,3.94,0.58,4.54c0.38,0.61,1.14,1.13,2.26,1.59c1.12,0.45,2.63,0.68,4.54,0.68
				H325.82z"/>
		</g>
		<g>
			<path class="st0" d="M385.79,271.2v13.14c0,2.56,0.17,4.18,0.51,4.84c0.34,0.66,0.94,1.19,1.8,1.59c0.86,0.4,2.44,0.59,4.73,0.59
				v1.29h-25.79v-1.29c2.35,0,3.94-0.2,4.77-0.61c0.84-0.41,1.42-0.94,1.76-1.59c0.34-0.65,0.51-2.26,0.51-4.82v-30.75
				c0-2.56-0.17-4.17-0.51-4.84c-0.34-0.66-0.93-1.19-1.78-1.59c-0.85-0.4-2.43-0.59-4.75-0.59v-1.29h22.12
				c7.29,0,12.51,1.21,15.68,3.63c3.17,2.42,4.75,5.45,4.75,9.08c0,3.07-1.02,5.71-3.07,7.9c-2.05,2.19-4.87,3.68-8.46,4.47
				C395.64,270.92,391.55,271.2,385.79,271.2z M385.79,248.01v20.47c0.82,0.05,1.45,0.07,1.87,0.07c3.04,0,5.39-0.84,7.04-2.53
				c1.65-1.69,2.47-4.3,2.47-7.84c0-3.52-0.82-6.09-2.47-7.72c-1.65-1.63-4.1-2.45-7.37-2.45H385.79z"/>
		</g>
		<g>
			<path class="st0" d="M478.83,312.66v12.82h-1.26c-0.75-2.96-1.57-5.08-2.48-6.38c-0.91-1.29-2.15-2.32-3.74-3.09
				c-0.89-0.42-2.43-0.63-4.65-0.63h-3.53v36.55c0,2.42,0.13,3.94,0.4,4.54c0.27,0.61,0.79,1.13,1.57,1.59
				c0.78,0.45,1.85,0.68,3.2,0.68h1.57v1.29h-24.81v-1.29h1.57c1.37,0,2.48-0.24,3.32-0.73c0.61-0.33,1.08-0.88,1.43-1.68
				c0.26-0.56,0.38-2.03,0.38-4.4v-36.55h-3.42c-3.19,0-5.51,0.68-6.95,2.03c-2.03,1.89-3.31,4.58-3.84,8.07h-1.33v-12.82H478.83z"
				/>
		</g>
		<g>
			<path class="st0" d="M529.31,410.97l9.39-31.23h14.08v1.29h-1.12c-1.02,0-1.84,0.24-2.45,0.73c-0.43,0.33-0.77,0.87-1.02,1.64
				c-0.19,0.56-0.28,2.01-0.28,4.37V419c0,2.42,0.09,3.94,0.28,4.54c0.19,0.61,0.57,1.13,1.15,1.59c0.58,0.45,1.35,0.68,2.32,0.68
				h1.12v1.29h-18.06v-1.29h1.12c1.02,0,1.84-0.24,2.45-0.73c0.43-0.33,0.77-0.88,1.02-1.68c0.19-0.56,0.28-2.03,0.28-4.4v-35.11
				l-13.27,43.22h-0.61l-13.47-42.9v33.37c0,2.33,0.04,3.76,0.13,4.3c0.22,1.16,0.7,2.11,1.44,2.85c0.74,0.73,1.9,1.1,3.48,1.1v1.29
				h-11.84v-1.29h0.36c0.77,0.02,1.48-0.15,2.14-0.51c0.66-0.36,1.16-0.84,1.51-1.45s0.6-1.46,0.79-2.55
				c0.03-0.26,0.05-1.44,0.05-3.56v-29.98c0-2.4-0.09-3.9-0.28-4.49c-0.19-0.59-0.57-1.12-1.15-1.57s-1.35-0.68-2.32-0.68h-1.1
				v-1.29h14.13L529.31,410.97z"/>
		</g>
	</g>
	<g>
		<g>
			<path class="st2" d="M238.28,92.61c0.75,1.03,1.17,1.91,1.24,2.62c0.07,0.72-0.11,1.27-0.54,1.66c-0.34,0.3-1.44,0.68-3.3,1.15
				c-3.13,0.91-5.67,2.33-7.55,4.18c-1.27,1.26-2.3,2.7-3.07,4.3c-0.77,1.6-1.18,3.47-1.38,5.43c-0.38,3.95,0.46,8.03,2.51,12.22
				c2.05,4.19,4.94,7.81,8.59,10.97c3.46,3,7.24,5.26,11.26,6.88c4.02,1.62,7.68,2.22,10.99,1.81c1.66-0.2,3.15-0.66,4.53-1.34
				c1.42-0.64,2.7-1.52,3.86-2.66c1.76-1.73,2.82-3.72,3.23-6c0.45-2.24,0.36-4.99-0.3-8.38l-2.92-3.25
				c0.89,3.78,1.22,6.68,0.96,8.8c-0.21,2.17-0.98,3.92-2.37,5.28c-1.68,1.66-3.73,2.34-6.17,2.08c-2.43-0.26-5.19-1.33-8.41-3.35
				c-3.21-2.01-6.49-4.54-9.81-7.62c-3.37-3.14-6.08-6.38-8.07-9.78c-1.54-2.63-2.39-5.35-2.3-7.94c0.06-2.62,0.93-4.76,2.58-6.39
				c1.99-1.93,4.57-2.85,7.83-2.51c3.28,0.35,6.72,1.98,10.35,4.88l0.76-0.67l-11.69-13.09L238.28,92.61z"/>
			<path class="st2" d="M280.93,91.13c-1.98-1.53-3.99-2.59-6.03-3.17c-2.04-0.58-4.05-0.69-6.02-0.35
				c-1.96,0.36-3.81,1.06-5.35,2.34c-1.69,1.34-2.94,2.96-3.73,4.82c-0.8,1.86-1.14,3.86-1.04,5.98c0.09,2.11,0.68,4.33,1.72,6.59
				c1.03,2.27,2.47,4.45,4.31,6.59c1.85,2.15,3.79,3.9,5.79,5.28c2,1.37,3.95,2.33,5.93,2.95c1.97,0.61,3.85,0.8,5.66,0.57
				c1.81-0.24,3.45-0.94,4.94-2.14c1.51-1.27,2.71-2.62,3.35-4.4c0.67-1.75,0.95-3.67,0.84-5.75c-0.11-2.08-0.57-4.27-1.41-6.55
				c-0.83-2.28-1.97-4.5-3.43-6.64C284.75,94.7,282.91,92.66,280.93,91.13z M284.34,107.5c0.96,1.8,1.65,3.42,2.07,4.88
				c0.42,1.46,0.57,2.71,0.42,3.76c-0.15,1.04-0.58,1.86-1.3,2.46c-0.89,0.71-1.94,0.9-3.17,0.58c-1.23-0.32-2.54-0.96-3.92-1.93
				c-1.38-0.97-2.79-2.17-4.21-3.62c-1.42-1.45-2.77-2.95-4.04-4.52c-1.94-2.4-3.43-4.54-4.45-6.44c-1.02-1.89-1.68-3.55-1.99-4.96
				c-0.3-1.41-0.31-2.6-0.03-3.56c0.28-0.96,0.75-1.7,1.4-2.22c0.77-0.62,1.7-0.91,2.81-0.83c1.1,0.07,2.31,0.5,3.63,1.3
				c1.32,0.8,2.75,1.97,4.28,3.52c1.54,1.55,3.15,3.5,4.84,5.83C282.17,103.78,283.39,105.7,284.34,107.5z"/>
			<path class="st2" d="M285.98,75.61l-8.72,5.59l0.73,1.08c0.23-0.12,0.48-0.22,0.75-0.31c0.27-0.08,0.58-0.12,0.93-0.11
				c0.35,0.01,0.76,0.08,1.23,0.21c0.47,0.13,1.03,0.34,1.69,0.62l1.45,0.58l13.5,20.81c0.96,1.48,1.46,2.72,1.5,3.7
				c0.04,0.98-0.37,1.75-1.25,2.31l0.73,1.09l6.91-4.42l-0.69-1.11c-0.61,0.39-1.18,0.61-1.7,0.67c-0.52,0.05-1.02-0.04-1.49-0.27
				c-0.47-0.23-0.93-0.59-1.37-1.09c-0.45-0.5-0.9-1.11-1.37-1.85l-11.82-18.51c10.4,4.87,20.51,10.64,29.89,16.6l0.72-0.41
				l-14.72-27.46c-0.84-1.57-1.23-2.89-1.09-3.88c0.13-1,0.72-1.76,1.78-2.29l-0.6-1.16c-2.85,1.35-5.54,2.98-8.28,4.52l0.64,1.14
				c0.7-0.4,1.33-0.61,1.91-0.65c0.57-0.04,1.1,0.07,1.58,0.33c0.48,0.26,0.92,0.64,1.33,1.14c0.41,0.5,0.8,1.09,1.17,1.76
				l7.17,13.15c-3.59-2.07-7.27-4.1-11.03-6.08C293.68,79.3,289.82,77.35,285.98,75.61z"/>
			<path class="st2" d="M312.56,77.97c0.91,0.91,1.85,1.61,2.82,2.1c0.97,0.49,1.95,0.82,2.94,0.99c1,0.17,1.98,0.29,2.96,0.36
				c0.97,0.05,1.95,0.19,2.88,0.27c0.94,0.1,1.82,0.29,2.64,0.58c0.82,0.29,1.57,0.74,2.25,1.32c0.68,0.59,1.25,1.43,1.73,2.53
				c0.6,1.37,0.79,2.61,0.59,3.72c-0.2,1.11-0.96,1.94-2.27,2.51c-0.93,0.4-1.91,0.52-2.91,0.43c-1.01-0.11-2.04-0.45-3.1-1.04
				c-1.06-0.58-2.13-1.4-3.21-2.44c-1.08-1.04-2.14-2.3-3.18-3.76l-0.83,0.42l6.36,12.56l0.74-0.37c-0.17-0.81-0.24-1.44-0.22-1.9
				c0.02-0.46,0.21-0.77,0.54-0.94c0.28-0.14,0.65-0.18,1.09-0.13c0.44,0.06,0.95,0.11,1.54,0.15c0.59,0.04,1.24,0.02,1.96-0.07
				c0.71-0.1,1.53-0.28,2.39-0.66c1.29-0.56,2.3-1.32,3.04-2.3c0.74-0.98,1.25-2.09,1.53-3.35c0.27-1.26,0.32-2.63,0.12-4.11
				c-0.19-1.48-0.6-2.99-1.24-4.53c-0.24-0.57-0.49-1.15-0.77-1.72c-0.28-0.57-0.61-1.13-0.98-1.67c-0.38-0.54-0.82-1.06-1.31-1.57
				c-0.5-0.5-1.08-0.96-1.75-1.38c-0.96-0.61-1.97-1.04-3.01-1.28c-1.04-0.24-2.09-0.41-3.14-0.51c-1.05-0.1-2.07-0.18-3.07-0.23
				c-0.99-0.04-1.94-0.21-2.79-0.37c-0.86-0.17-1.64-0.49-2.35-0.96c-0.71-0.47-1.3-1.18-1.76-2.15c-0.68-1.41-0.9-2.71-0.65-3.89
				c0.25-1.18,1.03-2.13,2.4-2.7c0.94-0.41,1.93-0.55,2.98-0.4c1.04,0.14,2.07,0.5,3.09,1.08c1.02,0.57,2.02,1.34,3,2.3
				c0.98,0.96,1.88,2.03,2.71,3.22l0.9-0.39l-4.91-11.79l-0.94,0.41c0.25,0.6,0.37,1.2,0.36,1.8c-0.01,0.6-0.21,0.99-0.61,1.16
				c-0.3,0.13-0.71,0.16-1.22,0.08c-0.51-0.08-1.11-0.14-1.8-0.2c-0.69-0.05-1.47-0.04-2.34,0.04c-0.87,0.08-1.8,0.34-2.8,0.77
				c-1.23,0.52-2.18,1.38-2.93,2.37c-0.75,1.01-1.25,2.16-1.5,3.44c-0.26,1.28-0.26,2.65-0.02,4.1c0.24,1.45,0.74,2.91,1.48,4.37
				C310.8,75.83,311.65,77.06,312.56,77.97z"/>
			<path class="st2" d="M353.58,46.12c-3.13,0.79-6.18,1.86-9.27,2.79l0.39,1.25c0.75-0.23,1.4-0.32,1.97-0.26
				c0.56,0.06,1.06,0.28,1.49,0.65c0.43,0.38,0.81,0.91,1.14,1.6c0.33,0.69,0.65,1.54,0.95,2.54l4.48,14.99
				c1.02,3.41,1.34,6.16,0.99,8.22c-0.35,2.07-1.44,3.38-3.3,3.96c-1.81,0.57-3.4,0.23-4.73-0.87c-1.34-1.13-2.53-3.1-3.52-5.92
				l-6.21-17.53c-0.57-1.62-0.74-2.88-0.5-3.8c0.24-0.9,0.94-1.62,2.14-1.99l-0.42-1.24c-4.51,1.59-8.97,3.31-13.46,4.97l0.49,1.21
				c1.3-0.49,2.33-0.52,3.07-0.09c0.74,0.43,1.38,1.35,1.93,2.77l6.71,17.43c0.79,2.04,1.69,3.77,2.71,5.19
				c1.01,1.42,2.11,2.51,3.29,3.28c1.18,0.77,2.42,1.22,3.75,1.35c1.33,0.16,2.68-0.13,4.16-0.55c2.84-0.88,4.62-2.73,5.43-5.58
				c0.8-2.85,0.54-6.69-0.85-11.49l-4.33-14.88c-0.31-1.08-0.52-2-0.61-2.78c-0.09-0.78-0.06-1.43,0.09-1.96
				c0.15-0.53,0.42-0.96,0.81-1.29c0.39-0.3,0.91-0.54,1.55-0.7L353.58,46.12z"/>
			<path class="st2" d="M382.29,63.74l-0.91,0.18c-0.01,1.47-0.1,2.87-0.27,4.2c-0.16,1.33-0.46,2.51-0.88,3.56
				c-0.42,1.05-0.99,1.92-1.71,2.62c-0.72,0.7-1.64,1.16-2.77,1.38l-1.12,0.22c-0.76,0.15-1.35,0.05-1.75-0.26
				c-0.4-0.31-0.74-1.04-1.01-2.21l-5.46-24.08c-0.25-1.09-0.38-1.98-0.4-2.65c-0.02-0.67,0.1-1.23,0.37-1.62
				c0.27-0.39,0.68-0.7,1.24-0.91c0.56-0.21,1.29-0.41,2.2-0.58l-0.27-1.28l-3.83,0.76L361.92,44l-7.58,1.92l0.34,1.26
				c0.66-0.17,1.23-0.27,1.73-0.3c0.49-0.03,0.94,0.07,1.32,0.32c0.39,0.25,0.73,0.68,1.04,1.28c0.31,0.6,0.6,1.46,0.88,2.57
				l6,23.41c0.23,0.92,0.38,1.7,0.43,2.34c0.05,0.64,0.01,1.18-0.14,1.62c-0.15,0.43-0.41,0.78-0.78,1.04
				c-0.38,0.26-0.87,0.47-1.49,0.63l0.34,1.26l9.73-2.46l9.85-1.92L382.29,63.74z"/>
			<path class="st2" d="M399.68,37.85l-6,0.52l-5.97,0.82c-3.97,0.58-7.97,1.01-11.9,1.87l2,10.91l0.96-0.19
				c-0.1-0.94-0.13-1.92-0.07-2.93c0.05-1.01,0.22-1.96,0.5-2.84c0.28-0.87,0.68-1.64,1.2-2.24c0.52-0.59,1.2-0.94,2.02-1.06
				l2.16-0.3l4.05,27.08c0.16,1.08,0.23,1.97,0.2,2.67c-0.03,0.7-0.14,1.25-0.35,1.67c-0.2,0.42-0.51,0.72-0.9,0.92
				c-0.4,0.19-0.89,0.33-1.47,0.41l0.21,1.29c4.22-0.55,8.43-1.23,12.66-1.7l-0.14-1.3c-0.69,0.05-1.27,0.01-1.72-0.1
				c-0.46-0.12-0.83-0.39-1.12-0.78c-0.29-0.4-0.52-0.93-0.69-1.6c-0.17-0.67-0.31-1.49-0.43-2.48l-3.28-27.03l1.82-0.25
				c0.89-0.14,1.7,0.06,2.41,0.47c0.71,0.42,1.33,0.99,1.85,1.72c0.52,0.73,0.94,1.59,1.27,2.57c0.33,0.98,0.58,2,0.74,3.03
				l0.98-0.08L399.68,37.85z"/>
			<path class="st2" d="M412.86,63.42l1.74,5.67c0.14,0.4,0.23,0.72,0.28,0.96c0.05,0.25,0.07,0.48,0.08,0.71
				c0.02,0.57-0.16,0.99-0.54,1.25c-0.38,0.26-1.06,0.4-2.06,0.43l0.06,1.3c3.85-0.08,7.7-0.26,11.55-0.27l0.01-1.31
				c-0.64-0.03-1.21-0.42-1.73-1.18c-0.52-0.77-1.05-2.07-1.59-3.9c-2.91-10.33-6.18-20.66-9.83-30.96l-0.66,0.02
				c-2.52,9.89-4.69,20.09-6.53,30.09c-0.4,2.21-0.84,3.89-1.35,5.04c-0.51,1.15-1.18,1.84-2.02,2.06l0.13,1.3l7.77-0.65l-0.09-1.3
				c-0.86,0.07-1.56-0.04-2.12-0.33c-0.55-0.29-0.87-0.91-0.94-1.85c-0.03-0.32-0.03-0.7-0.01-1.14c0.02-0.44,0.07-0.91,0.16-1.42
				l0.8-4.11l3.44-0.29C410.56,63.46,411.71,63.46,412.86,63.42z M412.1,60.75c-1.89,0.01-3.78,0.17-5.66,0.34
				c0.74-3.67,1.53-7.35,2.36-11.03C409.94,53.6,411.04,57.19,412.1,60.75z"/>
			<path class="st2" d="M434.66,37.02l-10.34-0.26l-0.01,1.31c0.26,0.03,0.52,0.09,0.79,0.17c0.27,0.08,0.55,0.23,0.83,0.43
				c0.28,0.21,0.58,0.49,0.9,0.86c0.31,0.37,0.66,0.86,1.05,1.47l0.87,1.29l-0.54,24.8c-0.04,1.77-0.32,3.07-0.84,3.9
				c-0.52,0.83-1.29,1.24-2.34,1.21l-0.01,1.31l8.21,0.21l0.06-1.31c-0.73-0.02-1.32-0.15-1.78-0.4c-0.46-0.25-0.82-0.6-1.08-1.05
				c-0.26-0.45-0.43-1.01-0.52-1.68c-0.09-0.66-0.12-1.43-0.1-2.3l0.63-21.95c5.86,9.86,10.98,20.36,15.4,30.51l0.82,0.1l3.25-30.98
				c0.19-1.78,0.61-3.05,1.28-3.81c0.66-0.76,1.59-1.06,2.76-0.91l0.15-1.3c-1.56-0.19-3.12-0.41-4.68-0.57l-4.7-0.36l-0.11,1.3
				c0.8,0.06,1.45,0.24,1.94,0.52c0.5,0.29,0.87,0.67,1.12,1.15c0.25,0.48,0.4,1.04,0.46,1.68c0.06,0.64,0.05,1.35-0.03,2.11
				l-1.46,14.91C443.04,51.96,439.05,44.34,434.66,37.02z"/>
			<path class="st2" d="M481.42,42.54l-1-0.23c-0.31,0.75-0.65,1.24-1.03,1.49c-0.38,0.25-0.79,0.32-1.25,0.21
				c-0.37-0.09-0.73-0.29-1.08-0.61c-0.35-0.32-0.79-0.68-1.31-1.09c-0.53-0.38-1.18-0.75-1.97-1.14c-0.78-0.38-1.79-0.68-3.01-0.9
				c-2.02-0.36-3.97-0.19-5.81,0.52c-1.84,0.68-3.51,1.87-4.98,3.49c-1.47,1.61-2.69,3.57-3.67,5.87c-0.98,2.31-1.64,4.85-1.99,7.62
				c-0.35,2.74-0.38,5.27-0.1,7.59c0.28,2.32,0.85,4.35,1.71,6.09c0.86,1.73,1.98,3.14,3.36,4.33c1.38,1.16,3.03,1.91,4.98,2.26
				c1.68,0.31,3.28,0.07,4.81-0.55c1.53-0.62,3.09-1.77,4.72-3.47l0.74-3.28c-0.81,0.91-1.58,1.68-2.31,2.32
				c-0.73,0.64-1.44,1.14-2.15,1.52c-0.7,0.36-1.39,0.61-2.09,0.75c-0.69,0.13-1.4,0.13-2.13,0c-2.22-0.4-3.66-2.07-4.37-5.03
				c-0.71-2.96-0.7-6.95,0.1-11.97c0.38-2.41,0.89-4.6,1.54-6.55c0.65-1.96,1.41-3.61,2.3-4.96c0.89-1.35,1.9-2.34,3.03-2.97
				c1.13-0.63,2.36-0.83,3.68-0.59c0.96,0.17,1.81,0.63,2.54,1.37c0.73,0.73,1.32,1.71,1.78,2.82c0.46,1.11,0.77,2.36,0.96,3.75
				c0.18,1.38,0.21,2.79,0.1,4.22l0.95,0.22L481.42,42.54z"/>
			<path class="st2" d="M494.18,63.3c-0.33-3.94-0.73-7.9-1.19-11.87c-0.09-0.49-0.13-0.9-0.11-1.23c0.02-0.33,0.07-0.63,0.14-0.89
				c0.05-0.19,0.13-0.37,0.22-0.54c0.09-0.17,0.24-0.3,0.44-0.4c0.2-0.1,0.47-0.15,0.82-0.16c0.34,0,0.79,0.07,1.32,0.22l0.37-1.26
				l-6.38-1.81c-2.12-0.64-4.3-1.04-6.45-1.57l-0.3,1.27c0.81,0.19,1.4,0.7,1.76,1.54c0.36,0.84,0.63,1.98,0.81,3.43
				c0.74,5.45,1.3,11.09,1.77,16.58l-2.44,8.78c-0.24,0.86-0.49,1.59-0.75,2.19c-0.26,0.6-0.57,1.07-0.92,1.41
				c-0.35,0.34-0.78,0.54-1.27,0.61c-0.5,0.07-1.1,0.01-1.82-0.17l-0.33,1.26l6.31,1.8c2.11,0.58,4.22,1.17,6.27,1.92l0.4-1.24
				c-0.66-0.25-1.19-0.52-1.58-0.79c-0.39-0.27-0.65-0.64-0.79-1.07c-0.14-0.43-0.17-0.98-0.06-1.65c0.1-0.67,0.31-1.52,0.62-2.54
				l3.41-11.1c2.53-3.03,5.08-5.9,7.71-8.83c1.59-1.75,2.97-2.98,4.11-3.7c1.14-0.72,2.07-0.99,2.79-0.83l0.43-1.23l-8.55-2.89
				l-0.39,1.25c1.01,0.34,1.63,0.77,1.88,1.28c0.24,0.52,0.26,1.11,0.04,1.77c-0.13,0.4-0.3,0.81-0.52,1.22
				c-0.21,0.41-0.57,0.91-1.05,1.48C498.62,58.06,496.39,60.64,494.18,63.3z"/>
			<path class="st2" d="M498.76,94.33c2.13-2.13,3.86-4.84,5.13-8.17c1.03-2.7,1.41-4.99,1.1-6.89c-0.3-1.91-1.1-3.11-2.4-3.52
				c-1.06-0.36-2.18-0.08-3.32,0.85c-1.15,0.93-1.98,2.17-2.5,3.73c-0.5,1.46-0.61,2.84-0.36,4.14c0.25,1.29,0.79,2.08,1.62,2.36
				c0.61,0.21,1.19,0.18,1.75-0.08c0.23-0.11,0.39-0.14,0.47-0.12c0.1,0.03,0.17,0.16,0.19,0.39c0.02,0.25-0.04,0.57-0.19,0.97
				c-0.71,1.93-1.78,3.69-3.18,5.32c-1.4,1.62-3.09,2.75-5.05,3.4l-0.53,1.55C494.19,97.82,496.64,96.41,498.76,94.33z"/>
			<path class="st2" d="M538.77,79.05l-0.34,6.31l-0.51,6.36c-0.38,4.22-0.83,8.4-1.36,12.53c2.82,1.53,5.48,3.33,8.19,5.05
				l0.75-1.16c-0.65-0.5-1.02-1.25-1.13-2.24c-0.05-0.69,0.1-2.23,0.44-4.65c0.92-6.27,1.52-12.38,2.04-18.72
				c2.17,0.36,4.16,0.17,5.96-0.58c2.84-1.2,5.21-3.26,7.19-6.46c1.61-2.6,2.48-5.23,2.56-7.86c0.06-2.6-0.61-4.79-2-6.56
				c-1.4-1.74-4.01-3.87-8.03-5.97c-5.17-2.64-10.28-5.38-15.62-7.67l-0.57,1.26c1.55,0.7,2.52,1.38,2.91,2.02
				c0.39,0.64,0.54,1.33,0.45,2.07c-0.08,0.74-0.71,2.35-1.9,4.82l-14.18,29.65c-1.18,2.47-2.02,3.98-2.51,4.52
				c-0.49,0.54-1.06,0.91-1.7,1.1c-0.65,0.19-1.62-0.01-2.91-0.6l-0.57,1.26c4.8,2.03,9.36,4.58,14.02,6.91l0.66-1.21
				c-1.25-0.64-2.01-1.26-2.27-1.87c-0.26-0.61-0.32-1.28-0.18-2c0.14-0.72,0.84-2.3,2.1-4.74l6.53-12.6L538.77,79.05z
				 M550.83,57.32c2.63,1.3,3.99,3.25,4.24,5.49c0.23,2.26-0.63,5.05-2.54,8.4c-1.32,2.31-2.69,4.02-4.09,5.12
				c-1.4,1.11-2.75,1.65-4.07,1.63c-1.3-0.05-2.99-0.57-5.07-1.62l-1.27-0.65l10.21-19.7L550.83,57.32z"/>
			<path class="st2" d="M572.19,86.71l3.09,2.2c0.86,0.61,1.5,1.3,1.92,2.05c0.42,0.76,0.61,1.61,0.63,2.49
				c0.02,0.89-0.13,1.82-0.45,2.81c-0.32,0.99-0.77,2.01-1.35,3.07l0.69,0.54l6.44-8.29c-1.5-1.16-2.96-2.38-4.51-3.48l-4.64-3.3
				l-4.64-3.3l-4.79-3.09l-0.71,1.1c0.66,0.42,1.15,0.84,1.48,1.26c0.33,0.42,0.51,0.86,0.54,1.32c0.03,0.47-0.07,0.97-0.31,1.51
				c-0.24,0.54-0.59,1.17-1.06,1.87l-13.61,20.42c-0.46,0.68-0.88,1.26-1.28,1.73c-0.4,0.47-0.81,0.81-1.23,1.03
				c-0.43,0.21-0.88,0.29-1.37,0.21c-0.49-0.07-1.04-0.31-1.66-0.71l-0.71,1.1c1.41,0.91,2.84,1.8,4.24,2.73l4.11,2.93l4.11,2.92
				c1.34,1.01,2.65,2.07,3.97,3.11l8.03-8.56l-0.67-0.53c-1.26,0.97-2.43,1.75-3.51,2.35c-1.08,0.59-2.08,0.99-3,1.18
				c-0.93,0.19-1.79,0.19-2.6,0c-0.83-0.16-1.62-0.51-2.38-1.05l-1.04-0.74c-0.37-0.26-0.64-0.53-0.81-0.78s-0.24-0.56-0.2-0.9
				c0.04-0.34,0.18-0.75,0.44-1.22c0.26-0.47,0.63-1.05,1.12-1.75l6.19-8.75l0.93,0.66c1,0.71,1.51,1.73,1.51,3.04
				c0,1.31-0.66,2.99-1.98,5.05l0.73,0.52l10.07-13.46l-0.78-0.56c-0.93,1.14-1.78,2.01-2.54,2.61c-0.77,0.6-1.48,1-2.15,1.2
				c-0.67,0.2-1.28,0.22-1.85,0.05c-0.57-0.16-1.13-0.44-1.68-0.83l-0.7-0.5L572.19,86.71z"/>
			<path class="st2" d="M577.41,106.16c-0.45,1.2-0.69,2.34-0.73,3.42c-0.04,1.08,0.08,2.09,0.31,3.1c0.24,1,0.52,1.97,0.85,2.91
				c0.33,0.93,0.65,1.84,0.95,2.73c0.31,0.88,0.51,1.75,0.59,2.61c0.08,0.86,0,1.72-0.25,2.57c-0.25,0.85-0.78,1.72-1.58,2.61
				c-1,1.11-2.05,1.8-3.15,2.09c-1.1,0.28-2.19-0.04-3.27-0.98c-0.77-0.66-1.3-1.49-1.6-2.47c-0.3-0.99-0.39-2.09-0.28-3.31
				c0.12-1.23,0.39-2.51,0.89-3.93c0.5-1.41,1.19-2.89,2.09-4.43l-0.73-0.57l-8.8,10.99l0.65,0.51c0.67-0.49,1.21-0.82,1.64-0.99
				c0.43-0.17,0.79-0.14,1.09,0.1c0.25,0.2,0.45,0.5,0.57,0.93c0.12,0.43,0.28,0.93,0.47,1.5c0.19,0.56,0.47,1.17,0.83,1.81
				c0.36,0.64,0.89,1.27,1.61,1.89c1.06,0.92,2.2,1.5,3.41,1.76c1.22,0.24,2.44,0.26,3.68,0.01c1.25-0.26,2.5-0.77,3.76-1.55
				c1.26-0.78,2.46-1.77,3.6-2.99c0.42-0.45,0.84-0.93,1.25-1.42c0.41-0.49,0.78-1.02,1.12-1.59c0.34-0.57,0.64-1.19,0.89-1.86
				c0.26-0.67,0.44-1.39,0.55-2.18c0.16-1.14,0.17-2.26-0.05-3.3c-0.22-1.04-0.52-2.04-0.87-3.03c-0.35-0.98-0.72-1.93-1.09-2.85
				c-0.37-0.92-0.65-1.81-0.83-2.67c-0.18-0.87-0.21-1.73-0.06-2.58c0.14-0.85,0.55-1.69,1.24-2.51c1-1.2,2.08-1.93,3.25-2.17
				c1.17-0.24,2.31,0.12,3.43,1.09c0.77,0.67,1.32,1.51,1.63,2.5c0.31,0.99,0.42,2.07,0.33,3.23c-0.09,1.16-0.36,2.37-0.85,3.68
				c-0.48,1.3-1.09,2.57-1.83,3.82l0.71,0.67l8.7-9.36l-0.74-0.71c-0.44,0.48-0.93,0.83-1.48,1.07c-0.55,0.24-0.98,0.2-1.29-0.09
				c-0.24-0.23-0.43-0.59-0.57-1.07c-0.14-0.49-0.34-1.05-0.58-1.69c-0.25-0.64-0.59-1.33-1.03-2.08c-0.44-0.75-1.07-1.47-1.9-2.19
				c-1.01-0.87-2.12-1.45-3.33-1.74c-1.2-0.29-2.44-0.29-3.73,0.03c-1.28,0.31-2.53,0.88-3.75,1.7c-1.23,0.83-2.35,1.88-3.38,3.17
				C578.62,103.68,577.86,104.96,577.41,106.16z"/>
			<path class="st2" d="M609.11,118.38l2.61,2.74c0.73,0.76,1.23,1.56,1.49,2.38c0.27,0.82,0.34,1.66,0.18,2.54
				c-0.15,0.87-0.47,1.77-0.97,2.68c-0.5,0.91-1.13,1.83-1.9,2.77l0.58,0.67l7.87-6.95c-2.43-2.92-5.12-5.61-7.72-8.36
				c-1.32-1.36-2.6-2.77-3.96-4.09l-4.12-3.93l-0.9,0.95c0.57,0.54,0.97,1.05,1.21,1.52c0.24,0.47,0.34,0.94,0.28,1.41
				c-0.05,0.47-0.25,0.94-0.58,1.43c-0.33,0.49-0.8,1.04-1.39,1.64l-17.18,17.52c-0.58,0.59-1.1,1.07-1.58,1.46
				c-0.48,0.39-0.95,0.65-1.4,0.78c-0.46,0.13-0.92,0.11-1.38-0.05c-0.46-0.17-0.96-0.5-1.5-1.01l-0.9,0.95l3.65,3.48
				c1.19,1.18,2.33,2.43,3.49,3.64c2.32,2.43,4.68,4.83,6.82,7.43l9.48-6.91l-0.56-0.65c-1.42,0.72-2.71,1.27-3.88,1.65
				c-1.17,0.38-2.22,0.58-3.17,0.59c-0.94,0.01-1.79-0.16-2.58-0.46c-0.78-0.32-1.49-0.81-2.14-1.48l-0.88-0.92
				c-0.32-0.33-0.53-0.64-0.65-0.93c-0.12-0.29-0.13-0.59-0.03-0.92c0.1-0.33,0.32-0.7,0.66-1.12c0.34-0.42,0.82-0.92,1.43-1.51
				l7.71-7.45l0.79,0.83c0.85,0.89,1.15,1.99,0.9,3.28c-0.25,1.29-1.21,2.82-2.89,4.6l0.62,0.65l12.4-11.35l-0.66-0.7
				c-1.13,0.95-2.12,1.64-2.99,2.09c-0.86,0.45-1.64,0.71-2.33,0.78c-0.69,0.07-1.3-0.03-1.83-0.3c-0.53-0.27-1.03-0.64-1.49-1.13
				l-0.59-0.62L609.11,118.38z"/>
			<path class="st2" d="M609.14,154.75l-3.6,4.66c-0.24,0.34-0.45,0.6-0.62,0.78c-0.18,0.18-0.35,0.34-0.53,0.47
				c-0.46,0.35-0.9,0.44-1.34,0.29c-0.44-0.15-0.96-0.62-1.58-1.4l-1.03,0.8c2.45,2.97,4.61,6.15,6.85,9.28l1.07-0.75
				c-0.37-0.52-0.38-1.21-0.04-2.08c0.34-0.87,1.11-2.06,2.3-3.57c3.41-4.18,6.77-8.44,10.07-12.77c3.25-4.29,6.44-8.66,9.57-13.1
				l-0.41-0.52c-9.64,3.72-18.97,7.62-28.29,11.95c-2.04,0.95-3.68,1.57-4.92,1.82c-1.24,0.26-2.2,0.11-2.88-0.44l-0.99,0.86
				c1.68,1.98,3.47,3.88,5.02,5.97l1.02-0.82c-0.53-0.68-0.83-1.33-0.9-1.96c-0.07-0.63,0.24-1.23,0.97-1.84
				c0.25-0.21,0.56-0.43,0.93-0.67c0.37-0.24,0.79-0.47,1.25-0.69l3.8-1.71L609.14,154.75z M610.87,152.6l-3.51-4.46
				c3.4-1.49,6.84-2.95,10.3-4.37C615.42,146.75,613.16,149.69,610.87,152.6z"/>
			<path class="st2" d="M626.5,169.69l0.81,1.26c-3.28,4.68-6.77,9.32-10.34,13.82c1.42,2.54,2.97,5,4.28,7.59l1.15-0.62
				c-0.45-1.1,0.19-2.79,1.95-5.15c2.69-3.51,5.33-7.11,7.93-10.79c1.59,1.06,3.25,1.66,4.99,1.78c1.74,0.12,3.59-0.35,5.55-1.43
				c1.33-0.74,2.43-1.59,3.29-2.56c0.86-0.97,1.45-2.06,1.75-3.28c0.31-1.22,0.31-2.55,0.03-4c-0.31-1.44-0.88-3.04-1.93-4.67
				l-3.9-6.08c-1.29-2.03-2.58-4.06-4.01-6l-1.08,0.74c0.44,0.62,0.74,1.17,0.89,1.65c0.15,0.47,0.17,0.92,0.03,1.35
				c-0.14,0.43-0.41,0.83-0.81,1.22c-0.4,0.38-0.95,0.81-1.63,1.26l-20.63,13.84c-0.83,0.56-1.53,0.97-2.11,1.24
				c-0.58,0.27-1.09,0.4-1.52,0.4c-0.44,0-0.83-0.11-1.17-0.36c-0.34-0.24-0.69-0.61-1.04-1.1l-1.07,0.74
				c1.24,1.67,2.34,3.43,3.46,5.18l3.37,5.24l1.11-0.68c-0.3-0.56-0.51-1.05-0.63-1.46c-0.12-0.42-0.1-0.82,0.05-1.21
				c0.15-0.39,0.46-0.8,0.94-1.23c0.48-0.43,1.17-0.93,2.08-1.5L626.5,169.69z M641.69,160.09l0.69,1.07
				c1.11,1.73,1.4,3.32,0.76,4.79c-0.61,1.46-1.92,2.77-3.91,3.95c-0.86,0.51-1.74,0.93-2.66,1.26c-0.92,0.33-1.8,0.5-2.66,0.51
				c-0.87,0.01-1.64-0.19-2.41-0.55c-0.77-0.36-1.43-0.98-1.99-1.86l-0.67-1.05L641.69,160.09z"/>
			<path class="st2" d="M665.79,199.17l-0.38-0.95c-0.79,0.17-1.39,0.18-1.8,0.01c-0.42-0.17-0.71-0.47-0.88-0.9
				c-0.13-0.36-0.19-0.77-0.14-1.23c0.05-0.47,0.08-1.02,0.09-1.67c0.01-0.65-0.05-1.41-0.18-2.27c-0.13-0.86-0.45-1.86-0.97-3
				c-0.85-1.87-2.07-3.38-3.73-4.48c-1.7-1.08-3.62-1.77-5.77-2.05c-2.15-0.29-4.45-0.17-6.89,0.35c-2.45,0.52-4.9,1.44-7.37,2.73
				c-2.45,1.28-4.54,2.72-6.29,4.28c-1.75,1.56-3.09,3.2-4.03,4.9c-0.95,1.71-1.47,3.44-1.57,5.21c-0.14,1.79,0.15,3.59,0.97,5.39
				c0.7,1.55,1.77,2.76,3.2,3.63c1.46,0.86,3.26,1.5,5.58,1.86l3.11-1.27c-1.21-0.15-2.28-0.33-3.21-0.57
				c-0.92-0.24-1.77-0.53-2.5-0.87c-0.73-0.35-1.35-0.77-1.84-1.27c-0.5-0.5-0.9-1.08-1.21-1.76c-0.93-2.06-0.37-4.2,1.66-6.49
				c2.04-2.29,5.26-4.54,9.84-6.77c2.19-1.07,4.28-1.91,6.27-2.51c1.99-0.6,3.78-0.92,5.39-0.96c1.61-0.04,2.99,0.22,4.15,0.79
				c1.16,0.57,2.02,1.46,2.57,2.68c0.4,0.89,0.51,1.85,0.31,2.87c-0.19,1.03-0.6,2.04-1.23,3.04c-0.62,1-1.49,1.99-2.52,2.93
				c-1.03,0.94-2.17,1.78-3.41,2.5l0.36,0.91L665.79,199.17z"/>
			<path class="st2" d="M654.53,226.94l-10.82,3.32c-0.91,0.28-1.66,0.48-2.28,0.6c-0.61,0.12-1.12,0.14-1.54,0.05
				c-0.41-0.09-0.75-0.29-1.03-0.62c-0.28-0.33-0.53-0.8-0.74-1.43l-1.24,0.4c0.69,1.89,1.19,3.85,1.75,5.79l1.65,5.81l1.26-0.33
				c-0.15-0.51-0.21-0.95-0.21-1.34c0.01-0.38,0.14-0.74,0.4-1.06s0.68-0.62,1.28-0.91c0.59-0.28,1.41-0.57,2.44-0.85l23.36-6.46
				c0.89-0.25,1.65-0.42,2.28-0.52c0.63-0.1,1.17-0.09,1.63,0.05c0.45,0.14,0.82,0.42,1.11,0.84c0.29,0.43,0.55,1.04,0.77,1.84
				l1.27-0.33l-1.96-6.9c-0.67-2.3-1.26-4.61-2.08-6.86l-1.25,0.4c0.23,0.68,0.34,1.25,0.34,1.71c0,0.46-0.14,0.87-0.43,1.23
				c-0.29,0.35-0.73,0.66-1.32,0.94c-0.6,0.27-1.36,0.55-2.29,0.83l-9.71,2.98c-0.92-3.03-2.01-6.01-3-9.02l9.59-3.36
				c0.8-0.28,1.5-0.49,2.11-0.63c0.61-0.14,1.15-0.16,1.62-0.06c0.47,0.1,0.87,0.34,1.21,0.71c0.34,0.37,0.63,0.93,0.88,1.67
				l1.24-0.42l-2.31-6.82l-2.63-6.7l-1.22,0.48c0.29,0.73,0.44,1.35,0.47,1.86c0.03,0.51-0.08,0.96-0.33,1.34
				c-0.25,0.38-0.66,0.73-1.22,1.04c-0.56,0.31-1.3,0.63-2.2,0.98l-22.65,8.63c-1.75,0.67-3.02,0.94-3.81,0.82
				c-0.8-0.12-1.36-0.6-1.7-1.46l-1.22,0.48c0.71,1.82,1.45,3.62,2.14,5.45l1.87,5.55l1.24-0.41c-0.19-0.56-0.29-1.04-0.29-1.46
				c-0.01-0.41,0.11-0.79,0.37-1.12c0.25-0.34,0.67-0.66,1.23-0.96c0.57-0.3,1.35-0.63,2.33-0.97l10.68-3.74
				C652.55,221,653.62,223.94,654.53,226.94z"/>
			<path class="st2" d="M655.49,264.2l-5.47,2.3c-0.38,0.18-0.69,0.3-0.93,0.37c-0.24,0.07-0.48,0.12-0.7,0.15
				c-0.57,0.08-1-0.06-1.29-0.41c-0.3-0.35-0.51-1.02-0.63-2.01l-1.29,0.19c0.45,3.82,1.03,7.62,1.39,11.45l1.3-0.12
				c-0.05-0.63,0.32-1.25,1.02-1.84c0.71-0.59,1.95-1.25,3.72-1.97c9.99-3.92,19.94-8.21,29.84-12.88l-0.08-0.65
				c-10.2-1.5-20.46-2.65-30.59-3.48c-2.23-0.17-3.94-0.45-5.14-0.84c-1.2-0.39-1.94-0.99-2.24-1.81l-1.28,0.26l1.37,7.67l1.29-0.22
				c-0.15-0.85-0.11-1.56,0.13-2.14c0.24-0.58,0.82-0.96,1.75-1.12c0.32-0.06,0.7-0.1,1.14-0.12c0.44-0.03,0.91-0.02,1.42,0.01
				l4.17,0.38C654.75,259.66,655.26,261.91,655.49,264.2z M658.07,263.18c-0.19-1.88-0.63-3.73-0.93-5.59
				c3.72,0.37,7.45,0.78,11.19,1.24C664.95,260.31,661.53,261.76,658.07,263.18z"/>
			<path class="st2" d="M683.92,283.27l-0.78-10.32l-1.3,0.12c0,0.26-0.03,0.53-0.09,0.81c-0.05,0.27-0.17,0.57-0.35,0.87
				c-0.18,0.3-0.43,0.63-0.77,0.98c-0.34,0.35-0.79,0.75-1.35,1.19l-1.2,1l-24.73,1.92c-1.76,0.14-3.09-0.02-3.97-0.45
				c-0.88-0.43-1.36-1.16-1.44-2.2l-1.3,0.12l0.62,8.18l1.3-0.07c-0.06-0.72,0.02-1.33,0.22-1.81c0.2-0.48,0.51-0.87,0.94-1.18
				c0.42-0.3,0.96-0.53,1.61-0.68c0.65-0.15,1.41-0.26,2.28-0.32l21.91-1.55c-2.34,1.7-4.68,3.36-7.03,4.98
				c-2.37,1.62-4.83,3.19-7.24,4.72c-4.85,3.06-9.69,5.95-14.56,8.66l-0.02,0.83l31.15,0.14c1.79,0.01,3.1,0.3,3.92,0.89
				c0.82,0.58,1.22,1.47,1.19,2.65l1.31,0.02l0.11-4.71l-0.11-4.71l-1.31,0.02c0.02,0.8-0.09,1.46-0.33,1.98
				c-0.24,0.52-0.58,0.93-1.03,1.23c-0.45,0.3-1,0.5-1.63,0.63c-0.63,0.12-1.33,0.18-2.1,0.19l-14.98,0.04
				C669.88,293.09,677.02,288.37,683.92,283.27z"/>
			<path class="st2" d="M647.5,303.19l-0.15,6.33l-0.48,6.31c-0.15,1.92,0.2,3.66,1.03,5.25c0.76,1.58,1.87,2.98,3.36,4.2
				c1.49,1.22,3.29,2.25,5.41,3.07c2.12,0.82,4.42,1.41,6.91,1.74c2.99,0.39,5.67,0.43,8.05,0.07c2.38-0.35,4.43-1.05,6.14-2.08
				c1.7-1.04,3.11-2.38,4.08-4.04c0.94-1.66,1.5-3.58,1.66-5.72l0.52-7.13l0.19-7.15L682.9,304l-0.01,0.37
				c-0.01,0.59-0.1,1.09-0.24,1.5c-0.15,0.41-0.41,0.73-0.77,0.96c-0.37,0.23-0.88,0.39-1.53,0.48c-0.65,0.09-1.49,0.11-2.51,0.08
				l-24.22-0.88c-1.05-0.04-1.88-0.13-2.52-0.26c-0.63-0.14-1.12-0.34-1.46-0.6c-0.34-0.26-0.57-0.59-0.68-0.99
				c-0.11-0.4-0.17-0.88-0.15-1.43L647.5,303.19z M681.16,314.56l-0.1,1.32c-0.11,1.47-0.61,2.71-1.5,3.71
				c-0.89,1.01-2.09,1.79-3.59,2.34c-1.5,0.55-3.26,0.89-5.26,1.01c-2.01,0.13-4.18,0.07-6.5-0.17c-5.2-0.53-8.98-1.53-11.33-2.96
				c-2.35-1.42-3.45-3.17-3.29-5.29c0.03-0.39,0.1-0.71,0.2-0.96c0.11-0.24,0.3-0.43,0.59-0.57c0.29-0.13,0.68-0.21,1.18-0.23
				c0.5-0.02,1.16-0.01,1.98,0.05L681.16,314.56z"/>
			<path class="st2" d="M685.03,386.08c-1.16-0.53-1.95-1.09-2.37-1.68c-0.42-0.59-0.53-1.16-0.35-1.72
				c0.15-0.44,0.91-1.3,2.31-2.64c2.33-2.33,3.8-4.82,4.54-7.36c0.49-1.73,0.68-3.49,0.55-5.26c-0.14-1.78-0.68-3.6-1.47-5.41
				c-1.61-3.63-4.34-6.77-8.18-9.4c-3.82-2.63-8.19-4.38-12.92-5.33c-4.5-0.9-8.84-1-13.15-0.43c-4.3,0.57-7.79,1.85-10.47,3.83
				c-1.34,0.99-2.43,2.12-3.28,3.39c-0.92,1.25-1.6,2.65-2.05,4.21c-0.68,2.37-0.61,4.63,0.14,6.81c0.67,2.16,2.14,4.52,4.38,7.15
				l4.14,1.4c-2.64-2.86-4.37-5.23-5.17-7.19c-0.85-1.97-1.06-3.89-0.53-5.75c0.65-2.28,2.09-3.87,4.35-4.84
				c2.23-0.98,5.17-1.4,8.97-1.23c3.78,0.17,7.88,0.76,12.29,1.81c4.48,1.07,8.43,2.56,11.83,4.54c2.63,1.53,4.71,3.48,5.92,5.79
				c1.24,2.31,1.53,4.6,0.9,6.84c-0.79,2.66-2.55,4.74-5.61,6.04c-3.02,1.31-6.82,1.59-11.4,0.85l-0.32,0.96l16.62,5.66
				L685.03,386.08z"/>
			<path class="st2" d="M639.63,389.08l-5.87-0.85c-0.42-0.05-0.75-0.1-0.99-0.16c-0.24-0.06-0.47-0.14-0.68-0.23
				c-0.53-0.23-0.82-0.57-0.89-1.01c-0.06-0.45,0.1-1.13,0.45-2.06l-1.21-0.5c-1.47,3.55-3.14,7.01-4.69,10.53l1.18,0.56
				c0.26-0.58,0.85-0.93,1.77-1.07c0.92-0.14,2.33-0.06,4.22,0.24c10.58,1.8,21.42,3.29,32.22,4.36l0.24-0.61
				c-7.99-6.56-16.12-12.81-24.37-18.73c-1.82-1.3-3.13-2.41-3.96-3.36c-0.85-0.96-1.21-1.86-1.07-2.73l-1.23-0.44
				c-0.77,2.48-1.83,4.86-2.75,7.29l1.22,0.48c0.32-0.8,0.73-1.39,1.24-1.76c0.51-0.37,1.2-0.39,2.09-0.06
				c0.3,0.11,0.65,0.27,1.04,0.48c0.39,0.21,0.79,0.45,1.21,0.75l3.36,2.47L639.63,389.08z M642.34,389.53l2.08-5.28
				c2.99,2.23,5.96,4.5,8.91,6.82C649.66,390.59,645.99,390.08,642.34,389.53z"/>
			<path class="st2" d="M635.23,411.58c-0.41,0.85-0.88,1.67-1.35,2.48c-0.88,1.53-1.4,2.99-1.57,4.38
				c-0.16,1.39-0.05,2.69,0.35,3.92c0.4,1.22,1.06,2.35,1.98,3.38c0.92,1.03,2.02,1.94,3.31,2.73c1.58,0.96,3.05,1.53,4.42,1.68
				c1.37,0.16,2.64,0.02,3.8-0.42c1.16-0.44,2.2-1.13,3.12-2.06c0.92-0.93,1.72-1.99,2.4-3.17c1.24-2.06,2.27-4.24,3.39-6.38
				l3.29-6.43l-1.18-0.57c-0.61,1.19-1.33,1.9-2.15,2.12c-0.83,0.22-1.99-0.05-3.51-0.81l-22.07-11.07
				c-0.89-0.45-1.6-0.86-2.13-1.25c-0.53-0.38-0.91-0.77-1.14-1.14c-0.23-0.38-0.31-0.77-0.25-1.19c0.06-0.42,0.22-0.89,0.49-1.41
				l-1.18-0.57l-2.84,5.54c-0.96,1.84-1.85,3.72-2.93,5.5l1.14,0.63c0.34-0.54,0.68-0.95,1.02-1.25c0.35-0.29,0.73-0.47,1.17-0.52
				c0.44-0.04,0.97,0.04,1.57,0.25c0.61,0.21,1.34,0.55,2.19,1.01L635.23,411.58z M651,420.04l-0.46,0.9
				c-0.48,0.9-1.07,1.55-1.7,1.99c-0.64,0.44-1.33,0.68-2.08,0.73c-0.75,0.05-1.56-0.07-2.43-0.37c-0.88-0.3-1.81-0.74-2.8-1.3
				c-2.25-1.28-3.73-2.62-4.44-4.01c-0.71-1.39-0.7-2.71,0.02-3.98l0.57-1.11L651,420.04z"/>
			<path class="st2" d="M617.78,429.4l-5.6-1.98c-0.4-0.13-0.71-0.24-0.94-0.35c-0.23-0.11-0.43-0.23-0.62-0.36
				c-0.47-0.32-0.7-0.72-0.68-1.17c0.01-0.46,0.34-1.07,0.86-1.92l-1.08-0.73c-2.17,3.18-4.45,6.28-6.65,9.43l1.05,0.78
				c0.37-0.52,1.01-0.75,1.95-0.71c0.93,0.04,2.29,0.4,4.09,1.05c10.03,3.82,20.34,7.38,30.76,10.55l0.36-0.55
				c-6.57-7.99-13.33-15.7-20.26-23.13c-1.53-1.62-2.61-2.98-3.22-4.07c-0.63-1.1-0.82-2.06-0.51-2.88l-1.12-0.67
				c-1.24,2.29-2.76,4.4-4.13,6.61l1.1,0.71c0.46-0.72,0.98-1.22,1.55-1.49c0.57-0.27,1.26-0.15,2.06,0.35
				c0.27,0.17,0.58,0.4,0.92,0.67c0.34,0.28,0.69,0.6,1.04,0.97l2.82,3.08L617.78,429.4z M620.36,430.37l3.06-4.78
				c2.5,2.77,4.97,5.58,7.42,8.43C627.33,432.83,623.83,431.62,620.36,430.37z"/>
			<path class="st2" d="M615.38,475.98l0.71-0.74c-0.49-0.64-0.75-1.19-0.77-1.63c-0.02-0.45,0.13-0.83,0.43-1.19
				c0.25-0.29,0.6-0.51,1.04-0.66c0.44-0.15,0.96-0.36,1.56-0.63c0.59-0.27,1.25-0.64,1.98-1.12c0.73-0.48,1.5-1.19,2.31-2.13
				c1.33-1.56,2.22-3.28,2.46-5.29c0.27-1.99,0.08-4.02-0.56-6.08c-0.64-2.07-1.71-4.1-3.21-6.09c-1.5-2-3.37-3.84-5.59-5.53
				c-2.2-1.68-4.38-2.97-6.54-3.89c-2.16-0.92-4.21-1.45-6.16-1.59c-1.95-0.14-3.75,0.11-5.4,0.77c-1.62,0.68-3.17,1.67-4.45,3.18
				c-1.12,1.29-1.76,2.76-1.95,4.43c-0.18,1.68,0.07,3.64,0.69,5.87l2.47,2.28c-0.38-1.16-0.66-2.2-0.84-3.15
				c-0.2-0.96-0.3-1.85-0.29-2.66c0.01-0.81,0.13-1.54,0.38-2.2c0.24-0.66,0.6-1.27,1.09-1.83c1.48-1.71,3.67-2.1,6.6-1.23
				c2.88,0.84,6.32,2.83,10.27,6.03c1.89,1.54,3.54,3.08,4.92,4.62c1.38,1.55,2.44,3.05,3.18,4.5c0.72,1.44,1.06,2.8,1.03,4.09
				c-0.02,1.29-0.48,2.44-1.35,3.45c-0.64,0.74-1.46,1.23-2.48,1.49c-1.01,0.26-2.11,0.31-3.28,0.17c-1.18-0.15-2.39-0.47-3.69-1.02
				c-1.29-0.54-2.53-1.22-3.71-2.03l-0.67,0.7L615.38,475.98z"/>
			<path class="st2" d="M578.66,461.65c0.45-0.43,0.87-0.74,1.25-0.93c0.38-0.19,0.78-0.25,1.2-0.16c0.42,0.08,0.88,0.32,1.39,0.71
				c0.51,0.39,1.13,0.96,1.86,1.71l16.95,17.33c0.78,0.8,1.36,1.48,1.72,2.02c0.36,0.55,0.56,1.04,0.6,1.49
				c0.04,0.45-0.08,0.87-0.34,1.26c-0.26,0.39-0.64,0.82-1.13,1.29l0.9,0.95c1.73-1.67,3.5-3.3,5.19-5l4.98-5.21l-0.95-0.9
				c-0.44,0.47-0.86,0.83-1.25,1.09c-0.39,0.26-0.81,0.38-1.27,0.35c-0.45-0.03-0.96-0.22-1.51-0.58c-0.55-0.36-1.23-0.93-2.04-1.71
				L588.8,458.5c-0.75-0.73-1.32-1.36-1.71-1.88c-0.39-0.53-0.63-1-0.71-1.42c-0.08-0.42-0.03-0.81,0.17-1.18
				c0.2-0.37,0.5-0.77,0.92-1.21l-0.95-0.9l-4.28,4.49c-1.46,1.46-2.99,2.86-4.47,4.29L578.66,461.65z"/>
			<path class="st2" d="M583.81,503.92l4.73-3.72c1.57-1.25,3.05-2.61,4.58-3.9c3.04-2.62,6.1-5.22,8.95-8.05l-7.6-8.08l-0.71,0.68
				c0.6,0.74,1.15,1.54,1.65,2.42c0.51,0.88,0.88,1.76,1.12,2.65c0.24,0.89,0.31,1.73,0.21,2.53c-0.09,0.81-0.48,1.45-1.1,2
				l-1.65,1.43l-18.11-20.53c-0.72-0.82-1.26-1.53-1.62-2.13c-0.36-0.6-0.56-1.13-0.62-1.59c-0.06-0.46,0.03-0.88,0.26-1.26
				c0.23-0.38,0.57-0.76,1.01-1.15l-0.88-0.97l-4.83,4.18c-1.62,1.38-3.18,2.84-4.89,4.11l0.82,1.01c0.55-0.43,1.05-0.71,1.52-0.83
				c0.47-0.12,0.91-0.12,1.38,0.06c0.46,0.18,0.95,0.5,1.45,0.97c0.5,0.47,1.07,1.09,1.71,1.85l17.45,20.9
				c-0.47,0.4-0.92,0.81-1.4,1.19c-0.71,0.56-1.47,0.86-2.29,0.9c-0.82,0.04-1.65-0.1-2.48-0.43c-0.83-0.33-1.65-0.82-2.46-1.46
				c-0.81-0.65-1.57-1.36-2.27-2.14l-0.77,0.61L583.81,503.92z"/>
			<path class="st2" d="M560.88,500.85c3.27,2.21,6.6,4.39,9.97,6.52c0.44,0.24,0.78,0.47,1.03,0.69c0.24,0.22,0.44,0.45,0.6,0.67
				c0.12,0.16,0.21,0.33,0.28,0.51c0.07,0.18,0.08,0.37,0.04,0.59c-0.05,0.22-0.18,0.46-0.39,0.74c-0.21,0.27-0.55,0.57-1,0.89
				l0.75,1.07c3.59-2.58,7.26-5.05,10.68-7.85l-0.8-1.03c-0.66,0.52-1.42,0.65-2.3,0.4c-0.87-0.25-1.93-0.75-3.17-1.52
				c-4.74-2.91-9.44-5.97-14.01-9.06l-5.3-7.41c-0.52-0.73-0.93-1.38-1.23-1.96c-0.3-0.58-0.47-1.11-0.52-1.6
				c-0.04-0.49,0.06-0.95,0.32-1.37c0.26-0.43,0.68-0.87,1.27-1.32l-0.78-1.05l-5.35,3.81c-0.9,0.63-1.77,1.29-2.69,1.89l-2.77,1.77
				l0.71,1.09c0.61-0.36,1.15-0.61,1.61-0.74c0.46-0.13,0.9-0.11,1.33,0.06c0.43,0.17,0.88,0.5,1.33,1.01
				c0.46,0.5,0.99,1.2,1.59,2.09l6.5,9.63c0.73,3.81,1.4,7.65,2.01,11.53c0.36,2.34,0.46,4.19,0.31,5.53
				c-0.15,1.34-0.53,2.24-1.1,2.7l0.69,1.11l7.59-4.87l-0.73-1.09c-0.89,0.57-1.62,0.79-2.17,0.66c-0.55-0.13-1.02-0.49-1.4-1.08
				c-0.23-0.35-0.44-0.75-0.63-1.17c-0.19-0.43-0.35-1.01-0.49-1.75C562.12,507.53,561.56,504.23,560.88,500.85z"/>
			<path class="st2" d="M519.05,535.29c-0.42,2.21-0.19,4.46,0.71,6.73c0.85,2.15,2.12,4,3.82,5.54c1.71,1.53,3.59,2.45,5.64,2.75
				c2.03,0.26,5.01-0.54,8.92-2.3l4.09-1.86l4-2.03l7.99-4.1l-0.66-1.22c-1.52,0.78-2.65,1.13-3.4,1.04
				c-0.75-0.09-1.4-0.4-1.94-0.91c-0.55-0.52-1.45-1.99-2.71-4.42l-15.13-29.18c-1.26-2.43-1.96-4-2.1-4.72
				c-0.14-0.71-0.08-1.38,0.17-1.99c0.25-0.62,1-1.25,2.27-1.89l-0.66-1.21c-4.63,2.3-9.15,4.85-13.91,6.86
				c-1.97,0.89-3.55,2.02-4.76,3.4c-1.23,1.35-2.12,2.87-2.62,4.7c-0.82,3-0.58,6.29,0.8,9.84c1.31,3.37,3.21,5.77,5.78,7.19
				c1.78,0.97,4.45,1.52,7.84,1.16C520.89,530.97,519.46,533.05,519.05,535.29z M525.02,524.54c-1.47-0.15-2.92-0.94-4.32-2.37
				c-1.41-1.43-2.57-3.23-3.5-5.4c-0.82-1.9-1.3-3.74-1.46-5.51c-0.16-1.77,0.05-3.28,0.63-4.51c0.58-1.23,1.42-2.1,2.52-2.6
				c0.75-0.34,1.46-0.28,2.14,0.16c0.68,0.44,1.31,1.27,1.89,2.49l0.79,1.69l7.02,14.65C528.4,524.23,526.49,524.69,525.02,524.54z
				 M540.59,543.77c-2.41,1.12-4.33,1.6-5.73,1.41c-1.4-0.19-2.68-0.81-3.84-1.85c-1.16-1.05-2.18-2.6-3.07-4.66
				c-0.9-2.05-1.35-3.87-1.37-5.45c-0.02-1.58,0.33-2.96,1.05-4.16c0.71-1.2,2.16-2.29,4.34-3.28L540.59,543.77z"/>
			<path class="st2" d="M487.59,551.24c3.12-0.8,6.22-1.73,9.32-2.6l-0.37-1.25c-0.75,0.21-1.41,0.28-1.98,0.21
				c-0.56-0.07-1.06-0.3-1.48-0.69c-0.42-0.39-0.79-0.93-1.11-1.63c-0.32-0.7-0.62-1.55-0.9-2.56l-4.18-15.08
				c-0.95-3.43-1.21-6.18-0.82-8.23c0.39-2.05,1.51-3.34,3.38-3.87c1.84-0.48,3.36-0.29,4.69,0.9c1.32,1.17,2.47,3.17,3.41,6
				l5.86,17.66c0.54,1.63,0.69,2.9,0.43,3.8c-0.26,0.9-0.99,1.56-2.17,1.96l0.4,1.25l6.8-2.3c2.27-0.76,4.54-1.52,6.75-2.43
				l-0.46-1.22c-1.3,0.51-2.31,0.55-3.04,0.13c-0.74-0.45-1.36-1.39-1.88-2.81l-6.37-17.56c-0.75-2.06-1.62-3.81-2.61-5.25
				c-0.99-1.44-2.06-2.56-3.23-3.37c-1.16-0.8-2.41-1.29-3.73-1.46c-1.32-0.17-2.71-0.01-4.16,0.49c-2.84,0.87-4.68,2.63-5.54,5.46
				c-0.86,2.82-0.68,6.66,0.62,11.49l4.03,14.97c0.29,1.08,0.48,2.01,0.55,2.79c0.08,0.78,0.03,1.43-0.13,1.96
				c-0.16,0.53-0.44,0.95-0.84,1.27c-0.39,0.32-0.91,0.57-1.55,0.71L487.59,551.24z"/>
			<path class="st2" d="M465.84,519.78c0.61-0.11,1.13-0.14,1.55-0.08c0.43,0.05,0.79,0.23,1.1,0.52c0.31,0.3,0.57,0.75,0.79,1.35
				c0.22,0.6,0.43,1.41,0.64,2.44l4.89,23.74c0.23,1.1,0.34,1.98,0.36,2.64c0.01,0.66-0.09,1.19-0.3,1.58
				c-0.21,0.39-0.54,0.68-0.97,0.86c-0.43,0.18-0.99,0.33-1.65,0.45l0.25,1.28c1.18-0.22,2.37-0.41,3.55-0.65l3.52-0.81l7.03-1.62
				l-0.32-1.27c-0.63,0.15-1.18,0.22-1.65,0.23c-0.47,0.01-0.89-0.13-1.26-0.4c-0.37-0.27-0.69-0.71-0.96-1.31
				c-0.27-0.6-0.54-1.45-0.8-2.54l-5.55-23.6c-0.24-1.02-0.38-1.86-0.42-2.51c-0.04-0.66,0.01-1.18,0.17-1.57
				c0.16-0.39,0.41-0.69,0.78-0.89c0.36-0.2,0.84-0.37,1.43-0.5l-0.32-1.27l-6.03,1.39l-3.02,0.7c-1.01,0.21-2.03,0.37-3.05,0.56
				L465.84,519.78z"/>
			<path class="st2" d="M445.11,534.73l0.93-0.07c0.13-1.46,0.33-2.83,0.61-4.13c0.27-1.28,0.66-2.47,1.16-3.48
				c0.5-1.02,1.14-1.85,1.91-2.5c0.77-0.65,1.72-1.05,2.87-1.19l1.13-0.14c0.77-0.1,1.34,0.03,1.72,0.38
				c0.38,0.35,0.66,1.12,0.83,2.3l3.53,24.44c0.16,1.11,0.22,2,0.19,2.67c-0.03,0.67-0.2,1.19-0.5,1.57
				c-0.3,0.38-0.73,0.65-1.31,0.83c-0.57,0.17-1.32,0.32-2.23,0.43l0.16,1.3c2.58-0.35,5.17-0.61,7.74-1.04l7.69-1.37l-0.24-1.29
				c-0.67,0.12-1.25,0.18-1.74,0.18c-0.49,0-0.93-0.14-1.29-0.41c-0.36-0.28-0.68-0.73-0.93-1.35c-0.26-0.63-0.48-1.5-0.68-2.63
				l-4.1-23.82c-0.16-0.93-0.24-1.72-0.24-2.36c0-0.65,0.08-1.18,0.27-1.6c0.18-0.42,0.47-0.75,0.86-0.99
				c0.39-0.23,0.9-0.41,1.53-0.52l-0.24-1.28c-6.57,1.29-13.21,2.12-19.86,2.85L445.11,534.73z"/>
			<path class="st2" d="M443.05,521.63c-4.21,0.29-8.4,0.74-12.63,0.74c-1.92,0.05-3.62,0.56-5.11,1.55c-1.49,1-2.75,2.3-3.8,3.88
				c-1.05,1.6-1.87,3.5-2.45,5.69c-0.58,2.19-0.91,4.54-0.96,7.06c-0.06,3.01,0.2,5.68,0.82,8.01c0.61,2.33,1.53,4.3,2.74,5.9
				c1.22,1.63,2.71,2.76,4.46,3.53c1.75,0.77,3.72,1.12,5.86,1.07c4.77-0.02,9.52-0.53,14.28-0.86l-0.11-1.3l-0.36,0.03
				c-0.59,0.05-1.1,0.01-1.52-0.09c-0.43-0.11-0.78-0.33-1.05-0.67c-0.27-0.34-0.48-0.83-0.64-1.47c-0.16-0.64-0.28-1.47-0.35-2.48
				l-1.8-24.17c-0.08-1.04-0.08-1.89-0.02-2.53c0.07-0.64,0.21-1.15,0.43-1.51c0.22-0.37,0.52-0.63,0.91-0.78
				c0.38-0.15,0.85-0.25,1.41-0.29L443.05,521.63z M435.46,556.36l-1.32,0.03c-1.47,0.04-2.76-0.33-3.86-1.11
				c-1.1-0.78-2.01-1.89-2.72-3.33c-0.71-1.44-1.24-3.15-1.59-5.13c-0.35-1.99-0.53-4.15-0.55-6.49c-0.05-5.23,0.53-9.09,1.69-11.57
				c1.16-2.48,2.77-3.75,4.9-3.8c0.4-0.01,0.72,0.03,0.97,0.11c0.25,0.08,0.46,0.26,0.63,0.53c0.17,0.27,0.29,0.65,0.36,1.15
				c0.08,0.5,0.13,1.16,0.17,1.98L435.46,556.36z"/>
			<path class="st2" d="M403.83,523c0.62,0.05,1.12,0.15,1.52,0.3c0.4,0.15,0.71,0.42,0.92,0.78s0.35,0.87,0.39,1.51
				c0.05,0.64,0.03,1.48-0.04,2.53l-1.7,24.18c-0.08,1.12-0.2,1.99-0.37,2.63c-0.16,0.64-0.4,1.12-0.72,1.44
				c-0.31,0.33-0.7,0.52-1.17,0.59c-0.47,0.06-1.04,0.07-1.71,0.02l-0.11,1.3l7.19,0.54c2.39,0.22,4.8,0.17,7.2,0.27l0.04-1.31
				c-0.64-0.02-1.19-0.08-1.65-0.19c-0.46-0.11-0.83-0.35-1.1-0.7c-0.28-0.36-0.47-0.86-0.57-1.51c-0.1-0.65-0.13-1.54-0.08-2.66
				l1.05-24.22c0.05-1.04,0.14-1.89,0.27-2.53c0.13-0.65,0.33-1.14,0.59-1.48c0.26-0.34,0.59-0.57,0.99-0.67
				c0.4-0.1,0.91-0.15,1.51-0.13l0.04-1.31c-2.07-0.09-4.14-0.03-6.2-0.22l-6.18-0.47L403.83,523z"/>
			<path class="st2" d="M390.38,557.18l5.14,0.65c1.71,0.22,3.44,0.29,5.16,0.44l0.11-1.3c-0.26-0.04-0.52-0.12-0.78-0.21
				c-0.26-0.1-0.53-0.25-0.79-0.47c-0.27-0.22-0.54-0.52-0.83-0.91c-0.28-0.38-0.6-0.89-0.93-1.51l-0.77-1.34l2.53-24.67
				c0.18-1.76,0.56-3.02,1.15-3.83c0.58-0.81,1.39-1.17,2.43-1.09l0.12-1.3c-2.74-0.14-5.44-0.56-8.15-0.89l-0.16,1.3
				c0.72,0.09,1.3,0.28,1.73,0.58c0.44,0.29,0.77,0.68,0.99,1.16c0.22,0.48,0.35,1.05,0.38,1.72c0.03,0.67,0,1.44-0.09,2.3
				l-2.39,21.83c-2.51-5.28-4.84-10.54-6.99-15.78c-2.15-5.23-4.09-10.7-5.87-15.98l-0.82-0.15l-5.75,30.62
				c-0.33,1.76-0.85,3-1.58,3.72c-0.73,0.72-1.68,0.97-2.84,0.76l-0.26,1.28l9.29,1.66l0.21-1.29c-0.79-0.14-1.42-0.38-1.89-0.72
				c-0.47-0.34-0.81-0.76-1.02-1.26c-0.21-0.51-0.32-1.08-0.32-1.73c-0.01-0.65,0.06-1.35,0.2-2.11l2.66-14.74
				c1.49,3.9,3.08,7.83,4.76,11.75C386.69,549.49,388.49,553.33,390.38,557.18z"/>
			<path class="st2" d="M344.06,547.99l0.92,0.31c0.4-0.75,0.77-1.25,1.1-1.46c0.33-0.22,0.69-0.27,1.07-0.16
				c0.35,0.1,0.71,0.32,1.08,0.66c0.37,0.34,0.82,0.73,1.35,1.16c0.53,0.44,1.17,0.87,1.91,1.32c0.75,0.44,1.68,0.83,2.79,1.14
				c2.06,0.6,4.08,0.61,6.04-0.04c1.96-0.62,3.75-1.67,5.38-3.17c1.63-1.49,3.02-3.36,4.19-5.61c1.17-2.25,2.03-4.74,2.61-7.47
				c0.54-2.53,0.77-4.95,0.72-7.23c-0.05-2.29-0.43-4.35-1.11-6.18c-0.68-1.83-1.7-3.38-3.07-4.64c-0.68-0.64-1.46-1.14-2.33-1.61
				c-0.86-0.49-1.82-0.88-2.87-1.18c-1.61-0.46-3.24-0.64-4.89-0.55c-1.66,0.09-3.2,0.45-4.6,0.94l-2.69,8.47
				c-0.36,1.14-0.83,1.89-1.41,2.24c-0.58,0.35-1.33,0.38-2.24,0.07l-0.43,1.31c3.98,1.45,8.08,2.49,12.15,3.67l0.36-1.33
				c-1.14-0.32-1.87-0.8-2.2-1.42c-0.33-0.62-0.32-1.55,0.04-2.77l2.3-8.01c0.52-0.22,1.05-0.32,1.59-0.31
				c0.54,0.01,1.02,0.08,1.44,0.2c0.71,0.2,1.34,0.65,1.88,1.33c0.54,0.69,0.96,1.53,1.27,2.48c0.43,1.43,0.56,3.17,0.39,5.24
				c-0.17,2.07-0.63,4.66-1.4,7.78c-0.64,2.64-1.39,4.96-2.25,6.95c-0.86,2-1.8,3.64-2.81,4.93c-1.01,1.3-2.08,2.19-3.19,2.68
				c-1.11,0.5-2.24,0.59-3.38,0.26c-1.07-0.3-1.94-0.82-2.62-1.54c-0.67-0.72-1.19-1.62-1.55-2.69c-0.36-1.07-0.58-2.31-0.65-3.72
				c-0.07-1.41-0.06-2.94,0.05-4.63l-0.88-0.3L344.06,547.99z"/>
			<path class="st2" d="M320.62,541.56c5.13-4.57,9.04-10.61,12-18.01c3-7.49,4.41-14.61,4.52-21.24c0.14-6.72-0.81-11.7-3.02-14.9
				l-0.8,1.69c0.63,1.73,0.94,3.55,0.9,5.44c-0.05,2.74-0.6,6.11-1.64,10.12c-1.04,4.01-3.01,9.41-5.94,16.17
				c-3.11,7.18-5.89,12.6-8.41,16.24c-2.02,2.94-4.04,5.18-6.08,6.72c-1.47,1.11-3.43,2.04-5.89,2.79l-0.73,1.55
				C310.47,548.19,315.53,546.04,320.62,541.56z"/>
			<path class="st2" d="M287.86,499.14c2.87-2.89,5.2-4.98,7.01-6.24c1.81-1.26,3.44-2,4.87-2.2c1.44-0.2,2.84,0.14,4.22,1.03
				c0.72,0.47,1.44,0.93,2.2,1.34c1.27,0.73,2.01,1.28,2.23,1.66c0.29,0.57,0.33,1.2,0.14,1.91c-0.2,0.71-0.94,2.18-2.23,4.43
				l-16.11,27.96c-1.27,2.2-2.14,3.51-2.61,3.93c-0.66,0.6-1.28,0.93-1.87,0.99c-0.83,0.12-1.72-0.09-2.66-0.63l-1.41-0.81
				l-0.72,1.18c5.76,3.33,11.49,6.72,17.48,9.65l0.63-1.23l-1.1-0.56c-0.93-0.48-1.56-1.07-1.87-1.78c-0.32-0.71-0.41-1.4-0.29-2.06
				c0.13-0.66,0.8-2.14,2.02-4.42l15.68-29.4c1.2-2.24,2.01-3.59,2.44-4.04c0.59-0.65,1.14-1.04,1.65-1.17
				c0.73-0.21,1.49-0.12,2.28,0.29l0.91,0.47l0.63-1.23c-2-1.05-4.04-2.02-6.02-3.12l-5.88-3.38l-2.94-1.69l-2.85-1.83l-5.71-3.66
				l-10.94,14.06C287.31,498.76,287.58,498.96,287.86,499.14z"/>
			<path class="st2" d="M257.83,486.88c-1,2.31-1.54,4.53-1.61,6.66c-0.06,2.13,0.29,4.13,1.11,5.95c0.85,1.78,2.07,3.3,3.64,4.53
				c1.7,1.33,3.55,2.18,5.53,2.51c1.99,0.32,4.07,0.1,6.11-0.54c2.05-0.65,4.04-1.75,5.97-3.29c1.93-1.54,3.7-3.48,5.31-5.78
				c1.63-2.32,2.86-4.64,3.7-6.92c0.85-2.29,1.31-4.45,1.4-6.48c0.1-2.04-0.23-3.85-0.9-5.55c-0.66-1.72-1.72-3.16-3.23-4.35
				c-1.55-1.22-3.27-1.89-5.16-2.09c-1.85-0.24-3.76-0.05-5.74,0.55c-1.98,0.6-3.98,1.59-5.98,2.95c-2,1.36-3.87,3.01-5.58,4.95
				C260.36,482.28,258.83,484.58,257.83,486.88z M272.79,479.61c1.5-1.36,2.91-2.44,4.23-3.23c1.32-0.78,2.52-1.25,3.59-1.39
				c1.07-0.14,1.97,0.07,2.71,0.65c0.89,0.7,1.32,1.69,1.31,2.98c-0.02,1.29-0.33,2.72-0.93,4.3c-0.61,1.58-1.43,3.25-2.48,4.98
				c-1.05,1.74-2.17,3.41-3.38,5.02c-1.84,2.47-3.56,4.46-5.14,5.9c-1.58,1.45-3.02,2.49-4.3,3.13c-1.29,0.63-2.43,0.93-3.42,0.88
				c-0.99-0.05-1.82-0.33-2.47-0.85c-0.78-0.61-1.28-1.45-1.5-2.51c-0.22-1.06-0.12-2.33,0.32-3.79c0.43-1.46,1.21-3.12,2.34-5
				c1.13-1.87,2.62-3.91,4.47-6.14C269.73,482.63,271.29,480.98,272.79,479.61z"/>
			<path class="st2" d="M229.08,474.19l0.71,0.74c0.69-0.44,1.25-0.65,1.71-0.64c0.46,0.01,0.84,0.18,1.17,0.52
				c0.26,0.28,0.45,0.64,0.56,1.1c0.11,0.46,0.27,0.99,0.48,1.61c0.21,0.62,0.52,1.31,0.93,2.08c0.41,0.77,1.05,1.61,1.9,2.51
				c1.39,1.51,3.17,2.4,5.1,2.86c1.95,0.45,3.98,0.45,6.08-0.01c2.11-0.45,4.22-1.34,6.33-2.66c2.12-1.32,4.11-3.02,5.98-5.08
				c1.86-2.04,3.34-4.11,4.45-6.18c1.11-2.07,1.82-4.08,2.14-6.02c0.31-1.94,0.22-3.76-0.28-5.47c-0.49-1.72-1.49-3.21-2.82-4.67
				c-1.18-1.24-2.57-2.02-4.21-2.36c-1.64-0.34-3.61-0.27-5.94,0.22l-2.48,2.27c1.2-0.29,2.29-0.5,3.26-0.61
				c0.97-0.12,1.86-0.13,2.67-0.05c0.8,0.08,1.52,0.28,2.15,0.58c0.63,0.3,1.2,0.72,1.71,1.26c0.78,0.82,1.22,1.78,1.32,2.9
				c0.13,1.09-0.08,2.33-0.62,3.74c-1.09,2.81-3.38,6.06-6.91,9.72c-1.7,1.75-3.37,3.26-5.03,4.5c-1.66,1.24-3.24,2.17-4.75,2.77
				c-1.51,0.6-2.92,0.85-4.23,0.74c-1.27-0.14-2.38-0.7-3.3-1.67c-0.67-0.7-1.09-1.58-1.26-2.62c-0.16-1.04-0.12-2.14,0.13-3.3
				c0.25-1.16,0.69-2.36,1.33-3.59c0.64-1.23,1.41-2.39,2.32-3.5l-0.67-0.71L229.08,474.19z"/>
			<path class="st2" d="M239.35,444.24l3.55-4.74c0.24-0.34,0.44-0.61,0.61-0.79c0.17-0.18,0.35-0.34,0.52-0.48
				c0.45-0.35,0.89-0.46,1.33-0.31c0.43,0.15,0.96,0.62,1.57,1.4l1.02-0.82c-2.35-3.04-4.83-5.99-6.99-9.18l-1.06,0.76
				c0.37,0.52,0.38,1.22,0.05,2.1c-0.33,0.89-1.09,2.09-2.26,3.62c-6.66,8.44-13.02,17.14-19.19,26.15l0.41,0.52
				c9.48-3.79,18.95-8.01,28.13-12.43c2.02-0.98,3.64-1.61,4.87-1.88c1.23-0.27,2.18-0.13,2.86,0.42l0.97-0.87l-5.11-5.9l-1,0.84
				c0.57,0.65,0.89,1.29,0.98,1.9c0.09,0.62-0.22,1.24-0.94,1.85c-0.25,0.21-0.55,0.44-0.92,0.68c-0.37,0.24-0.78,0.48-1.24,0.71
				l-3.79,1.78C242.18,447.87,240.76,446.05,239.35,444.24z M237.64,446.42c1.16,1.49,2.32,2.99,3.59,4.39
				c-3.39,1.56-6.87,3.12-10.27,4.57C233.16,452.36,235.39,449.37,237.64,446.42z"/>
			<path class="st2" d="M217.59,417.59l0.46,0.81c1.38-0.5,2.71-0.9,4.01-1.2c1.29-0.3,2.49-0.44,3.61-0.4
				c1.1,0.05,2.13,0.26,3.06,0.68c0.92,0.42,1.69,1.11,2.31,2.08l0.62,0.96c0.42,0.65,0.55,1.22,0.39,1.72
				c-0.16,0.49-0.74,1.07-1.74,1.72l-20.65,13.53c-0.94,0.61-1.72,1.05-2.34,1.3c-0.62,0.25-1.17,0.33-1.64,0.22
				c-0.47-0.11-0.9-0.39-1.31-0.83c-0.4-0.44-0.85-1.05-1.35-1.83l-1.11,0.7l4.22,6.57c1.46,2.15,3,4.26,4.5,6.38l1.06-0.76
				c-0.39-0.55-0.69-1.05-0.91-1.5c-0.21-0.45-0.27-0.89-0.17-1.34c0.1-0.45,0.37-0.92,0.83-1.41c0.46-0.5,1.16-1.07,2.1-1.72
				l19.85-13.79c0.78-0.54,1.46-0.95,2.04-1.22c0.58-0.28,1.11-0.42,1.57-0.44c0.46-0.02,0.88,0.1,1.26,0.36
				c0.38,0.26,0.76,0.64,1.13,1.16l1.06-0.76c-1.94-2.73-3.92-5.43-5.67-8.29c-1.78-2.83-3.7-5.58-5.29-8.53L217.59,417.59z"/>
			<path class="st2" d="M192.67,385.9l2.96,7.51l1.2-0.51c-0.22-0.56-0.25-1.12-0.09-1.65c0.16-0.54,0.65-0.97,1.46-1.3
				c0.74-0.3,1.7-0.53,2.9-0.69c1.19-0.16,2.66-0.19,4.38-0.09c-0.54,0.69-1.14,1.42-1.79,2.19c-0.66,0.77-1.34,1.55-2.03,2.31
				c-0.69,0.76-1.39,1.51-2.08,2.23c-0.7,0.72-1.35,1.38-1.96,1.96c-1.04-0.84-1.99-1.51-2.87-2c-0.88-0.49-1.74-0.82-2.55-1.01
				c-0.82-0.18-1.65-0.21-2.48-0.08c-0.83,0.13-1.72,0.38-2.67,0.77c-0.85,0.35-1.61,0.82-2.28,1.4c-0.66,0.59-1.19,1.24-1.57,1.96
				c-0.4,0.72-0.58,1.46-0.63,2.24c-0.04,0.78,0.1,1.55,0.44,2.3c0.45,0.99,1.11,1.83,1.99,2.49c0.88,0.67,1.89,1.13,3.05,1.39
				c1.16,0.25,2.4,0.3,3.75,0.12c1.34-0.17,2.7-0.59,4.07-1.24c0.9-0.43,1.74-0.92,2.53-1.47c0.79-0.55,1.63-1.18,2.51-1.89
				c0.92,0.58,1.89,1.1,3.01,1.49c1.1,0.41,2.26,0.67,3.47,0.79c1.21,0.12,2.46,0.06,3.75-0.18c1.29-0.24,2.61-0.7,3.97-1.39
				c1.22-0.62,2.29-1.33,3.21-2.13c0.92-0.8,1.64-1.65,2.16-2.54c0.52-0.9,0.82-1.82,0.88-2.78c0.05-0.95-0.11-1.93-0.55-2.91
				c-0.55-1.23-1.39-2.18-2.5-2.87c-1.12-0.69-2.53-1.22-4.23-1.61c1.03-1.38,1.62-2.61,1.91-3.76c0.28-1.15,0.26-2.16-0.09-3.04
				c-0.23-0.6-0.68-1.07-1.33-1.44c-0.65-0.36-1.41-0.63-2.28-0.79c-0.87-0.17-1.8-0.25-2.81-0.24c-1,0.01-1.98,0.09-2.93,0.25
				l-0.33,0.9c0.8,0.06,1.44,0.22,1.93,0.46c0.49,0.25,0.79,0.52,0.91,0.82c0.2,0.51,0.11,1.23-0.29,2.17
				c-0.4,0.93-1.11,2.11-2.15,3.56c-1.11-0.12-2.35-0.16-3.7-0.13c-1.36,0.03-2.65,0.01-3.89-0.04c-1.24-0.05-2.33-0.22-3.26-0.49
				c-0.94-0.27-1.55-0.78-1.84-1.51L192.67,385.9z M205.13,399.04c0.97-0.96,1.93-1.96,2.87-2.98c0.95-1.02,1.85-2.03,2.73-3.04
				c0.87-1,1.64-1.95,2.31-2.82c0.41,0.17,0.76,0.39,1.06,0.66c0.3,0.27,0.55,0.62,0.74,1.05c0.28,0.63,0.25,1.38-0.11,2.26
				c-0.35,0.88-0.9,1.78-1.63,2.69c-0.74,0.91-1.59,1.78-2.58,2.6c-0.98,0.82-1.96,1.46-2.92,1.93c-0.83,0.4-1.69,0.66-2.58,0.77
				c-0.89,0.11-1.78-0.06-2.68-0.52C203.23,400.87,204.16,400,205.13,399.04z M193.05,401.84c-1.13,0.76-2.23,1.39-3.3,1.87
				c-0.84,0.38-1.63,0.58-2.38,0.58c-0.75,0.01-1.23-0.24-1.46-0.73c-0.19-0.43-0.17-0.87,0.06-1.32c0.23-0.45,0.58-0.88,1.04-1.29
				c0.46-0.41,0.99-0.78,1.58-1.14c0.59-0.35,1.14-0.64,1.64-0.85c0.48-0.21,0.98-0.39,1.5-0.54c0.52-0.15,1.04-0.24,1.55-0.28
				c0.52-0.03,1.03,0.02,1.53,0.16c0.5,0.14,0.97,0.4,1.41,0.77C195.24,400.15,194.18,401.08,193.05,401.84z"/>
			<path class="st2" d="M158.47,362.24c-0.67-2.88-0.94-4.89-0.82-6.03c0.23-2.08,0.98-3.78,2.44-5.12c1.43-1.34,3.8-2.45,7.1-3.33
				L167,346.7l-14.28,2.7l0.7,3.89l0.87,3.85l1.78,7.7c0.54,2.58,1.38,5.09,2.06,7.63l2.18,7.6l1.32-0.41
				c-0.13-0.39-0.23-0.79-0.35-1.19c-0.29-1.01-0.28-1.87,0.01-2.6c0.3-0.73,0.73-1.28,1.3-1.65c0.57-0.37,2.09-0.92,4.58-1.64
				l31.99-9.31c2.44-0.71,3.97-1.07,4.59-1.07c0.87-0.03,1.53,0.09,1.97,0.37c0.65,0.38,1.1,0.99,1.34,1.85
				c0.1,0.33,0.17,0.66,0.29,0.98l1.32-0.41l-2.19-7.68c-0.35-1.28-0.77-2.55-1.06-3.85l-0.89-3.89l-1.35,0.32l0.23,0.99
				c0.19,0.84,0.11,1.56-0.25,2.17c-0.36,0.61-0.83,1.08-1.42,1.41c-0.59,0.33-2.14,0.82-4.65,1.46l-15.02,3.84l-0.22-0.95
				c-0.4-1.74-0.02-3.47,1.16-5.18c1.18-1.7,4.08-3.21,8.71-4.54l-0.19-0.81l-24.86,5.37l0.21,0.9c2.7-0.38,4.9-0.41,6.61-0.1
				c1.71,0.31,2.99,0.85,3.87,1.64c0.87,0.78,1.48,1.91,1.82,3.38l0.22,0.96l-20.16,5.15L158.47,362.24z"/>
			<path class="st2" d="M172.66,314.65c-2.34,0.92-4.29,2.1-5.84,3.56c-1.55,1.46-2.69,3.12-3.42,4.99
				c-0.77,1.87-0.89,3.8-0.66,5.78c0.27,2.14,1,4.04,2.17,5.68c1.17,1.64,2.68,2.97,4.63,3.95c1.92,0.99,4.11,1.62,6.58,1.89
				c2.47,0.28,5.08,0.16,7.85-0.33c2.8-0.49,5.3-1.26,7.51-2.27c2.21-1.02,4.06-2.21,5.54-3.58c1.46-1.36,2.61-2.89,3.36-4.57
				c0.74-1.68,0.99-3.45,0.75-5.35c-0.25-1.96-1.02-3.65-2.13-5.13c-1.15-1.47-2.64-2.69-4.47-3.67c-1.84-0.98-3.94-1.7-6.33-2.15
				c-2.38-0.45-4.87-0.61-7.45-0.46C177.7,313.2,175,313.74,172.66,314.65z M188.41,320.1c2.03,0.1,3.78,0.34,5.24,0.72
				c1.45,0.39,2.62,0.9,3.49,1.56c0.86,0.66,1.35,1.45,1.47,2.38c0.14,1.12-0.24,2.13-1.16,3.02c-0.92,0.9-2.14,1.69-3.69,2.38
				c-1.54,0.69-3.3,1.28-5.27,1.77c-1.97,0.48-3.96,0.87-5.95,1.16c-3.06,0.44-5.66,0.62-7.8,0.53c-2.15-0.09-3.9-0.37-5.26-0.83
				c-1.36-0.46-2.38-1.07-3.05-1.8c-0.67-0.73-1.06-1.52-1.16-2.35c-0.12-0.98,0.11-1.93,0.7-2.84c0.59-0.91,1.55-1.73,2.93-2.45
				c1.37-0.73,3.11-1.35,5.23-1.88c2.12-0.53,4.62-0.91,7.49-1.18C184.12,320.07,186.38,320.01,188.41,320.1z"/>
			<path class="st2" d="M182.6,300.72l-0.04-1.5c5.26-2.26,10.7-4.38,16.04-6.35c0-2.91,0.24-5.81,0.35-8.72l-1.3-0.08
				c-0.13,1.17-1.58,2.28-4.35,3.37c-4.18,1.58-8.34,3.26-12.43,5.04c-0.83-1.74-1.94-3.12-3.32-4.13c-1.4-1.01-3.21-1.59-5.45-1.69
				c-1.52-0.07-2.9,0.08-4.16,0.46c-1.25,0.37-2.33,1-3.25,1.88c-0.91,0.88-1.59,2.01-2.09,3.39c-0.5,1.38-0.76,3.05-0.79,4.99
				c0.07,4.81,0.2,9.62,0.36,14.42l1.31-0.07c-0.05-0.76,0.03-1.39,0.16-1.87c0.14-0.48,0.37-0.87,0.72-1.16
				c0.34-0.29,0.78-0.5,1.33-0.61c0.55-0.11,1.23-0.19,2.05-0.22l24.82-0.94c1-0.04,1.81-0.02,2.45,0.06
				c0.64,0.08,1.14,0.23,1.51,0.46c0.37,0.23,0.62,0.54,0.77,0.92c0.15,0.39,0.22,0.88,0.25,1.49l1.3-0.07
				c-0.1-4.16-0.24-8.31-0.29-12.47l-1.31,0c-0.07,0.63-0.14,1.16-0.25,1.58c-0.11,0.42-0.33,0.75-0.66,1.01
				c-0.33,0.25-0.81,0.44-1.44,0.55c-0.63,0.11-1.48,0.18-2.55,0.19L182.6,300.72z M164.63,300.92l-0.03-1.27
				c-0.08-2.06,0.64-3.55,1.89-4.48c1.27-0.92,3.07-1.35,5.38-1.32c0.99,0.02,1.97,0.13,2.93,0.32c0.96,0.2,1.8,0.52,2.54,0.96
				c0.74,0.45,1.33,1.02,1.77,1.73c0.42,0.71,0.65,1.59,0.69,2.63l0.03,1.25L164.63,300.92z"/>
			<path class="st2" d="M165.84,270.86l0.43-3.76c0.12-1.05,0.41-1.94,0.87-2.67c0.47-0.73,1.1-1.32,1.86-1.77
				c0.76-0.45,1.64-0.78,2.66-0.98c1.01-0.21,2.12-0.31,3.33-0.32l0.13-0.87l-10.38-1.56c-1.19,7.5-1.89,15.07-2.42,22.64l1.31,0.08
				c0.03-0.78,0.18-1.42,0.39-1.91c0.21-0.49,0.52-0.86,0.91-1.12c0.4-0.26,0.89-0.41,1.48-0.47c0.59-0.06,1.31-0.05,2.15,0.01
				l24.47,1.88c0.82,0.06,1.53,0.15,2.13,0.27c0.6,0.12,1.1,0.31,1.49,0.57c0.39,0.26,0.67,0.63,0.83,1.09
				c0.16,0.46,0.2,1.06,0.18,1.8l1.3,0.08c0.49-6.71,1.09-13.41,2.17-20.05l-11.4-2.82l-0.12,0.84c1.47,0.63,2.73,1.26,3.78,1.91
				c1.05,0.65,1.88,1.33,2.51,2.05c0.62,0.72,1.05,1.47,1.29,2.27c0.26,0.8,0.34,1.66,0.23,2.58l-0.15,1.27
				c-0.05,0.45-0.15,0.82-0.29,1.09c-0.14,0.28-0.37,0.48-0.69,0.62c-0.32,0.14-0.74,0.2-1.28,0.21c-0.54,0-1.23-0.04-2.07-0.12
				l-10.66-1.11l0.13-1.13c0.14-1.22,0.79-2.16,1.94-2.8c1.15-0.64,2.95-0.88,5.39-0.75l0.1-0.89l-16.66-2.19l-0.11,0.96
				c1.45,0.25,2.62,0.57,3.52,0.94c0.9,0.37,1.59,0.8,2.09,1.28c0.5,0.48,0.81,1.01,0.94,1.59c0.14,0.58,0.16,1.2,0.09,1.86
				l-0.1,0.85L165.84,270.86z"/>
			<path class="st2" d="M202.43,249.62c-0.13,0.61-0.3,1.1-0.51,1.47c-0.21,0.37-0.51,0.64-0.9,0.81c-0.39,0.17-0.91,0.23-1.55,0.19
				c-0.64-0.04-1.48-0.16-2.5-0.37l-23.75-4.83c-1.1-0.22-1.95-0.46-2.56-0.71c-0.61-0.25-1.05-0.55-1.33-0.9
				c-0.28-0.35-0.42-0.76-0.42-1.23c0-0.47,0.07-1.04,0.21-1.7l-1.28-0.28c-1.06,4.69-1.9,9.43-2.7,14.17l1.29,0.21
				c0.09-0.64,0.23-1.17,0.41-1.61c0.18-0.44,0.47-0.77,0.87-1c0.4-0.23,0.92-0.35,1.58-0.37c0.66-0.01,1.54,0.07,2.65,0.27
				l23.88,4.18c1.03,0.18,1.85,0.38,2.47,0.6c0.62,0.22,1.08,0.47,1.38,0.77c0.3,0.3,0.47,0.65,0.51,1.06
				c0.03,0.41,0.01,0.92-0.07,1.51l1.29,0.21c0.7-4.07,1.41-8.14,2.32-12.17L202.43,249.62z"/>
			<path class="st2" d="M174.33,215.13l-0.3,0.93c0.76,0.42,1.24,0.79,1.44,1.12c0.21,0.33,0.25,0.69,0.13,1.07
				c-0.11,0.35-0.34,0.7-0.69,1.07c-0.35,0.36-0.75,0.81-1.2,1.32c-0.45,0.52-0.91,1.15-1.38,1.88c-0.44,0.74-0.83,1.68-1.14,2.79
				c-0.58,2.06-0.63,4.08-0.06,6.04c0.59,1.97,1.61,3.78,3.08,5.43c1.46,1.65,3.31,3.07,5.54,4.28c2.23,1.21,4.73,2.11,7.44,2.73
				c2.53,0.58,4.92,0.85,7.2,0.83c2.29-0.02,4.35-0.36,6.2-1.01c1.84-0.65,3.41-1.65,4.69-3c1.29-1.34,2.29-3.04,2.88-5.16
				c0.43-1.62,0.67-3.23,0.64-4.88c-0.04-1.65-0.33-3.18-0.87-4.61l-8.43-2.82c-1.13-0.38-1.88-0.86-2.23-1.45
				c-0.35-0.59-0.36-1.34-0.04-2.24l-1.31-0.45c-0.73,1.99-1.36,4-2,6.02c-0.65,2.01-1.3,4.03-1.85,6.07l1.33,0.38
				c0.32-1.14,0.8-1.87,1.42-2.19c0.64-0.32,1.56-0.29,2.78,0.08l7.97,2.42c0.2,0.52,0.29,1.05,0.28,1.59
				c-0.01,0.54-0.08,1.02-0.2,1.45c-0.2,0.71-0.64,1.33-1.33,1.87c-0.68,0.54-1.52,0.94-2.51,1.23c-1.46,0.4-3.22,0.5-5.28,0.3
				c-2.06-0.2-4.65-0.71-7.76-1.52c-2.63-0.69-4.93-1.47-6.92-2.36c-1.99-0.89-3.61-1.85-4.85-2.88c-1.25-1.03-2.12-2.1-2.62-3.23
				c-0.5-1.12-0.58-2.26-0.26-3.4c0.3-1.07,0.82-1.94,1.57-2.6c0.74-0.66,1.66-1.16,2.75-1.5c1.09-0.34,2.34-0.54,3.75-0.59
				c1.41-0.05,2.96-0.01,4.65,0.12l0.28-0.88L174.33,215.13z"/>
			<path class="st2" d="M179.95,202.22l-1.88,4.83l-1.73,4.88l1.23,0.43c0.11-0.24,0.25-0.47,0.41-0.7
				c0.16-0.23,0.38-0.45,0.67-0.65c0.28-0.2,0.65-0.4,1.09-0.57c0.45-0.18,1.02-0.35,1.71-0.52l1.49-0.41l23.27,8.58
				c1.66,0.61,2.8,1.3,3.43,2.07c0.63,0.76,0.77,1.63,0.42,2.61l1.23,0.44c0.88-2.59,1.86-5.14,2.87-7.68l-1.21-0.48
				c-0.26,0.68-0.59,1.19-0.98,1.54c-0.39,0.35-0.85,0.57-1.36,0.67c-0.52,0.1-1.1,0.08-1.76-0.06c-0.66-0.13-1.39-0.35-2.21-0.66
				l-20.55-7.74c11.42-2.26,22.7-3.81,33.95-4.57l0.35-0.75l-28.22-13.19c-1.62-0.76-2.69-1.58-3.2-2.46
				c-0.51-0.88-0.51-1.86-0.01-2.93l-1.18-0.57c-1.31,2.86-2.69,5.69-3.94,8.58l1.2,0.53c0.31-0.74,0.69-1.29,1.14-1.66
				c0.45-0.37,0.94-0.59,1.48-0.67c0.54-0.08,1.13-0.04,1.76,0.12c0.63,0.16,1.29,0.39,1.99,0.72l13.61,6.24
				c-4.19,0.46-8.32,1.05-12.5,1.72C188.32,200.56,184.11,201.33,179.95,202.22z"/>
			<path class="st2" d="M228.24,192.65c-4.21-5.1-9.71-9.74-16.62-13.65c-7.02-3.97-13.9-6.27-20.78-6.62
				c-6.91-0.38-12.25,1.08-16.06,4.18l1.68,0.82c1.95-0.94,3.91-1.44,5.89-1.49c2.85-0.07,6.25,0.5,10.2,1.72
				c3.97,1.22,9.2,3.58,15.71,7.02c6.91,3.66,12.12,6.84,15.67,9.51c2.83,2.14,5.02,4.15,6.58,6.03c1.12,1.37,2.12,3.1,3,5.16
				l1.54,0.76C234.76,202.19,232.42,197.73,228.24,192.65z"/>
		</g>
		<polygon class="st0" points="223.9,139.55 228.01,152.21 241.32,152.21 230.55,160.03 234.67,172.69 223.9,164.87 213.13,172.69 
			217.24,160.03 206.48,152.21 219.79,152.21 		"/>
	</g>
</g>
</svg>
