<?xml version="1.0" encoding="utf-8"?>
<!-- Generator: Adobe Illustrator 27.0.0, SVG Export Plug-In . SVG Version: 6.00 Build 0)  -->
<svg version="1.1" id="Layer_1" xmlns="http://www.w3.org/2000/svg" xmlns:xlink="http://www.w3.org/1999/xlink" x="0px" y="0px"
	 viewBox="0 0 24 24" style="enable-background:new 0 0 24 24;" xml:space="preserve">
<style type="text/css">
	.st0{fill:#627380;}
</style>
<g>
	<g>
		<path class="st0" d="M13,8c1.7,0,3,1.3,3,3c0,0.6,0.4,1,1,1s1-0.4,1-1c0-2.8-2.2-5-5-5c-0.6,0-1,0.4-1,1S12.4,8,13,8z"/>
		<path class="st0" d="M13,4c3.9,0,7,3.1,7,7c0,0.6,0.4,1,1,1s1-0.4,1-1c0-5-4-9-9-9c-0.6,0-1,0.4-1,1S12.4,4,13,4z M21.8,15.9
			c-0.1-0.3-0.4-0.6-0.7-0.6l-6-1.4c-0.3-0.1-0.7,0-0.9,0.3c-0.1,0.1-0.1,0.1-0.8,1.4c-2.2-1-3.9-2.7-4.9-4.9C9.7,10,9.7,10,9.9,9.9
			c0.2-0.2,0.3-0.6,0.3-0.9L8.7,3C8.7,2.7,8.4,2.4,8.1,2.3C7.9,2.2,7.6,2.1,7.4,2.1C7.1,2,6.9,2,6.6,2C4.1,2,2,4.1,2,6.6
			C2,15.1,8.9,22,17.4,22c2.5,0,4.6-2.1,4.6-4.6l0,0c0-0.3,0-0.5-0.1-0.8C21.9,16.4,21.8,16.1,21.8,15.9z"/>
	</g>
</g>
</svg>
