<?xml version="1.0" encoding="utf-8"?>
<!-- Generator: Adobe Illustrator 27.0.0, SVG Export Plug-In . SVG Version: 6.00 Build 0)  -->
<svg version="1.1" id="Layer_1" xmlns="http://www.w3.org/2000/svg" xmlns:xlink="http://www.w3.org/1999/xlink" x="0px" y="0px"
	 viewBox="0 0 35 35" style="enable-background:new 0 0 35 35;" xml:space="preserve">
<style type="text/css">
	.st0{fill:#0A58CA;}
</style>
<g>
	<path class="st0" d="M5,4.2c0.3,0,0.4,0.1,0.4,0.4c0,4.1,0,8.3,0,12.4c0,1.4,0.8,2.3,2.3,2.3c6.6,0,13.1,0,19.7,0
		c0.3,0,0.5,0,0.7-0.1c1-0.3,1.5-1.1,1.5-2.2c0-4.1,0-8.3,0-12.4c0-0.3,0.1-0.4,0.4-0.4c1.3,0,2.1-1.2,1.7-2.3
		c-0.2-0.8-0.9-1.2-1.9-1.2c-4.1,0-8.2,0-12.4,0c-4.1,0-8.2,0-12.3,0c-0.3,0-0.6,0-0.9,0.1C3.5,1,3.1,1.8,3.2,2.7
		C3.3,3.5,4.1,4.1,5,4.2z M28.6,17.1c0,0.8-0.4,1.2-1.2,1.2c-6.6,0-13.2,0-19.7,0c-0.8,0-1.2-0.4-1.2-1.2c0-4.2,0-8.4,0-12.6
		c0-0.3,0.1-0.3,0.3-0.3c3.6,0,7.2,0,10.8,0c3.6,0,7.2,0,10.8,0c0.3,0,0.4,0.1,0.4,0.3C28.6,8.7,28.6,12.9,28.6,17.1z M4.2,2.3
		c0-0.3,0.3-0.6,0.6-0.7c0.2,0,0.3,0,0.5,0c4.1,0,8.1,0,12.2,0c4.1,0,8.1,0,12.2,0c0.2,0,0.3,0,0.5,0c0.4,0.1,0.6,0.4,0.6,0.7
		c0,0.3-0.2,0.7-0.5,0.8c-0.2,0.1-0.3,0.1-0.5,0.1c-8.2,0-16.4,0-24.7,0c-0.2,0-0.3,0-0.5-0.1C4.4,3,4.2,2.6,4.2,2.3z"/>
	<path class="st0" d="M20.3,28.5c-1.9,0-3.7,0-5.6,0c-1.5,0-2.8,1.2-3,2.7c-0.1,0.8,0,1.7-0.1,2.5c0,0.5,0.2,0.7,0.7,0.7
		c1.7,0,3.5,0,5.2,0c1.8,0,3.5,0,5.3,0c0.4,0,0.6-0.2,0.6-0.6c0-0.8,0-1.5,0-2.3C23.3,29.9,22,28.5,20.3,28.5z M22.1,33.4
		c-1.5,0-3,0-4.6,0c-1.5,0-3,0-4.5,0c-0.2,0-0.3,0-0.3-0.3c0-0.5,0-1,0-1.5c0.1-1.1,1-2.1,2.1-2.1c1.8,0,3.6,0,5.4,0
		c1.2,0,2.1,0.9,2.2,2.1c0,0.5,0,1,0,1.5C22.4,33.4,22.3,33.4,22.1,33.4z"/>
	<path class="st0" d="M31.9,29.4c-1.6,0-3.1,0-4.7,0c-1.2,0-2.2,0.9-2.5,2.1c-0.2,0.7-0.1,1.5-0.1,2.2c0,0.5,0.2,0.7,0.7,0.7
		c1.4,0,2.8,0,4.2,0c1.4,0,2.8,0,4.3,0c0.5,0,0.6-0.2,0.6-0.6c0-0.6,0-1.2,0-1.7C34.4,30.6,33.3,29.5,31.9,29.4z M33.1,33.4
		c-1.2,0-2.4,0-3.6,0c-1.2,0-2.3,0-3.5,0c-0.2,0-0.4,0-0.3-0.3c0-0.4,0-0.9,0-1.3c0.2-0.8,0.8-1.4,1.6-1.4c1.5,0,2.9,0,4.4,0
		c0.9,0,1.6,0.7,1.7,1.7c0,0.3,0,0.7,0,1C33.4,33.4,33.3,33.4,33.1,33.4z"/>
	<path class="st0" d="M7.8,29.4c-1.5,0-3.1,0-4.6,0c-1.2,0-2.2,0.9-2.5,2.1c-0.2,0.7,0,1.5-0.1,2.2c0,0.5,0.2,0.7,0.7,0.7
		c1.4,0,2.8,0,4.2,0c1.4,0,2.8,0,4.3,0c0.5,0,0.6-0.2,0.6-0.6c0-0.6,0-1.1,0-1.7C10.3,30.7,9.2,29.5,7.8,29.4z M9,33.4
		c-1.2,0-2.4,0-3.6,0c-1.2,0-2.3,0-3.5,0c-0.2,0-0.3-0.1-0.3-0.3c0-0.4,0-0.8,0-1.1c0.1-0.9,0.8-1.5,1.6-1.5c1.4,0,2.9,0,4.3,0
		c0.9,0,1.6,0.7,1.7,1.7c0,0.3,0,0.7,0,1C9.3,33.4,9.2,33.4,9,33.4z"/>
	<path class="st0" d="M14.1,23.9c0,1.8,1.5,3.4,3.3,3.4c1.8,0,3.4-1.5,3.4-3.3c0-1.8-1.5-3.4-3.3-3.4C15.8,20.5,14.2,22,14.1,23.9z
		 M19.8,23.9c0,1.3-1,2.4-2.3,2.4c-1.3,0-2.3-1.1-2.3-2.3c0-1.3,1-2.3,2.3-2.3C18.8,21.6,19.8,22.6,19.8,23.9z"/>
	<path class="st0" d="M5.5,28.7c1.5,0,2.8-1.3,2.8-2.8c0-1.5-1.2-2.8-2.8-2.8c-1.5,0-2.8,1.3-2.8,2.8C2.7,27.4,3.9,28.7,5.5,28.7z
		 M5.5,24c1,0,1.8,0.8,1.8,1.8c0,1-0.8,1.8-1.8,1.8c-1,0-1.8-0.8-1.8-1.8C3.7,24.8,4.5,24,5.5,24z"/>
	<path class="st0" d="M29.5,23c-1.5,0-2.8,1.3-2.8,2.8c0,1.5,1.3,2.8,2.8,2.8c1.5,0,2.8-1.3,2.8-2.8C32.3,24.3,31.1,23,29.5,23z
		 M29.6,27.6c-1,0-1.8-0.8-1.8-1.8c0-1,0.8-1.8,1.8-1.8c1,0,1.8,0.8,1.8,1.8C31.3,26.8,30.6,27.6,29.6,27.6z"/>
	<path class="st0" d="M25.5,7.1c-0.7,0-1.3,0-2,0c-0.4,0-0.6,0.2-0.6,0.5c0,0.3,0.2,0.5,0.6,0.5c0.3,0,0.5,0,0.9,0
		c-1.3,1.3-2.5,2.5-3.7,3.8c-0.1,0.1-0.2,0-0.3,0c-0.4-0.5-0.9-0.9-1.3-1.4c-0.4-0.4-0.6-0.4-1,0c-0.8,0.8-1.6,1.6-2.4,2.4
		c-0.2,0.2-0.3,0.2-0.4,0c-0.5-0.5-1-1-1.5-1.5c-0.4-0.4-0.6-0.4-1,0c-0.9,1-1.9,1.9-2.8,2.9c-0.2,0.2-0.3,0.3-0.5,0.5
		c-0.2,0.3-0.1,0.7,0.3,0.8c0.2,0.1,0.4,0,0.6-0.2c0.9-0.9,1.9-1.9,2.8-2.8c0.2-0.2,0.2-0.1,0.4,0c0.5,0.5,1,1,1.5,1.5
		c0.4,0.4,0.6,0.4,1,0c0.8-0.8,1.7-1.7,2.5-2.5c0.1-0.2,0.2-0.1,0.4,0c0.4,0.4,0.9,0.9,1.3,1.3c0.4,0.4,0.6,0.4,1,0
		c1.3-1.3,2.5-2.5,3.8-3.8C25,9.2,25,9.1,25.2,9.1c0,0.3,0,0.6,0,0.9c0,0.3,0.3,0.5,0.5,0.5c0.3,0,0.5-0.2,0.5-0.5
		c0-0.7,0-1.4,0-2.1C26.2,7.3,26,7.1,25.5,7.1z"/>
</g>
</svg>
