<?xml version="1.0" encoding="utf-8"?>
<!-- Generator: Adobe Illustrator 27.0.0, SVG Export Plug-In . SVG Version: 6.00 Build 0)  -->
<svg version="1.1" id="Layer_1" xmlns="http://www.w3.org/2000/svg" xmlns:xlink="http://www.w3.org/1999/xlink" x="0px" y="0px"
	 viewBox="0 0 35 35" style="enable-background:new 0 0 35 35;" xml:space="preserve">
<style type="text/css">
	.st0{fill:none;}
	.st1{fill:#0A58CA;}
</style>
<g>
	<g>
		<path class="st0" d="M13.9,23.2c0.2-0.1,0.1-0.2,0.1-0.3c-0.5-0.7-0.9-1.3-1.4-2c-0.1-0.2-0.2-0.2-0.4-0.2c-1.3,0-2.5,0-3.8,0
			c-0.2,0-0.3,0.1-0.4,0.3c-0.7,1.6-1.4,3.3-2.1,4.9c-0.2,0.6-0.5,1.1-0.8,1.8c0.1,0,0.1,0,0.1,0C8.2,26.1,11,24.6,13.9,23.2z"/>
		<path class="st0" d="M17.3,23.9c0.1,0.2,0.2,0.1,0.3,0c0.4-0.5,0.7-0.9,1.1-1.4c1.8-2.4,3.5-4.9,4.7-7.7c0.6-1.4,1.1-2.8,1-4.6
			c0-0.5-0.1-1.3-0.3-2.1c-1.4-5.4-7.3-6.6-10.8-3.9c-1.8,1.4-2.5,3.3-2.7,5.5c-0.1,1.8,0.3,3.5,1,5.1C13,18.1,15,21.1,17.3,23.9z"
			/>
		<path class="st0" d="M10,27.6c-0.1-0.1-0.2-0.1-0.4,0c-1.8,1-3.7,1.9-5.5,2.8c-0.1,0-0.2,0.1-0.2,0.2c-0.3,0.6-0.5,1.3-0.8,1.9
			c4,0,7.9,0,11.9,0c0,0,0-0.1,0-0.1C13.3,30.8,11.6,29.2,10,27.6z"/>
		<path class="st0" d="M29.5,27.3c-0.9-2.1-1.8-4.3-2.7-6.4c-0.1-0.2-0.2-0.2-0.4-0.2c-1.3,0-2.5,0-3.8,0c-0.2,0-0.4,0.1-0.5,0.3
			c-1.2,1.8-2.5,3.6-3.9,5.3c-0.5,0.6-1.1,0.6-1.6,0c-0.4-0.5-0.8-0.9-1.1-1.4c-0.1-0.1-0.2-0.2-0.3-0.1c-1.1,0.6-2.2,1.2-3.4,1.7
			c0,0,0,0.1,0.1,0.1c2,2,3.9,3.9,5.9,5.9c0.1,0.1,0.2,0.1,0.3,0.1c0.6,0,1.1,0,1.7,0c0.1,0,0.3,0,0.4-0.1c3.1-1.6,6.2-3.2,9.3-4.8
			C29.5,27.5,29.6,27.5,29.5,27.3z"/>
		<path class="st0" d="M30.1,29.5c-1.9,1-3.8,2-5.6,2.9c-0.1,0-0.2,0-0.2,0.2c2.5,0,4.9,0,7.4,0c-0.4-1-0.9-2-1.3-3
			C30.4,29.4,30.3,29.4,30.1,29.5z"/>
		<path class="st1" d="M28.3,19.4c-0.2-0.5-0.6-0.7-1.1-0.7c-1.2,0-2.4,0-3.6,0c0-0.2,0.1-0.3,0.1-0.4c0.9-1.7,1.8-3.4,2.2-5.3
			c0.7-3,0.3-5.9-1.5-8.5c-1.5-2.1-3.6-3.3-6.2-3.6c-0.1,0-0.1,0-0.1-0.1c-0.6,0-1.1,0-1.7,0c-0.4,0.1-0.8,0.1-1.2,0.2
			c-3.4,0.9-5.5,3.1-6.5,6.4c-0.7,2.6-0.4,5.2,0.7,7.6c0.5,1.2,1.1,2.3,1.7,3.5c-0.1,0.1-0.2,0.1-0.2,0.1c-1.1,0-2.2,0-3.3,0
			c-0.6,0-1,0.2-1.2,0.8c-2,4.6-3.9,9.2-5.9,13.8c0,0,0,0-0.1,0.1c0,0.2,0,0.4,0,0.5c0.1,0.4,0.3,0.6,0.7,0.7c10.8,0,21.5,0,32.3,0
			c0.4-0.1,0.6-0.3,0.7-0.7c0-0.2,0-0.3,0-0.5C32.2,28.7,30.2,24,28.3,19.4z M10.5,9.7c0.2-2.2,0.9-4.1,2.7-5.5
			c3.6-2.7,9.5-1.5,10.8,3.9c0.2,0.8,0.3,1.6,0.3,2.1c0,1.8-0.4,3.2-1,4.6c-1.2,2.8-2.9,5.3-4.7,7.7c-0.4,0.5-0.7,0.9-1.1,1.4
			c-0.1,0.1-0.2,0.2-0.3,0c-2.2-2.8-4.3-5.8-5.8-9.1C10.8,13.2,10.3,11.5,10.5,9.7z M5.9,25.8c0.7-1.6,1.4-3.3,2.1-4.9
			c0.1-0.2,0.2-0.3,0.4-0.3c1.3,0,2.5,0,3.8,0c0.2,0,0.3,0,0.4,0.2c0.5,0.7,0.9,1.4,1.4,2c0.1,0.1,0.1,0.2-0.1,0.3
			c-2.9,1.5-5.7,2.9-8.6,4.4c0,0,0,0-0.1,0C5.4,27,5.7,26.4,5.9,25.8z M3,32.6c0.3-0.7,0.6-1.3,0.8-1.9c0-0.1,0.1-0.2,0.2-0.2
			c1.8-0.9,3.7-1.9,5.5-2.8c0.1-0.1,0.2-0.1,0.4,0c1.6,1.6,3.3,3.3,4.9,4.9c0,0,0,0,0,0.1C11,32.6,7,32.6,3,32.6z M19.7,32.6
			c-0.6,0-1.1,0-1.7,0c-0.1,0-0.2,0-0.3-0.1c-2-2-3.9-3.9-5.9-5.9c0,0,0-0.1-0.1-0.1c1.1-0.6,2.3-1.2,3.4-1.7c0.2-0.1,0.2,0,0.3,0.1
			c0.4,0.5,0.7,0.9,1.1,1.4c0.5,0.6,1.1,0.6,1.6,0c1.4-1.7,2.7-3.4,3.9-5.3c0.1-0.2,0.3-0.3,0.5-0.3c1.3,0,2.5,0,3.8,0
			c0.2,0,0.3,0.1,0.4,0.2c0.9,2.1,1.8,4.3,2.7,6.4c0.1,0.2,0.1,0.3-0.1,0.3c-3.1,1.6-6.2,3.2-9.3,4.8C19.9,32.5,19.8,32.6,19.7,32.6
			z M24.3,32.6c0-0.1,0.1-0.1,0.2-0.2c1.9-1,3.8-2,5.6-2.9c0.2-0.1,0.3-0.1,0.4,0.1c0.4,1,0.8,2,1.3,3
			C29.2,32.6,26.8,32.6,24.3,32.6z"/>
	</g>
	<path class="st1" d="M17.4,12.7c1.6,0,3-1.3,3-3c0-1.7-1.3-3-3-3c-1.6,0-2.9,1.3-3,2.9C14.4,11.4,15.7,12.7,17.4,12.7z M17.4,8.8
		c0.5,0,1,0.5,1,1c0,0.5-0.4,1-1,1c-0.5,0-1-0.5-1-1C16.4,9.2,16.9,8.8,17.4,8.8z"/>
</g>
</svg>
