<?xml version="1.0" encoding="utf-8"?>
<!-- Generator: Adobe Illustrator 27.0.0, SVG Export Plug-In . SVG Version: 6.00 Build 0)  -->
<svg version="1.1" id="Layer_1" xmlns="http://www.w3.org/2000/svg" xmlns:xlink="http://www.w3.org/1999/xlink" x="0px" y="0px"
	 viewBox="0 0 35 35" style="enable-background:new 0 0 35 35;" xml:space="preserve">
<style type="text/css">
	.st0{fill:none;stroke:#0A58CA;stroke-width:0.75;stroke-miterlimit:10;}
</style>
<path class="st0" d="M6.7,4.2c1.6,0,2.8,1.3,2.8,2.9S8.3,10,6.7,10S3.9,8.7,3.9,7.1l0,0C3.9,5.5,5.2,4.2,6.7,4.2L6.7,4.2z M4.8,10.6
	l1,2.7h0.1l0.5-1.7L6,11.3C5.9,11,6,10.6,6.3,10.6c0.1,0,0.3,0,0.4,0s0.3,0,0.4,0c0.4,0.1,0.4,0.4,0.2,0.7L7,11.6l0.5,1.7h0.1
	l0.9-2.7l0.1,0.1c0.3,0,0.5,0.1,0.8,0.2c0.3,0.1,0.6,0.3,0.8,0.6l2.1,3.1l1.6,0.3v-6h-2.1c-0.3,0-0.5-0.2-0.5-0.5s0.2-0.5,0.5-0.5
	h10.2V6.3c0-0.3,0.3-0.5,0.6-0.5c0.3,0,0.5,0.2,0.5,0.5v1.5h10.8c0.3,0,0.5,0.2,0.5,0.5S34,8.8,33.7,8.8l0,0h-2.1v12.9h2.2
	c0.3,0,0.5,0.2,0.5,0.5s-0.2,0.5-0.5,0.5H22.9v2.4c0,0,0,0,0.1,0.1l3.2,3.1c0.2,0.2,0.2,0.5,0.1,0.7c-0.1,0.2-0.5,0.2-0.7,0.1l0,0
	l-2.5-2.5v2.2c0,0.3-0.3,0.5-0.6,0.5s-0.5-0.2-0.5-0.5v-2.3l-2.6,2.6c-0.2,0.2-0.5,0.2-0.7,0l0,0c-0.2-0.2-0.2-0.5,0-0.7l0,0
	l3.2-3.1l0,0c0,0,0.1-0.1,0.2-0.1v-2.3H11.8c-0.3,0-0.5-0.2-0.5-0.5s0.2-0.5,0.5-0.5h2.1v-4.2l-2.5-0.5c-0.3-0.1-0.7-0.2-0.9-0.5
	l-1.1-1.5l0,0l-0.1,4.4l1.1,7.1l0.4,2.4c0.2,1.6-2.1,2.6-2.8,0.5L6.7,21l-1.5,8.7c-0.3,1.6-2.7,1.6-2.8-0.3L4,19.7l-0.1-5.2
	c-0.1,0.2-0.3,0.4-0.3,0.6c-0.1,0.2-0.2,0.6-0.2,1.1l-0.2,3.1c-0.1,1.6-2.4,1.7-2.4,0c0-0.8,0.1-1.6,0.2-2.3c0.2-1.5,0.2-2.5,1.1-4
	c0.3-0.6,0.8-1.1,1.3-1.5c0.4-0.3,0.9-0.5,1.4-0.7C4.6,10.7,4.7,10.7,4.8,10.6z M15,15l2.8-3.1c0.3-0.3,0.7-0.3,1-0.1
	c0.3,0.3,0.3,0.7,0.1,1l0,0l-2.7,2.9c0.4,0.6,0.2,1.5-0.4,1.9c-0.2,0.1-0.5,0.2-0.7,0.2v4h15.5V8.9H15.1L15,15L15,15z"/>
</svg>
