<?xml version="1.0" standalone="no"?>
<!DOCTYPE svg PUBLIC "-//W3C//DTD SVG 20010904//EN"
 "http://www.w3.org/TR/2001/REC-SVG-20010904/DTD/svg10.dtd">
<svg version="1.0" xmlns="http://www.w3.org/2000/svg"
 width="20.000000pt" height="20.000000pt" viewBox="0 0 20.000000 20.000000"
 preserveAspectRatio="xMidYMid meet">

<g transform="translate(0.000000,20.000000) scale(0.100000,-0.100000)"
fill="#000000" stroke="none">
<path d="M60 185 c-10 -12 -16 -13 -27 -4 -7 7 -17 9 -20 5 -4 -4 32 -46 80
-94 100 -100 109 -99 105 8 -3 58 -5 65 -25 68 -12 2 -27 10 -33 18 -16 18
-64 18 -80 -1z m72 -52 c18 -17 25 -53 9 -53 -5 0 -11 9 -14 21 -3 11 -15 23
-26 26 -12 3 -21 9 -21 14 0 15 32 10 52 -8z"/>
<path d="M2 90 l3 -65 64 -3 c55 -3 63 -1 52 11 -6 8 -23 18 -36 21 -15 4 -27
16 -31 30 -3 13 -17 35 -30 47 l-25 23 3 -64z"/>
</g>
</svg>
