<?xml version="1.0" encoding="utf-8"?>
<!-- Generator: Adobe Illustrator 27.0.0, SVG Export Plug-In . SVG Version: 6.00 Build 0)  -->
<svg version="1.1" id="Layer_1" xmlns="http://www.w3.org/2000/svg" xmlns:xlink="http://www.w3.org/1999/xlink" x="0px" y="0px"
	 viewBox="0 0 35 35" style="enable-background:new 0 0 35 35;" xml:space="preserve">
<style type="text/css">
	.st0{fill:#0A58CA;}
</style>
<g>
	<path class="st0" d="M1.9,13.7c0.5-0.9,1.1-1.6,1.9-2C4.7,11.2,5.6,11,6.6,11c1.2,0,2.2,0.3,3.1,1c0.9,0.6,1.5,1.5,1.9,2.7H9.1
		c-0.2-0.5-0.6-0.9-1-1.2C7.7,13.1,7.2,13,6.6,13c-0.6,0-1.2,0.2-1.6,0.5c-0.5,0.3-0.9,0.7-1.1,1.3s-0.4,1.2-0.4,2
		c0,0.7,0.1,1.4,0.4,2s0.6,1,1.1,1.3c0.5,0.3,1,0.5,1.6,0.5c0.6,0,1.1-0.1,1.5-0.4s0.8-0.7,1-1.2h2.4c-0.4,1.1-1,2-1.9,2.7
		c-0.9,0.6-1.9,1-3.1,1c-1,0-1.9-0.2-2.7-0.7c-0.8-0.5-1.5-1.2-1.9-2c-0.5-0.9-0.7-1.9-0.7-3C1.2,15.6,1.4,14.6,1.9,13.7z"/>
	<path class="st0" d="M22.5,22.3h-2.1l-4.8-7.7v7.7h-2.1V11.1h2.1l4.8,7.7v-7.7h2.1V22.3z"/>
	<path class="st0" d="M31.1,20.2h-4.2l-0.7,2.1h-2.2l3.8-11.3h2.5L34,22.3h-2.2L31.1,20.2z M30.5,18.4l-1.5-4.7l-1.5,4.7H30.5z"/>
</g>
</svg>
