<?xml version="1.0" encoding="utf-8"?>
<!-- Generator: Adobe Illustrator 25.2.1, SVG Export Plug-In . SVG Version: 6.00 Build 0)  -->
<svg version="1.1" id="Layer_1" xmlns="http://www.w3.org/2000/svg" xmlns:xlink="http://www.w3.org/1999/xlink" x="0px" y="0px"
	 viewBox="0 0 244.21 244.95" style="enable-background:new 0 0 244.21 244.95;" xml:space="preserve">
<style type="text/css">
	.st0{fill:#17479E;}
	.st1{fill:#FFFFFF;}
	.st2{fill:#F6861F;}
</style>
<g>
	<g>
		<g>
			<polygon class="st0" points="186.05,111.8 186.05,61.01 139.78,107.27 165.17,132.67 			"/>
			<polygon class="st0" points="66.09,180.96 116.88,180.96 135.25,162.59 109.86,137.19 			"/>
			<polygon class="st0" points="60.1,122.19 77.47,104.81 60.1,87.44 			"/>
			<polygon class="st0" points="122.27,60.02 92.52,60.02 107.39,74.89 			"/>
			<polygon class="st0" points="180.05,60.02 129.26,60.02 110.89,78.39 136.28,103.78 			"/>
			<polygon class="st0" points="60.1,129.18 60.1,179.97 106.36,133.7 80.97,108.31 			"/>
			<polygon class="st0" points="186.05,118.78 168.67,136.16 186.05,153.54 			"/>
			<polygon class="st0" points="123.87,180.96 153.62,180.96 138.75,166.08 			"/>
			
				<rect x="73.02" y="89.13" transform="matrix(0.7071 -0.7071 0.7071 0.7071 -37.1865 93.4225)" class="st0" width="42.31" height="4.94"/>
			
				<rect x="130.8" y="146.91" transform="matrix(0.7071 -0.7071 0.7071 0.7071 -61.1183 151.2005)" class="st0" width="42.31" height="4.94"/>
			
				<rect x="101.91" y="118.02" transform="matrix(0.7071 -0.7071 0.7071 0.7071 -49.152 122.3112)" class="st0" width="42.31" height="4.94"/>
			
				<rect x="116.36" y="116.97" transform="matrix(0.7071 -0.7071 0.7071 0.7071 -55.1339 136.7566)" class="st1" width="42.31" height="35.92"/>
			<polygon class="st1" points="92.52,60.02 60.1,60.02 60.1,87.44 77.47,104.81 107.39,74.89 			"/>
			
				<rect x="87.47" y="88.09" transform="matrix(0.7071 -0.7071 0.7071 0.7071 -43.1692 107.8705)" class="st1" width="42.31" height="35.92"/>
			<polygon class="st1" points="186.05,153.54 168.67,136.16 138.75,166.08 153.62,180.96 186.05,180.96 			"/>
		</g>
		<g>
			<path class="st0" d="M82.32,86.5v0.54h-14.9V86.5h0.95c0.83,0,1.49-0.1,1.99-0.31c0.36-0.14,0.65-0.37,0.84-0.7
				c0.16-0.23,0.23-0.85,0.23-1.84V70.59c0-1.01-0.08-1.65-0.23-1.9c-0.16-0.26-0.47-0.48-0.93-0.67c-0.47-0.19-1.1-0.28-1.9-0.28
				h-0.95v-0.54h14.9v0.54h-0.95c-0.83,0-1.49,0.1-1.99,0.31c-0.36,0.14-0.65,0.37-0.86,0.7c-0.16,0.23-0.23,0.85-0.23,1.84v13.06
				c0,1.01,0.08,1.65,0.24,1.9c0.16,0.26,0.48,0.47,0.95,0.67c0.47,0.19,1.1,0.28,1.9,0.28H82.32z"/>
		</g>
		<g>
			<path class="st0" d="M107.45,109.26v5.51c0,1.07,0.07,1.75,0.21,2.03c0.14,0.28,0.39,0.5,0.75,0.67
				c0.36,0.17,1.02,0.25,1.98,0.25v0.54H99.59v-0.54c0.98,0,1.65-0.08,2-0.26c0.35-0.17,0.59-0.39,0.74-0.67s0.21-0.95,0.21-2.02
				v-12.88c0-1.07-0.07-1.75-0.21-2.03c-0.14-0.28-0.39-0.5-0.75-0.67c-0.36-0.17-1.02-0.25-1.99-0.25V98.4h9.27
				c3.05,0,5.24,0.51,6.57,1.52c1.33,1.01,1.99,2.28,1.99,3.8c0,1.29-0.43,2.39-1.29,3.31c-0.86,0.92-2.04,1.54-3.54,1.87
				C111.58,109.14,109.86,109.26,107.45,109.26z M107.45,99.54v8.58c0.34,0.02,0.61,0.03,0.78,0.03c1.27,0,2.26-0.35,2.95-1.06
				s1.03-1.8,1.03-3.28c0-1.47-0.34-2.55-1.03-3.23s-1.72-1.03-3.09-1.03H107.45z"/>
		</g>
		<g>
			<path class="st0" d="M146.43,126.63V132h-0.53c-0.31-1.24-0.66-2.13-1.04-2.67c-0.38-0.54-0.9-0.97-1.57-1.29
				c-0.37-0.18-1.02-0.26-1.95-0.26h-1.48v15.31c0,1.01,0.05,1.65,0.17,1.9c0.11,0.26,0.33,0.47,0.66,0.67
				c0.33,0.19,0.78,0.28,1.34,0.28h0.66v0.54h-10.4v-0.54h0.66c0.57,0,1.04-0.1,1.39-0.31c0.26-0.14,0.45-0.37,0.6-0.7
				c0.11-0.23,0.16-0.85,0.16-1.84v-15.31h-1.43c-1.34,0-2.31,0.28-2.91,0.85c-0.85,0.79-1.39,1.92-1.61,3.38h-0.56v-5.37H146.43z"
				/>
		</g>
		<g>
			<path class="st0" d="M167.58,167.82l3.93-13.09h5.9v0.54h-0.47c-0.43,0-0.77,0.1-1.03,0.31c-0.18,0.14-0.32,0.36-0.43,0.69
				c-0.08,0.23-0.12,0.84-0.12,1.83v13.08c0,1.01,0.04,1.65,0.12,1.9c0.08,0.26,0.24,0.47,0.48,0.67c0.24,0.19,0.57,0.28,0.97,0.28
				h0.47v0.54h-7.57v-0.54h0.47c0.43,0,0.77-0.1,1.03-0.31c0.18-0.14,0.32-0.37,0.43-0.7c0.08-0.23,0.12-0.85,0.12-1.84v-14.71
				l-5.56,18.11h-0.26l-5.64-17.97v13.98c0,0.98,0.02,1.58,0.05,1.8c0.09,0.49,0.29,0.88,0.6,1.19c0.31,0.31,0.8,0.46,1.46,0.46
				v0.54h-4.96v-0.54h0.15c0.32,0.01,0.62-0.06,0.9-0.21c0.28-0.15,0.49-0.35,0.63-0.61c0.15-0.26,0.25-0.61,0.33-1.07
				c0.01-0.11,0.02-0.6,0.02-1.49V158.1c0-1.01-0.04-1.63-0.12-1.88c-0.08-0.25-0.24-0.47-0.48-0.66s-0.57-0.28-0.97-0.28h-0.46
				v-0.54h5.92L167.58,167.82z"/>
		</g>
	</g>
	<g>
		<g>
			<path class="st2" d="M45.64,34.43c0.31,0.43,0.49,0.8,0.52,1.1c0.03,0.3-0.05,0.53-0.23,0.7c-0.14,0.13-0.6,0.28-1.38,0.48
				c-1.31,0.38-2.38,0.98-3.16,1.75c-0.53,0.53-0.96,1.13-1.29,1.8c-0.32,0.67-0.49,1.45-0.58,2.28c-0.16,1.66,0.19,3.36,1.05,5.12
				c0.86,1.76,2.07,3.27,3.6,4.6c1.45,1.26,3.03,2.2,4.72,2.88c1.68,0.68,3.22,0.93,4.6,0.76c0.7-0.08,1.32-0.28,1.9-0.56
				c0.59-0.27,1.13-0.64,1.62-1.11c0.74-0.72,1.18-1.56,1.35-2.51c0.19-0.94,0.15-2.09-0.13-3.51l-1.22-1.36
				c0.37,1.58,0.51,2.8,0.4,3.69c-0.09,0.91-0.41,1.64-0.99,2.21c-0.7,0.7-1.56,0.98-2.59,0.87c-1.02-0.11-2.17-0.56-3.52-1.4
				c-1.34-0.84-2.72-1.9-4.11-3.19c-1.41-1.32-2.55-2.67-3.38-4.1c-0.65-1.1-1-2.24-0.96-3.33c0.03-1.1,0.39-1.99,1.08-2.68
				c0.83-0.81,1.91-1.19,3.28-1.05c1.37,0.15,2.82,0.83,4.34,2.04l0.32-0.28l-4.9-5.48L45.64,34.43z"/>
			<path class="st2" d="M63.51,33.81c-0.83-0.64-1.67-1.09-2.53-1.33c-0.85-0.24-1.7-0.29-2.52-0.15c-0.82,0.15-1.6,0.44-2.24,0.98
				c-0.71,0.56-1.23,1.24-1.56,2.02c-0.34,0.78-0.48,1.62-0.44,2.51c0.04,0.88,0.28,1.81,0.72,2.76c0.43,0.95,1.03,1.86,1.81,2.76
				c0.78,0.9,1.59,1.63,2.43,2.21c0.84,0.57,1.66,0.98,2.48,1.24c0.83,0.26,1.61,0.34,2.37,0.24c0.76-0.1,1.45-0.39,2.07-0.9
				c0.63-0.53,1.14-1.1,1.4-1.84c0.28-0.73,0.4-1.54,0.35-2.41c-0.05-0.87-0.24-1.79-0.59-2.74c-0.35-0.96-0.83-1.89-1.44-2.78
				C65.11,35.3,64.34,34.45,63.51,33.81z M64.94,40.67c0.4,0.75,0.69,1.43,0.87,2.04c0.18,0.61,0.24,1.14,0.18,1.58
				c-0.06,0.44-0.24,0.78-0.54,1.03c-0.37,0.3-0.81,0.38-1.33,0.24c-0.52-0.13-1.06-0.4-1.64-0.81s-1.17-0.91-1.76-1.52
				c-0.59-0.61-1.16-1.24-1.69-1.89c-0.81-1.01-1.44-1.9-1.86-2.7c-0.43-0.79-0.7-1.49-0.83-2.08c-0.13-0.59-0.13-1.09-0.01-1.49
				c0.12-0.4,0.31-0.71,0.59-0.93c0.32-0.26,0.71-0.38,1.18-0.35c0.46,0.03,0.97,0.21,1.52,0.54c0.55,0.34,1.15,0.83,1.79,1.47
				c0.65,0.65,1.32,1.47,2.03,2.44C64.03,39.11,64.54,39.91,64.94,40.67z"/>
			<path class="st2" d="M65.63,27.31l-3.65,2.34l0.31,0.45c0.1-0.05,0.2-0.09,0.31-0.13c0.11-0.03,0.24-0.05,0.39-0.05
				c0.15,0,0.32,0.03,0.52,0.09c0.2,0.05,0.43,0.14,0.71,0.26l0.61,0.24l5.66,8.72c0.4,0.62,0.61,1.14,0.63,1.55
				c0.02,0.41-0.16,0.73-0.52,0.97l0.31,0.46l2.9-1.85l-0.29-0.47c-0.26,0.16-0.49,0.26-0.71,0.28c-0.22,0.02-0.43-0.02-0.62-0.11
				s-0.39-0.25-0.57-0.46c-0.19-0.21-0.38-0.47-0.57-0.78l-4.95-7.76c4.36,2.04,8.59,4.46,12.52,6.96l0.3-0.17l-6.17-11.51
				c-0.35-0.66-0.52-1.21-0.46-1.63c0.05-0.42,0.3-0.74,0.75-0.96l-0.25-0.49c-1.19,0.57-2.32,1.25-3.47,1.89l0.27,0.48
				c0.29-0.17,0.56-0.26,0.8-0.27c0.24-0.02,0.46,0.03,0.66,0.14c0.2,0.11,0.39,0.27,0.56,0.48c0.17,0.21,0.34,0.46,0.49,0.74
				l3,5.51c-1.5-0.87-3.05-1.72-4.62-2.55C68.85,28.85,67.24,28.04,65.63,27.31z"/>
			<path class="st2" d="M76.77,28.3c0.38,0.38,0.78,0.67,1.18,0.88s0.82,0.34,1.23,0.41c0.42,0.07,0.83,0.12,1.24,0.15
				c0.41,0.02,0.82,0.08,1.21,0.11c0.39,0.04,0.76,0.12,1.11,0.24c0.34,0.12,0.66,0.31,0.94,0.55c0.28,0.25,0.52,0.6,0.72,1.06
				c0.25,0.57,0.33,1.09,0.25,1.56c-0.08,0.47-0.4,0.81-0.95,1.05c-0.39,0.17-0.8,0.22-1.22,0.18c-0.42-0.05-0.85-0.19-1.3-0.44
				c-0.44-0.24-0.89-0.59-1.34-1.02s-0.9-0.96-1.33-1.58l-0.35,0.18l2.66,5.26l0.31-0.16c-0.07-0.34-0.1-0.6-0.09-0.8
				s0.09-0.32,0.23-0.39c0.12-0.06,0.27-0.08,0.46-0.05c0.18,0.03,0.4,0.05,0.65,0.06c0.25,0.02,0.52,0.01,0.82-0.03
				c0.3-0.04,0.64-0.12,1-0.28c0.54-0.23,0.96-0.55,1.27-0.96c0.31-0.41,0.52-0.88,0.64-1.4c0.11-0.53,0.13-1.1,0.05-1.72
				c-0.08-0.62-0.25-1.25-0.52-1.9c-0.1-0.24-0.21-0.48-0.32-0.72s-0.26-0.47-0.41-0.7c-0.16-0.23-0.34-0.44-0.55-0.66
				c-0.21-0.21-0.45-0.4-0.73-0.58c-0.4-0.26-0.83-0.44-1.26-0.54c-0.44-0.1-0.88-0.17-1.32-0.21c-0.44-0.04-0.87-0.08-1.29-0.1
				c-0.41-0.02-0.81-0.09-1.17-0.16c-0.36-0.07-0.69-0.21-0.98-0.4c-0.3-0.2-0.54-0.49-0.74-0.9c-0.28-0.59-0.38-1.14-0.27-1.63
				c0.1-0.49,0.43-0.89,1.01-1.13c0.39-0.17,0.81-0.23,1.25-0.17c0.44,0.06,0.87,0.21,1.29,0.45c0.43,0.24,0.85,0.56,1.26,0.96
				c0.41,0.4,0.79,0.85,1.14,1.35l0.38-0.16l-2.06-4.94l-0.39,0.17c0.1,0.25,0.16,0.5,0.15,0.75c0,0.25-0.09,0.41-0.26,0.49
				c-0.13,0.05-0.3,0.07-0.51,0.03c-0.21-0.03-0.47-0.06-0.75-0.08c-0.29-0.02-0.62-0.02-0.98,0.02s-0.75,0.14-1.17,0.32
				c-0.52,0.22-0.91,0.58-1.23,0.99c-0.31,0.42-0.52,0.91-0.63,1.44c-0.11,0.54-0.11,1.11-0.01,1.72c0.1,0.61,0.31,1.22,0.62,1.83
				C76.03,27.4,76.38,27.91,76.77,28.3z"/>
			<path class="st2" d="M93.95,14.95c-1.31,0.33-2.59,0.78-3.88,1.17l0.16,0.52c0.31-0.1,0.59-0.13,0.83-0.11
				c0.23,0.03,0.44,0.12,0.62,0.27c0.18,0.16,0.34,0.38,0.48,0.67c0.14,0.29,0.27,0.65,0.4,1.06l1.88,6.28
				c0.43,1.43,0.56,2.58,0.41,3.44c-0.15,0.87-0.6,1.42-1.38,1.66c-0.76,0.24-1.42,0.1-1.98-0.36c-0.56-0.47-1.06-1.3-1.47-2.48
				l-2.6-7.34c-0.24-0.68-0.31-1.21-0.21-1.59c0.1-0.38,0.39-0.68,0.9-0.83l-0.18-0.52c-1.89,0.67-3.76,1.39-5.64,2.08l0.21,0.51
				c0.54-0.21,0.98-0.22,1.29-0.04c0.31,0.18,0.58,0.57,0.81,1.16l2.81,7.3c0.33,0.85,0.71,1.58,1.14,2.17
				c0.42,0.59,0.88,1.05,1.38,1.37c0.49,0.32,1.01,0.51,1.57,0.57c0.56,0.07,1.12-0.05,1.74-0.23c1.19-0.37,1.94-1.14,2.28-2.34
				c0.34-1.19,0.23-2.8-0.36-4.81l-1.81-6.23c-0.13-0.45-0.22-0.84-0.26-1.16c-0.04-0.33-0.03-0.6,0.04-0.82
				c0.06-0.22,0.18-0.4,0.34-0.54c0.16-0.13,0.38-0.23,0.65-0.29L93.95,14.95z"/>
			<path class="st2" d="M105.98,22.33l-0.38,0.08c0,0.62-0.04,1.2-0.11,1.76c-0.07,0.56-0.19,1.05-0.37,1.49
				c-0.18,0.44-0.41,0.8-0.72,1.1c-0.3,0.29-0.69,0.49-1.16,0.58l-0.47,0.09c-0.32,0.06-0.57,0.02-0.73-0.11
				c-0.17-0.13-0.31-0.44-0.42-0.93L99.33,16.3c-0.1-0.46-0.16-0.83-0.17-1.11c-0.01-0.28,0.04-0.52,0.16-0.68
				c0.11-0.16,0.28-0.29,0.52-0.38c0.23-0.09,0.54-0.17,0.92-0.24l-0.11-0.54l-1.6,0.32l-1.59,0.39l-3.18,0.8l0.14,0.53
				c0.28-0.07,0.52-0.11,0.72-0.13c0.21-0.01,0.39,0.03,0.55,0.13c0.16,0.1,0.31,0.28,0.44,0.54s0.25,0.61,0.37,1.08l2.51,9.81
				c0.1,0.39,0.16,0.71,0.18,0.98c0.02,0.27,0,0.49-0.06,0.68c-0.06,0.18-0.17,0.33-0.33,0.44c-0.16,0.11-0.36,0.2-0.62,0.26
				l0.14,0.53l4.08-1.03l4.13-0.8L105.98,22.33z"/>
			<path class="st2" d="M113.27,11.49l-2.51,0.22l-2.5,0.34c-1.66,0.24-3.34,0.42-4.99,0.78l0.84,4.57l0.4-0.08
				c-0.04-0.39-0.05-0.8-0.03-1.23c0.02-0.42,0.09-0.82,0.21-1.19c0.12-0.36,0.28-0.69,0.5-0.94c0.22-0.25,0.5-0.39,0.85-0.44
				l0.91-0.13l1.7,11.35c0.07,0.45,0.1,0.83,0.08,1.12c-0.01,0.29-0.06,0.52-0.15,0.7c-0.08,0.18-0.21,0.3-0.38,0.39
				c-0.17,0.08-0.37,0.14-0.62,0.17l0.09,0.54c1.77-0.23,3.53-0.52,5.3-0.71l-0.06-0.54c-0.29,0.02-0.53,0-0.72-0.04
				c-0.19-0.05-0.35-0.16-0.47-0.33c-0.12-0.17-0.22-0.39-0.29-0.67c-0.07-0.28-0.13-0.62-0.18-1.04L109.88,13l0.76-0.1
				c0.37-0.06,0.71,0.03,1.01,0.2c0.3,0.18,0.56,0.41,0.78,0.72c0.22,0.31,0.39,0.67,0.53,1.08s0.24,0.84,0.31,1.27l0.41-0.03
				L113.27,11.49z"/>
			<path class="st2" d="M118.79,22.2l0.73,2.38c0.06,0.17,0.1,0.3,0.12,0.4c0.02,0.1,0.03,0.2,0.03,0.3
				c0.01,0.24-0.07,0.41-0.23,0.52s-0.44,0.17-0.86,0.18l0.03,0.54c1.61-0.03,3.23-0.11,4.84-0.11l0-0.55
				c-0.27-0.01-0.51-0.18-0.72-0.49c-0.22-0.32-0.44-0.87-0.67-1.63c-1.22-4.33-2.59-8.66-4.12-12.97l-0.28,0.01
				c-1.06,4.14-1.97,8.42-2.74,12.61c-0.17,0.93-0.35,1.63-0.57,2.11c-0.21,0.48-0.49,0.77-0.85,0.86l0.05,0.54l3.26-0.27
				l-0.04-0.54c-0.36,0.03-0.65-0.02-0.89-0.14c-0.23-0.12-0.36-0.38-0.39-0.78c-0.01-0.13-0.01-0.29,0-0.48
				c0.01-0.18,0.03-0.38,0.07-0.59l0.34-1.72l1.44-0.12C117.83,22.22,118.31,22.22,118.79,22.2z M118.47,21.08
				c-0.79,0-1.58,0.07-2.37,0.14c0.31-1.54,0.64-3.08,0.99-4.62C117.57,18.08,118.03,19.59,118.47,21.08z"/>
			<path class="st2" d="M127.92,11.14l-4.33-0.11l0,0.55c0.11,0.01,0.22,0.04,0.33,0.07c0.11,0.03,0.23,0.1,0.35,0.18
				c0.12,0.09,0.24,0.21,0.38,0.36c0.13,0.16,0.28,0.36,0.44,0.62l0.36,0.54l-0.23,10.39c-0.02,0.74-0.13,1.29-0.35,1.63
				c-0.22,0.35-0.54,0.52-0.98,0.51l0,0.55l3.44,0.09l0.03-0.55c-0.31-0.01-0.55-0.06-0.75-0.17c-0.19-0.1-0.34-0.25-0.45-0.44
				c-0.11-0.19-0.18-0.42-0.22-0.7c-0.04-0.28-0.05-0.6-0.04-0.96l0.26-9.2c2.46,4.13,4.6,8.53,6.45,12.78l0.34,0.04l1.36-12.98
				c0.08-0.75,0.26-1.28,0.54-1.6c0.28-0.32,0.67-0.44,1.16-0.38l0.06-0.54c-0.65-0.08-1.31-0.17-1.96-0.24l-1.97-0.15l-0.05,0.54
				c0.34,0.03,0.61,0.1,0.81,0.22c0.21,0.12,0.36,0.28,0.47,0.48c0.1,0.2,0.17,0.44,0.19,0.7c0.03,0.27,0.02,0.57-0.01,0.88
				l-0.61,6.25C131.44,17.4,129.76,14.2,127.92,11.14z"/>
			<path class="st2" d="M147.52,13.45l-0.42-0.1c-0.13,0.31-0.27,0.52-0.43,0.62c-0.16,0.1-0.33,0.13-0.52,0.09
				c-0.16-0.04-0.31-0.12-0.45-0.26c-0.15-0.13-0.33-0.28-0.55-0.46c-0.22-0.16-0.49-0.31-0.83-0.48c-0.33-0.16-0.75-0.28-1.26-0.38
				c-0.85-0.15-1.66-0.08-2.43,0.22c-0.77,0.28-1.47,0.78-2.09,1.46c-0.62,0.67-1.13,1.5-1.54,2.46c-0.41,0.97-0.69,2.03-0.83,3.19
				c-0.15,1.15-0.16,2.21-0.04,3.18c0.12,0.97,0.36,1.82,0.72,2.55c0.36,0.72,0.83,1.32,1.41,1.81c0.58,0.49,1.27,0.8,2.09,0.95
				c0.7,0.13,1.37,0.03,2.02-0.23c0.64-0.26,1.29-0.74,1.98-1.45l0.31-1.37c-0.34,0.38-0.66,0.7-0.97,0.97
				c-0.31,0.27-0.6,0.48-0.9,0.64c-0.29,0.15-0.58,0.26-0.88,0.31c-0.29,0.05-0.59,0.05-0.89,0c-0.93-0.17-1.53-0.87-1.83-2.11
				c-0.3-1.24-0.29-2.91,0.04-5.02c0.16-1.01,0.37-1.93,0.65-2.74c0.27-0.82,0.59-1.51,0.96-2.08c0.37-0.57,0.8-0.98,1.27-1.24
				c0.47-0.26,0.99-0.35,1.54-0.25c0.4,0.07,0.76,0.26,1.06,0.57c0.31,0.31,0.55,0.72,0.75,1.18c0.19,0.47,0.32,0.99,0.4,1.57
				c0.08,0.58,0.09,1.17,0.04,1.77l0.4,0.09L147.52,13.45z"/>
			<path class="st2" d="M152.86,22.15c-0.14-1.65-0.31-3.31-0.5-4.97c-0.04-0.21-0.05-0.38-0.05-0.52c0.01-0.14,0.03-0.26,0.06-0.37
				c0.02-0.08,0.05-0.16,0.09-0.23c0.04-0.07,0.1-0.13,0.18-0.17c0.08-0.04,0.2-0.06,0.34-0.07c0.14,0,0.33,0.03,0.55,0.09
				l0.16-0.53l-2.67-0.76c-0.89-0.27-1.8-0.44-2.7-0.66l-0.13,0.53c0.34,0.08,0.59,0.29,0.74,0.65c0.15,0.35,0.26,0.83,0.34,1.44
				c0.31,2.28,0.54,4.65,0.74,6.95L149,27.21c-0.1,0.36-0.21,0.67-0.31,0.92c-0.11,0.25-0.24,0.45-0.39,0.59
				c-0.15,0.14-0.33,0.23-0.53,0.26c-0.21,0.03-0.46,0-0.76-0.07l-0.14,0.53l2.64,0.75c0.88,0.24,1.77,0.49,2.63,0.8l0.17-0.52
				c-0.28-0.1-0.5-0.22-0.66-0.33c-0.16-0.11-0.27-0.27-0.33-0.45c-0.06-0.18-0.07-0.41-0.03-0.69c0.04-0.28,0.13-0.64,0.26-1.06
				l1.43-4.65c1.06-1.27,2.13-2.47,3.23-3.7c0.67-0.73,1.24-1.25,1.72-1.55c0.48-0.3,0.87-0.41,1.17-0.35l0.18-0.52l-3.58-1.21
				l-0.16,0.52c0.42,0.14,0.68,0.32,0.79,0.54c0.1,0.22,0.11,0.47,0.02,0.74c-0.05,0.17-0.13,0.34-0.22,0.51
				c-0.09,0.17-0.24,0.38-0.44,0.62C154.72,19.95,153.79,21.03,152.86,22.15z"/>
			<path class="st2" d="M154.78,35.15c0.89-0.89,1.62-2.03,2.15-3.42c0.43-1.13,0.59-2.09,0.46-2.89c-0.13-0.8-0.46-1.3-1.01-1.47
				c-0.44-0.15-0.91-0.03-1.39,0.36c-0.48,0.39-0.83,0.91-1.05,1.56c-0.21,0.61-0.26,1.19-0.15,1.73c0.1,0.54,0.33,0.87,0.68,0.99
				c0.26,0.09,0.5,0.08,0.73-0.03c0.1-0.05,0.16-0.06,0.2-0.05c0.04,0.01,0.07,0.07,0.08,0.16c0.01,0.1-0.02,0.24-0.08,0.41
				c-0.3,0.81-0.75,1.55-1.33,2.23c-0.59,0.68-1.29,1.15-2.12,1.42l-0.22,0.65C152.87,36.61,153.89,36.02,154.78,35.15z"/>
			<path class="st2" d="M171.54,28.75l-0.14,2.64l-0.21,2.66c-0.16,1.77-0.35,3.52-0.57,5.25c1.18,0.64,2.3,1.4,3.43,2.12l0.31-0.49
				c-0.27-0.21-0.43-0.52-0.47-0.94c-0.02-0.29,0.04-0.93,0.18-1.95c0.39-2.63,0.64-5.19,0.85-7.84c0.91,0.15,1.74,0.07,2.5-0.24
				c1.19-0.5,2.18-1.37,3.01-2.71c0.67-1.09,1.04-2.19,1.07-3.29c0.03-1.09-0.26-2.01-0.84-2.75c-0.59-0.73-1.68-1.62-3.36-2.5
				c-2.17-1.11-4.31-2.25-6.54-3.21l-0.24,0.53c0.65,0.29,1.06,0.58,1.22,0.85c0.16,0.27,0.23,0.56,0.19,0.87
				c-0.03,0.31-0.3,0.98-0.8,2.02l-5.94,12.42c-0.49,1.03-0.85,1.67-1.05,1.89c-0.21,0.23-0.44,0.38-0.71,0.46
				c-0.27,0.08-0.68,0-1.22-0.25l-0.24,0.53c2.01,0.85,3.92,1.92,5.87,2.9l0.28-0.51c-0.52-0.27-0.84-0.53-0.95-0.78
				c-0.11-0.26-0.13-0.54-0.08-0.84c0.06-0.3,0.35-0.96,0.88-1.99l2.74-5.28L171.54,28.75z M176.6,19.64
				c1.1,0.54,1.67,1.36,1.78,2.3c0.1,0.95-0.26,2.12-1.06,3.52c-0.55,0.97-1.13,1.68-1.71,2.15c-0.59,0.47-1.15,0.69-1.71,0.68
				c-0.54-0.02-1.25-0.24-2.12-0.68l-0.53-0.27l4.28-8.25L176.6,19.64z"/>
			<path class="st2" d="M185.55,31.96l1.29,0.92c0.36,0.26,0.63,0.54,0.8,0.86c0.18,0.32,0.26,0.67,0.26,1.04
				c0.01,0.37-0.05,0.76-0.19,1.18c-0.13,0.41-0.32,0.84-0.57,1.29l0.29,0.23l2.7-3.47c-0.63-0.49-1.24-1-1.89-1.46l-1.94-1.38
				l-1.94-1.38l-2.01-1.29l-0.3,0.46c0.28,0.18,0.48,0.35,0.62,0.53c0.14,0.18,0.21,0.36,0.23,0.55c0.01,0.2-0.03,0.41-0.13,0.63
				s-0.25,0.49-0.44,0.78l-5.7,8.56c-0.19,0.28-0.37,0.53-0.54,0.72c-0.17,0.2-0.34,0.34-0.52,0.43c-0.18,0.09-0.37,0.12-0.57,0.09
				c-0.21-0.03-0.44-0.13-0.7-0.3l-0.3,0.46c0.59,0.38,1.19,0.75,1.78,1.14l1.72,1.23l1.72,1.22c0.56,0.42,1.11,0.87,1.66,1.3
				l3.36-3.59l-0.28-0.22c-0.53,0.41-1.02,0.73-1.47,0.98c-0.45,0.25-0.87,0.41-1.26,0.49c-0.39,0.08-0.75,0.08-1.09,0
				c-0.35-0.07-0.68-0.21-1-0.44l-0.44-0.31c-0.16-0.11-0.27-0.22-0.34-0.33c-0.07-0.1-0.1-0.23-0.08-0.38s0.08-0.31,0.18-0.51
				c0.11-0.2,0.26-0.44,0.47-0.73l2.59-3.67l0.39,0.28c0.42,0.3,0.63,0.72,0.63,1.27s-0.28,1.25-0.83,2.12l0.31,0.22l4.22-5.64
				l-0.33-0.23c-0.39,0.48-0.75,0.84-1.06,1.09c-0.32,0.25-0.62,0.42-0.9,0.5c-0.28,0.08-0.54,0.09-0.78,0.02
				c-0.24-0.07-0.47-0.18-0.7-0.35l-0.29-0.21L185.55,31.96z"/>
			<path class="st2" d="M187.73,40.11c-0.19,0.5-0.29,0.98-0.31,1.43c-0.02,0.45,0.03,0.88,0.13,1.3c0.1,0.42,0.22,0.83,0.36,1.22
				c0.14,0.39,0.27,0.77,0.4,1.14c0.13,0.37,0.21,0.73,0.25,1.09c0.03,0.36,0,0.72-0.1,1.08s-0.33,0.72-0.66,1.09
				c-0.42,0.47-0.86,0.75-1.32,0.88c-0.46,0.12-0.92-0.02-1.37-0.41c-0.32-0.28-0.54-0.62-0.67-1.03c-0.13-0.41-0.16-0.88-0.12-1.39
				c0.05-0.52,0.16-1.05,0.37-1.65c0.21-0.59,0.5-1.21,0.88-1.86l-0.31-0.24l-3.69,4.6l0.27,0.21c0.28-0.21,0.51-0.34,0.69-0.41
				c0.18-0.07,0.33-0.06,0.46,0.04c0.1,0.08,0.19,0.21,0.24,0.39c0.05,0.18,0.12,0.39,0.2,0.63c0.08,0.23,0.2,0.49,0.35,0.76
				c0.15,0.27,0.37,0.53,0.67,0.79c0.44,0.39,0.92,0.63,1.43,0.74c0.51,0.1,1.02,0.11,1.54,0c0.52-0.11,1.05-0.32,1.58-0.65
				c0.53-0.33,1.03-0.74,1.51-1.25c0.18-0.19,0.35-0.39,0.52-0.59c0.17-0.21,0.33-0.43,0.47-0.67c0.14-0.24,0.27-0.5,0.37-0.78
				c0.11-0.28,0.18-0.58,0.23-0.91c0.07-0.48,0.07-0.95-0.02-1.38c-0.09-0.44-0.22-0.85-0.36-1.27c-0.15-0.41-0.3-0.81-0.46-1.19
				c-0.16-0.39-0.27-0.76-0.35-1.12c-0.08-0.36-0.09-0.72-0.03-1.08c0.06-0.36,0.23-0.71,0.52-1.05c0.42-0.5,0.87-0.81,1.36-0.91
				c0.49-0.1,0.97,0.05,1.44,0.46c0.32,0.28,0.55,0.63,0.68,1.05s0.18,0.87,0.14,1.35c-0.04,0.49-0.15,0.99-0.36,1.54
				c-0.2,0.54-0.46,1.08-0.77,1.6l0.3,0.28l3.65-3.92l-0.31-0.3c-0.18,0.2-0.39,0.35-0.62,0.45c-0.23,0.1-0.41,0.08-0.54-0.04
				c-0.1-0.1-0.18-0.25-0.24-0.45c-0.06-0.21-0.14-0.44-0.24-0.71c-0.1-0.27-0.25-0.56-0.43-0.87c-0.18-0.31-0.45-0.62-0.8-0.92
				c-0.42-0.36-0.89-0.61-1.4-0.73c-0.5-0.12-1.02-0.12-1.56,0.01c-0.54,0.13-1.06,0.37-1.57,0.71c-0.52,0.35-0.98,0.79-1.42,1.33
				C188.24,39.07,187.92,39.6,187.73,40.11z"/>
			<path class="st2" d="M201.02,45.23l1.09,1.15c0.31,0.32,0.52,0.65,0.62,1c0.11,0.34,0.14,0.7,0.08,1.06
				c-0.06,0.36-0.2,0.74-0.41,1.12c-0.21,0.38-0.47,0.77-0.8,1.16l0.24,0.28l3.3-2.91c-1.02-1.22-2.15-2.35-3.23-3.5
				c-0.55-0.57-1.09-1.16-1.66-1.71l-1.73-1.65l-0.38,0.4c0.24,0.23,0.41,0.44,0.51,0.64c0.1,0.2,0.14,0.39,0.12,0.59
				c-0.02,0.2-0.1,0.39-0.24,0.6s-0.34,0.44-0.58,0.69l-7.2,7.34c-0.24,0.25-0.46,0.45-0.66,0.61c-0.2,0.16-0.4,0.27-0.59,0.33
				c-0.19,0.05-0.39,0.05-0.58-0.02c-0.19-0.07-0.4-0.21-0.63-0.42l-0.38,0.4l1.53,1.46c0.5,0.49,0.98,1.02,1.46,1.53
				c0.97,1.02,1.96,2.02,2.86,3.11l3.97-2.9l-0.23-0.27c-0.59,0.3-1.14,0.53-1.63,0.69c-0.49,0.16-0.93,0.24-1.33,0.25
				c-0.39,0-0.75-0.07-1.08-0.19c-0.33-0.13-0.62-0.34-0.9-0.62l-0.37-0.39c-0.13-0.14-0.22-0.27-0.27-0.39
				c-0.05-0.12-0.05-0.25-0.01-0.39c0.04-0.14,0.13-0.29,0.28-0.47c0.14-0.18,0.34-0.39,0.6-0.63l3.23-3.12l0.33,0.35
				c0.36,0.37,0.48,0.83,0.38,1.37c-0.1,0.54-0.51,1.18-1.21,1.93l0.26,0.27l5.2-4.76l-0.28-0.29c-0.47,0.4-0.89,0.69-1.25,0.88
				c-0.36,0.19-0.69,0.3-0.98,0.33c-0.29,0.03-0.54-0.01-0.77-0.13s-0.43-0.27-0.62-0.47l-0.25-0.26L201.02,45.23z"/>
			<path class="st2" d="M201.03,60.47l-1.51,1.95c-0.1,0.14-0.19,0.25-0.26,0.33c-0.08,0.08-0.15,0.14-0.22,0.2
				c-0.19,0.15-0.38,0.18-0.56,0.12c-0.18-0.06-0.4-0.26-0.66-0.59l-0.43,0.34c1.03,1.24,1.93,2.58,2.87,3.89l0.45-0.31
				c-0.16-0.22-0.16-0.51-0.02-0.87c0.14-0.36,0.47-0.86,0.96-1.5c1.43-1.75,2.84-3.54,4.22-5.35c1.36-1.8,2.7-3.63,4.01-5.49
				l-0.17-0.22c-4.04,1.56-7.95,3.19-11.85,5.01c-0.85,0.4-1.54,0.66-2.06,0.76c-0.52,0.11-0.92,0.05-1.21-0.18l-0.41,0.36
				c0.7,0.83,1.45,1.63,2.1,2.5l0.43-0.34c-0.22-0.28-0.35-0.56-0.38-0.82s0.1-0.52,0.41-0.77c0.1-0.09,0.23-0.18,0.39-0.28
				c0.16-0.1,0.33-0.2,0.52-0.29l1.59-0.72L201.03,60.47z M201.75,59.56l-1.47-1.87c1.42-0.62,2.87-1.24,4.32-1.83
				C203.66,57.11,202.71,58.34,201.75,59.56z"/>
			<path class="st2" d="M208.3,66.72l0.34,0.53c-1.37,1.96-2.84,3.9-4.33,5.79c0.59,1.06,1.24,2.09,1.79,3.18l0.48-0.26
				c-0.19-0.46,0.08-1.17,0.82-2.16c1.13-1.47,2.23-2.98,3.32-4.52c0.67,0.44,1.36,0.7,2.09,0.75s1.5-0.15,2.33-0.6
				c0.56-0.31,1.02-0.67,1.38-1.07c0.36-0.41,0.61-0.86,0.73-1.37c0.13-0.51,0.13-1.07,0.01-1.68c-0.13-0.6-0.37-1.27-0.81-1.96
				l-1.63-2.55c-0.54-0.85-1.08-1.7-1.68-2.51l-0.45,0.31c0.18,0.26,0.31,0.49,0.37,0.69c0.06,0.2,0.07,0.39,0.01,0.57
				c-0.06,0.18-0.17,0.35-0.34,0.51c-0.17,0.16-0.4,0.34-0.68,0.53l-8.64,5.8c-0.35,0.23-0.64,0.41-0.88,0.52
				c-0.24,0.11-0.46,0.17-0.64,0.17c-0.18,0-0.35-0.05-0.49-0.15c-0.14-0.1-0.29-0.26-0.44-0.46l-0.45,0.31
				c0.52,0.7,0.98,1.44,1.45,2.17l1.41,2.2l0.47-0.28c-0.13-0.23-0.21-0.44-0.26-0.61c-0.05-0.18-0.04-0.34,0.02-0.51
				c0.06-0.16,0.19-0.34,0.39-0.52c0.2-0.18,0.49-0.39,0.87-0.63L208.3,66.72z M214.67,62.7l0.29,0.45
				c0.47,0.72,0.59,1.39,0.32,2.01c-0.26,0.61-0.8,1.16-1.64,1.66c-0.36,0.21-0.73,0.39-1.11,0.53c-0.39,0.14-0.75,0.21-1.11,0.21
				c-0.36,0-0.69-0.08-1.01-0.23c-0.32-0.15-0.6-0.41-0.83-0.78l-0.28-0.44L214.67,62.7z"/>
			<path class="st2" d="M224.76,79.08l-0.16-0.4c-0.33,0.07-0.58,0.08-0.75,0c-0.18-0.07-0.3-0.2-0.37-0.38
				c-0.05-0.15-0.08-0.32-0.06-0.52c0.02-0.2,0.03-0.43,0.04-0.7s-0.02-0.59-0.08-0.95s-0.19-0.78-0.41-1.26
				c-0.36-0.78-0.87-1.42-1.56-1.88c-0.71-0.45-1.52-0.74-2.42-0.86c-0.9-0.12-1.86-0.07-2.89,0.15c-1.03,0.22-2.05,0.6-3.09,1.14
				c-1.03,0.54-1.9,1.14-2.64,1.79c-0.73,0.65-1.29,1.34-1.69,2.05c-0.4,0.72-0.62,1.44-0.66,2.18c-0.06,0.75,0.06,1.5,0.41,2.26
				c0.29,0.65,0.74,1.16,1.34,1.52c0.61,0.36,1.37,0.63,2.34,0.78l1.3-0.53c-0.51-0.06-0.96-0.14-1.34-0.24
				c-0.39-0.1-0.74-0.22-1.05-0.36c-0.31-0.15-0.57-0.32-0.77-0.53c-0.21-0.21-0.38-0.45-0.51-0.74c-0.39-0.86-0.16-1.76,0.7-2.72
				c0.85-0.96,2.2-1.9,4.12-2.84c0.92-0.45,1.79-0.8,2.63-1.05c0.83-0.25,1.58-0.39,2.26-0.4c0.67-0.02,1.25,0.09,1.74,0.33
				c0.49,0.24,0.85,0.61,1.08,1.12c0.17,0.37,0.21,0.78,0.13,1.2c-0.08,0.43-0.25,0.85-0.52,1.27c-0.26,0.42-0.62,0.83-1.06,1.23
				c-0.43,0.39-0.91,0.75-1.43,1.05l0.15,0.38L224.76,79.08z"/>
			<path class="st2" d="M220.05,90.71l-4.53,1.39c-0.38,0.12-0.7,0.2-0.96,0.25c-0.26,0.05-0.47,0.06-0.65,0.02
				c-0.17-0.04-0.31-0.12-0.43-0.26c-0.12-0.14-0.22-0.34-0.31-0.6l-0.52,0.17c0.29,0.79,0.5,1.61,0.73,2.43l0.69,2.43l0.53-0.14
				c-0.06-0.21-0.09-0.4-0.09-0.56c0-0.16,0.06-0.31,0.17-0.44c0.11-0.13,0.28-0.26,0.54-0.38c0.25-0.12,0.59-0.24,1.02-0.36
				l9.79-2.71c0.37-0.1,0.69-0.18,0.96-0.22s0.49-0.04,0.68,0.02c0.19,0.06,0.34,0.18,0.47,0.35c0.12,0.18,0.23,0.44,0.32,0.77
				l0.53-0.14l-0.82-2.89c-0.28-0.96-0.53-1.93-0.87-2.87l-0.52,0.17c0.1,0.28,0.14,0.52,0.14,0.72c0,0.19-0.06,0.36-0.18,0.52
				c-0.12,0.15-0.31,0.28-0.55,0.39c-0.25,0.11-0.57,0.23-0.96,0.35l-4.07,1.25c-0.39-1.27-0.84-2.52-1.26-3.78l4.02-1.41
				c0.34-0.12,0.63-0.21,0.88-0.26c0.26-0.06,0.48-0.07,0.68-0.03c0.2,0.04,0.36,0.14,0.51,0.3s0.26,0.39,0.37,0.7l0.52-0.18
				l-0.97-2.86l-1.1-2.81l-0.51,0.2c0.12,0.31,0.18,0.57,0.2,0.78c0.01,0.21-0.03,0.4-0.14,0.56s-0.28,0.31-0.51,0.44
				c-0.23,0.13-0.54,0.26-0.92,0.41l-9.49,3.62c-0.73,0.28-1.27,0.39-1.6,0.34c-0.34-0.05-0.57-0.25-0.71-0.61l-0.51,0.2
				c0.3,0.76,0.61,1.52,0.9,2.28l0.78,2.33l0.52-0.17c-0.08-0.23-0.12-0.44-0.12-0.61c0-0.17,0.05-0.33,0.16-0.47
				c0.1-0.14,0.28-0.28,0.52-0.4c0.24-0.13,0.57-0.26,0.98-0.41l4.47-1.57C219.22,88.22,219.67,89.45,220.05,90.71z"/>
			<path class="st2" d="M220.45,106.32l-2.29,0.96c-0.16,0.08-0.29,0.13-0.39,0.16s-0.2,0.05-0.29,0.06
				c-0.24,0.03-0.42-0.03-0.54-0.17c-0.13-0.15-0.21-0.43-0.26-0.84l-0.54,0.08c0.19,1.6,0.43,3.19,0.58,4.8l0.54-0.05
				c-0.02-0.26,0.13-0.52,0.43-0.77c0.3-0.25,0.82-0.52,1.56-0.83c4.19-1.64,8.35-3.44,12.5-5.4l-0.03-0.27
				c-4.27-0.63-8.57-1.11-12.82-1.46c-0.93-0.07-1.65-0.19-2.15-0.35s-0.81-0.41-0.94-0.76l-0.54,0.11l0.57,3.21l0.54-0.09
				c-0.06-0.36-0.05-0.65,0.05-0.9c0.1-0.24,0.34-0.4,0.73-0.47c0.13-0.03,0.29-0.04,0.48-0.05c0.18-0.01,0.38-0.01,0.59,0
				l1.75,0.16C220.14,104.42,220.35,105.36,220.45,106.32z M221.53,105.9c-0.08-0.79-0.26-1.56-0.39-2.34
				c1.56,0.16,3.12,0.33,4.69,0.52C224.41,104.69,222.98,105.3,221.53,105.9z"/>
			<path class="st2" d="M232.36,114.31l-0.33-4.32l-0.54,0.05c0,0.11-0.01,0.22-0.04,0.34c-0.02,0.11-0.07,0.24-0.15,0.36
				c-0.08,0.13-0.18,0.26-0.32,0.41c-0.14,0.15-0.33,0.31-0.57,0.5l-0.5,0.42l-10.36,0.8c-0.74,0.06-1.29-0.01-1.66-0.19
				s-0.57-0.49-0.6-0.92l-0.54,0.05l0.26,3.43l0.54-0.03c-0.03-0.3,0.01-0.56,0.09-0.76c0.08-0.2,0.21-0.36,0.39-0.49
				c0.18-0.13,0.4-0.22,0.67-0.28c0.27-0.06,0.59-0.11,0.96-0.13l9.18-0.65c-0.98,0.71-1.96,1.41-2.95,2.09
				c-0.99,0.68-2.02,1.34-3.03,1.98c-2.03,1.28-4.06,2.49-6.1,3.63l-0.01,0.35l13.05,0.06c0.75,0,1.3,0.13,1.64,0.37
				c0.34,0.24,0.51,0.62,0.5,1.11l0.55,0.01l0.05-1.97l-0.05-1.97l-0.55,0.01c0.01,0.34-0.04,0.61-0.14,0.83
				c-0.1,0.22-0.24,0.39-0.43,0.52c-0.19,0.13-0.42,0.21-0.68,0.26c-0.26,0.05-0.56,0.08-0.88,0.08l-6.28,0.02
				C226.48,118.43,229.47,116.45,232.36,114.31z"/>
			<path class="st2" d="M217.1,122.66l-0.06,2.65l-0.2,2.64c-0.06,0.8,0.08,1.53,0.43,2.2c0.32,0.66,0.78,1.25,1.41,1.76
				c0.62,0.51,1.38,0.94,2.27,1.29c0.89,0.34,1.85,0.59,2.9,0.73c1.25,0.16,2.38,0.18,3.37,0.03c1-0.15,1.86-0.44,2.57-0.87
				c0.71-0.44,1.3-1,1.71-1.69c0.39-0.7,0.63-1.5,0.7-2.4l0.22-2.99l0.08-3l-0.55-0.02l0,0.16c0,0.25-0.04,0.46-0.1,0.63
				c-0.06,0.17-0.17,0.31-0.32,0.4c-0.16,0.1-0.37,0.16-0.64,0.2c-0.27,0.04-0.62,0.05-1.05,0.03l-10.15-0.37
				c-0.44-0.02-0.79-0.05-1.06-0.11c-0.26-0.06-0.47-0.14-0.61-0.25c-0.14-0.11-0.24-0.25-0.28-0.41c-0.05-0.17-0.07-0.37-0.06-0.6
				L217.1,122.66z M231.2,127.42l-0.04,0.55c-0.05,0.62-0.26,1.14-0.63,1.55c-0.37,0.42-0.88,0.75-1.5,0.98s-1.37,0.37-2.2,0.42
				c-0.84,0.05-1.75,0.03-2.72-0.07c-2.18-0.22-3.76-0.64-4.75-1.24c-0.98-0.59-1.45-1.33-1.38-2.22c0.01-0.16,0.04-0.3,0.08-0.4
				c0.05-0.1,0.13-0.18,0.25-0.24c0.12-0.05,0.28-0.09,0.49-0.1c0.21-0.01,0.49,0,0.83,0.02L231.2,127.42z"/>
			<path class="st2" d="M232.83,157.39c-0.49-0.22-0.82-0.46-0.99-0.7c-0.18-0.25-0.22-0.49-0.15-0.72
				c0.06-0.18,0.38-0.54,0.97-1.11c0.98-0.98,1.59-2.02,1.9-3.08c0.21-0.72,0.28-1.46,0.23-2.2c-0.06-0.75-0.28-1.51-0.62-2.27
				c-0.67-1.52-1.82-2.84-3.43-3.94c-1.6-1.1-3.43-1.84-5.41-2.23c-1.89-0.38-3.7-0.42-5.51-0.18c-1.8,0.24-3.26,0.78-4.39,1.6
				c-0.56,0.41-1.02,0.89-1.37,1.42c-0.39,0.52-0.67,1.11-0.86,1.76c-0.28,0.99-0.26,1.94,0.06,2.85c0.28,0.91,0.9,1.89,1.84,3
				l1.73,0.59c-1.11-1.2-1.83-2.19-2.17-3.01c-0.36-0.83-0.44-1.63-0.22-2.41c0.27-0.96,0.88-1.62,1.82-2.03
				c0.93-0.41,2.17-0.59,3.76-0.52c1.58,0.07,3.3,0.32,5.15,0.76c1.88,0.45,3.53,1.07,4.96,1.9c1.1,0.64,1.97,1.46,2.48,2.43
				c0.52,0.97,0.64,1.93,0.38,2.87c-0.33,1.11-1.07,1.99-2.35,2.53c-1.27,0.55-2.86,0.67-4.78,0.36l-0.13,0.4l6.96,2.37
				L232.83,157.39z"/>
			<path class="st2" d="M213.8,158.65l-2.46-0.36c-0.18-0.02-0.31-0.04-0.41-0.07c-0.1-0.03-0.2-0.06-0.28-0.1
				c-0.22-0.1-0.34-0.24-0.37-0.42c-0.03-0.19,0.04-0.47,0.19-0.86l-0.51-0.21c-0.62,1.49-1.32,2.94-1.97,4.41l0.49,0.23
				c0.11-0.24,0.36-0.39,0.74-0.45c0.39-0.06,0.98-0.03,1.77,0.1c4.43,0.75,8.97,1.38,13.5,1.83l0.1-0.26
				c-3.35-2.75-6.75-5.37-10.21-7.85c-0.76-0.54-1.31-1.01-1.66-1.41c-0.36-0.4-0.51-0.78-0.45-1.14l-0.52-0.18
				c-0.32,1.04-0.77,2.04-1.15,3.05l0.51,0.2c0.13-0.34,0.31-0.58,0.52-0.74c0.21-0.16,0.5-0.16,0.88-0.03
				c0.13,0.05,0.27,0.11,0.44,0.2c0.16,0.09,0.33,0.19,0.51,0.31l1.41,1.03L213.8,158.65z M214.94,158.84l0.87-2.21
				c1.25,0.93,2.5,1.89,3.73,2.86C218.01,159.28,216.47,159.07,214.94,158.84z"/>
			<path class="st2" d="M211.96,168.07c-0.17,0.36-0.37,0.7-0.57,1.04c-0.37,0.64-0.59,1.25-0.66,1.84
				c-0.07,0.58-0.02,1.13,0.15,1.64c0.17,0.51,0.44,0.98,0.83,1.42c0.39,0.43,0.85,0.81,1.39,1.14c0.66,0.4,1.28,0.64,1.85,0.7
				c0.57,0.07,1.11,0.01,1.59-0.18c0.49-0.18,0.92-0.47,1.31-0.86c0.39-0.39,0.72-0.83,1.01-1.33c0.52-0.86,0.95-1.78,1.42-2.67
				l1.38-2.69l-0.49-0.24c-0.26,0.5-0.56,0.8-0.9,0.89c-0.35,0.09-0.83-0.02-1.47-0.34l-9.25-4.64c-0.37-0.19-0.67-0.36-0.89-0.52
				c-0.22-0.16-0.38-0.32-0.48-0.48c-0.1-0.16-0.13-0.32-0.1-0.5c0.03-0.18,0.09-0.37,0.21-0.59l-0.49-0.24l-1.19,2.32
				c-0.4,0.77-0.78,1.56-1.23,2.3l0.48,0.26c0.14-0.23,0.28-0.4,0.43-0.52c0.15-0.12,0.31-0.2,0.49-0.22
				c0.18-0.02,0.41,0.02,0.66,0.1c0.26,0.09,0.56,0.23,0.92,0.42L211.96,168.07z M218.57,171.62l-0.19,0.38
				c-0.2,0.38-0.45,0.65-0.71,0.83c-0.27,0.18-0.56,0.28-0.87,0.31s-0.65-0.03-1.02-0.16c-0.37-0.13-0.76-0.31-1.17-0.54
				c-0.94-0.54-1.56-1.1-1.86-1.68c-0.3-0.58-0.29-1.14,0.01-1.67l0.24-0.47L218.57,171.62z"/>
			<path class="st2" d="M204.65,175.54l-2.35-0.83c-0.17-0.05-0.3-0.1-0.39-0.15c-0.1-0.05-0.18-0.1-0.26-0.15
				c-0.2-0.13-0.29-0.3-0.28-0.49c0-0.19,0.14-0.45,0.36-0.8l-0.45-0.31c-0.91,1.33-1.86,2.63-2.79,3.95l0.44,0.33
				c0.16-0.22,0.42-0.31,0.82-0.3c0.39,0.02,0.96,0.17,1.71,0.44c4.2,1.6,8.52,3.09,12.89,4.42l0.15-0.23
				c-2.75-3.35-5.59-6.58-8.49-9.69c-0.64-0.68-1.09-1.25-1.35-1.71c-0.26-0.46-0.34-0.86-0.21-1.21l-0.47-0.28
				c-0.52,0.96-1.16,1.84-1.73,2.77l0.46,0.3c0.19-0.3,0.41-0.51,0.65-0.62c0.24-0.11,0.53-0.06,0.86,0.15
				c0.11,0.07,0.24,0.17,0.39,0.28c0.14,0.12,0.29,0.25,0.44,0.41l1.18,1.29L204.65,175.54z M205.73,175.95l1.28-2
				c1.05,1.16,2.08,2.34,3.11,3.53C208.65,176.98,207.18,176.47,205.73,175.95z"/>
			<path class="st2" d="M203.64,195.06l0.3-0.31c-0.21-0.27-0.31-0.5-0.32-0.68c-0.01-0.19,0.05-0.35,0.18-0.5
				c0.1-0.12,0.25-0.21,0.44-0.28c0.18-0.06,0.4-0.15,0.65-0.26c0.25-0.11,0.52-0.27,0.83-0.47c0.31-0.2,0.63-0.5,0.97-0.89
				c0.56-0.65,0.93-1.37,1.03-2.22c0.11-0.83,0.03-1.68-0.23-2.55c-0.27-0.87-0.72-1.72-1.34-2.55c-0.63-0.84-1.41-1.61-2.34-2.32
				c-0.92-0.7-1.84-1.24-2.74-1.63c-0.91-0.39-1.76-0.61-2.58-0.67c-0.82-0.06-1.57,0.05-2.26,0.32c-0.68,0.28-1.33,0.7-1.86,1.33
				c-0.47,0.54-0.74,1.16-0.82,1.86c-0.08,0.7,0.03,1.53,0.29,2.46l1.03,0.96c-0.16-0.49-0.28-0.92-0.35-1.32
				c-0.08-0.4-0.13-0.78-0.12-1.11c0-0.34,0.05-0.65,0.16-0.92c0.1-0.28,0.25-0.53,0.46-0.77c0.62-0.72,1.54-0.88,2.77-0.52
				c1.21,0.35,2.65,1.19,4.3,2.53c0.79,0.65,1.48,1.29,2.06,1.94c0.58,0.65,1.02,1.28,1.33,1.89c0.3,0.6,0.44,1.17,0.43,1.71
				c-0.01,0.54-0.2,1.02-0.57,1.45c-0.27,0.31-0.61,0.52-1.04,0.62c-0.42,0.11-0.88,0.13-1.37,0.07c-0.49-0.06-1-0.2-1.55-0.43
				c-0.54-0.23-1.06-0.51-1.55-0.85l-0.28,0.29L203.64,195.06z"/>
			<path class="st2" d="M188.26,189.05c0.19-0.18,0.36-0.31,0.52-0.39c0.16-0.08,0.33-0.1,0.5-0.07c0.18,0.03,0.37,0.13,0.58,0.3
				c0.21,0.16,0.47,0.4,0.78,0.72l7.1,7.26c0.33,0.34,0.57,0.62,0.72,0.85c0.15,0.23,0.23,0.44,0.25,0.62
				c0.02,0.19-0.03,0.36-0.14,0.53c-0.11,0.16-0.27,0.34-0.47,0.54l0.38,0.4c0.72-0.7,1.47-1.38,2.17-2.09l2.09-2.18l-0.4-0.38
				c-0.18,0.2-0.36,0.35-0.52,0.46c-0.16,0.11-0.34,0.16-0.53,0.15c-0.19-0.01-0.4-0.09-0.63-0.24c-0.23-0.15-0.52-0.39-0.85-0.72
				l-7.29-7.06c-0.31-0.31-0.55-0.57-0.72-0.79c-0.16-0.22-0.26-0.42-0.3-0.59c-0.03-0.18-0.01-0.34,0.07-0.49
				c0.08-0.16,0.21-0.32,0.39-0.51l-0.4-0.38l-1.79,1.88c-0.61,0.61-1.25,1.2-1.87,1.8L188.26,189.05z"/>
			<path class="st2" d="M190.42,206.76l1.98-1.56c0.66-0.52,1.28-1.09,1.92-1.63c1.27-1.1,2.56-2.19,3.75-3.37l-3.18-3.39l-0.3,0.28
				c0.25,0.31,0.48,0.65,0.69,1.01c0.21,0.37,0.37,0.74,0.47,1.11c0.1,0.37,0.13,0.72,0.09,1.06c-0.04,0.34-0.2,0.61-0.46,0.84
				l-0.69,0.6l-7.59-8.6c-0.3-0.34-0.53-0.64-0.68-0.89c-0.15-0.25-0.23-0.47-0.26-0.67c-0.03-0.19,0.01-0.37,0.11-0.53
				c0.1-0.16,0.24-0.32,0.42-0.48l-0.37-0.41l-2.02,1.75c-0.68,0.58-1.33,1.19-2.05,1.72l0.34,0.42c0.23-0.18,0.44-0.3,0.64-0.35
				c0.2-0.05,0.38-0.05,0.58,0.03c0.19,0.08,0.4,0.21,0.61,0.41c0.21,0.2,0.45,0.46,0.72,0.78l7.31,8.76
				c-0.2,0.17-0.39,0.34-0.59,0.5c-0.3,0.23-0.62,0.36-0.96,0.38c-0.34,0.02-0.69-0.04-1.04-0.18c-0.35-0.14-0.69-0.34-1.03-0.61
				c-0.34-0.27-0.66-0.57-0.95-0.9l-0.32,0.26L190.42,206.76z"/>
			<path class="st2" d="M180.81,205.48c1.37,0.93,2.77,1.84,4.18,2.73c0.18,0.1,0.33,0.2,0.43,0.29c0.1,0.09,0.18,0.19,0.25,0.28
				c0.05,0.07,0.09,0.14,0.12,0.21c0.03,0.08,0.03,0.16,0.02,0.25c-0.02,0.09-0.08,0.19-0.16,0.31c-0.09,0.11-0.23,0.24-0.42,0.37
				l0.31,0.45c1.5-1.08,3.04-2.12,4.47-3.29l-0.34-0.43c-0.28,0.22-0.59,0.27-0.96,0.17c-0.36-0.1-0.81-0.31-1.33-0.64
				c-1.99-1.22-3.96-2.5-5.87-3.8l-2.22-3.1c-0.22-0.31-0.39-0.58-0.52-0.82c-0.13-0.24-0.2-0.47-0.22-0.67
				c-0.02-0.21,0.03-0.4,0.13-0.57c0.11-0.18,0.28-0.36,0.53-0.55l-0.33-0.44l-2.24,1.6c-0.38,0.26-0.74,0.54-1.13,0.79l-1.16,0.74
				l0.3,0.46c0.26-0.15,0.48-0.26,0.67-0.31c0.19-0.05,0.38-0.05,0.56,0.03c0.18,0.07,0.37,0.21,0.56,0.42
				c0.19,0.21,0.41,0.5,0.67,0.88l2.72,4.03c0.31,1.6,0.59,3.21,0.84,4.83c0.15,0.98,0.19,1.76,0.13,2.32
				c-0.06,0.56-0.22,0.94-0.46,1.13l0.29,0.47l3.18-2.04l-0.31-0.46c-0.37,0.24-0.68,0.33-0.91,0.28s-0.43-0.21-0.59-0.45
				c-0.1-0.15-0.18-0.31-0.26-0.49c-0.08-0.18-0.15-0.42-0.21-0.73C181.33,208.28,181.09,206.89,180.81,205.48z"/>
			<path class="st2" d="M163.28,219.91c-0.18,0.93-0.08,1.87,0.3,2.82c0.36,0.9,0.89,1.68,1.6,2.32c0.72,0.64,1.5,1.03,2.36,1.15
				c0.85,0.11,2.1-0.23,3.74-0.96l1.71-0.78l1.68-0.85l3.35-1.72l-0.28-0.51c-0.64,0.33-1.11,0.47-1.42,0.44s-0.59-0.17-0.81-0.38
				c-0.23-0.22-0.61-0.83-1.14-1.85l-6.34-12.23c-0.53-1.02-0.82-1.68-0.88-1.98c-0.06-0.3-0.03-0.58,0.07-0.83
				c0.1-0.26,0.42-0.52,0.95-0.79l-0.28-0.51c-1.94,0.96-3.83,2.03-5.83,2.87c-0.83,0.37-1.49,0.85-1.99,1.42
				c-0.52,0.57-0.89,1.2-1.1,1.97c-0.34,1.26-0.24,2.64,0.34,4.12c0.55,1.41,1.34,2.42,2.42,3.01c0.75,0.41,1.86,0.64,3.28,0.49
				C164.05,218.1,163.45,218.97,163.28,219.91z M165.78,215.4c-0.62-0.06-1.22-0.39-1.81-0.99c-0.59-0.6-1.08-1.35-1.47-2.26
				c-0.34-0.8-0.54-1.57-0.61-2.31c-0.07-0.74,0.02-1.37,0.26-1.89c0.24-0.52,0.59-0.88,1.06-1.09c0.31-0.14,0.61-0.12,0.9,0.07
				c0.28,0.18,0.55,0.53,0.79,1.04l0.33,0.71l2.94,6.14C167.2,215.27,166.4,215.47,165.78,215.4z M172.31,223.46
				c-1.01,0.47-1.81,0.67-2.4,0.59c-0.59-0.08-1.12-0.34-1.61-0.78c-0.49-0.44-0.91-1.09-1.29-1.95c-0.38-0.86-0.57-1.62-0.57-2.28
				c-0.01-0.66,0.14-1.24,0.44-1.74c0.3-0.5,0.9-0.96,1.82-1.37L172.31,223.46z"/>
			<path class="st2" d="M150.1,226.59c1.31-0.34,2.61-0.72,3.9-1.09l-0.16-0.52c-0.31,0.09-0.59,0.12-0.83,0.09
				c-0.23-0.03-0.44-0.13-0.62-0.29c-0.18-0.16-0.33-0.39-0.47-0.68c-0.13-0.29-0.26-0.65-0.38-1.07l-1.75-6.32
				c-0.4-1.44-0.51-2.59-0.34-3.45c0.16-0.86,0.63-1.4,1.42-1.62c0.77-0.2,1.41-0.12,1.97,0.38c0.55,0.49,1.03,1.33,1.43,2.51
				l2.46,7.4c0.23,0.68,0.29,1.22,0.18,1.59c-0.11,0.38-0.41,0.65-0.91,0.82l0.17,0.52l2.85-0.96c0.95-0.32,1.9-0.64,2.83-1.02
				l-0.19-0.51c-0.54,0.21-0.97,0.23-1.27,0.05c-0.31-0.19-0.57-0.58-0.79-1.18l-2.67-7.36c-0.31-0.86-0.68-1.6-1.09-2.2
				c-0.41-0.6-0.86-1.07-1.35-1.41c-0.49-0.34-1.01-0.54-1.56-0.61c-0.55-0.07-1.14,0-1.74,0.21c-1.19,0.36-1.96,1.1-2.32,2.29
				c-0.36,1.18-0.28,2.79,0.26,4.81l1.69,6.27c0.12,0.45,0.2,0.84,0.23,1.17c0.03,0.33,0.01,0.6-0.05,0.82
				c-0.07,0.22-0.18,0.4-0.35,0.53c-0.16,0.13-0.38,0.24-0.65,0.3L150.1,226.59z"/>
			<path class="st2" d="M140.99,213.41c0.26-0.05,0.47-0.06,0.65-0.03c0.18,0.02,0.33,0.1,0.46,0.22c0.13,0.13,0.24,0.31,0.33,0.57
				s0.18,0.59,0.27,1.02l2.05,9.95c0.1,0.46,0.14,0.83,0.15,1.11c0,0.28-0.04,0.5-0.13,0.66c-0.09,0.16-0.23,0.28-0.41,0.36
				c-0.18,0.08-0.41,0.14-0.69,0.19l0.1,0.54c0.49-0.09,0.99-0.17,1.49-0.27l1.47-0.34l2.95-0.68l-0.13-0.53
				c-0.26,0.06-0.49,0.09-0.69,0.1c-0.2,0-0.37-0.05-0.53-0.17c-0.16-0.11-0.29-0.3-0.4-0.55c-0.11-0.25-0.23-0.61-0.34-1.06
				l-2.33-9.89c-0.1-0.43-0.16-0.78-0.18-1.05c-0.02-0.28,0-0.49,0.07-0.66c0.07-0.16,0.17-0.29,0.33-0.37
				c0.15-0.08,0.35-0.16,0.6-0.21l-0.13-0.53l-2.53,0.58l-1.27,0.29c-0.42,0.09-0.85,0.16-1.28,0.23L140.99,213.41z"/>
			<path class="st2" d="M132.3,219.67l0.39-0.03c0.05-0.61,0.14-1.19,0.26-1.73c0.11-0.54,0.28-1.03,0.49-1.46
				c0.21-0.43,0.48-0.78,0.8-1.05s0.72-0.44,1.2-0.5l0.47-0.06c0.32-0.04,0.56,0.01,0.72,0.16c0.16,0.15,0.28,0.47,0.35,0.96
				l1.48,10.24c0.07,0.47,0.09,0.84,0.08,1.12c-0.01,0.28-0.08,0.5-0.21,0.66c-0.13,0.16-0.31,0.27-0.55,0.35
				c-0.24,0.07-0.55,0.13-0.93,0.18l0.07,0.54c1.08-0.15,2.17-0.26,3.24-0.44l3.22-0.57l-0.1-0.54c-0.28,0.05-0.52,0.08-0.73,0.08
				c-0.21,0-0.39-0.06-0.54-0.17c-0.15-0.12-0.28-0.31-0.39-0.57c-0.11-0.26-0.2-0.63-0.28-1.1l-1.72-9.98
				c-0.07-0.39-0.1-0.72-0.1-0.99c0-0.27,0.03-0.49,0.11-0.67c0.08-0.18,0.2-0.31,0.36-0.41c0.16-0.1,0.38-0.17,0.64-0.22l-0.1-0.54
				c-2.75,0.54-5.53,0.89-8.32,1.19L132.3,219.67z"/>
			<path class="st2" d="M131.44,214.18c-1.76,0.12-3.52,0.31-5.29,0.31c-0.8,0.02-1.52,0.23-2.14,0.65
				c-0.62,0.42-1.15,0.96-1.59,1.63c-0.44,0.67-0.78,1.47-1.03,2.38c-0.24,0.92-0.38,1.9-0.4,2.96c-0.03,1.26,0.08,2.38,0.34,3.36
				c0.26,0.98,0.64,1.8,1.15,2.47c0.51,0.68,1.14,1.16,1.87,1.48s1.56,0.47,2.46,0.45c2-0.01,3.99-0.22,5.98-0.36l-0.05-0.54
				l-0.15,0.01c-0.25,0.02-0.46,0-0.64-0.04c-0.18-0.05-0.33-0.14-0.44-0.28c-0.11-0.14-0.2-0.35-0.27-0.62
				c-0.07-0.27-0.12-0.62-0.15-1.04l-0.75-10.13c-0.03-0.44-0.03-0.79-0.01-1.06c0.03-0.27,0.09-0.48,0.18-0.63
				c0.09-0.16,0.22-0.26,0.38-0.33c0.16-0.06,0.36-0.1,0.59-0.12L131.44,214.18z M128.26,228.73l-0.55,0.01
				c-0.62,0.02-1.16-0.14-1.62-0.47c-0.46-0.33-0.84-0.79-1.14-1.4c-0.3-0.6-0.52-1.32-0.67-2.15c-0.15-0.83-0.22-1.74-0.23-2.72
				c-0.02-2.19,0.22-3.81,0.71-4.85c0.49-1.04,1.16-1.57,2.05-1.59c0.17,0,0.3,0.01,0.41,0.05c0.1,0.03,0.19,0.11,0.26,0.22
				c0.07,0.11,0.12,0.27,0.15,0.48c0.03,0.21,0.05,0.49,0.07,0.83L128.26,228.73z"/>
			<path class="st2" d="M115.01,214.76c0.26,0.02,0.47,0.06,0.64,0.13c0.17,0.06,0.3,0.18,0.39,0.33c0.09,0.15,0.15,0.36,0.16,0.63
				c0.02,0.27,0.01,0.62-0.02,1.06l-0.71,10.13c-0.03,0.47-0.08,0.83-0.16,1.1c-0.07,0.27-0.17,0.47-0.3,0.6
				c-0.13,0.14-0.29,0.22-0.49,0.25c-0.2,0.03-0.44,0.03-0.72,0.01l-0.05,0.54l3.01,0.23c1,0.09,2.01,0.07,3.02,0.11l0.02-0.55
				c-0.27-0.01-0.5-0.03-0.69-0.08c-0.19-0.05-0.35-0.15-0.46-0.29c-0.12-0.15-0.2-0.36-0.24-0.63s-0.05-0.65-0.03-1.11l0.44-10.15
				c0.02-0.44,0.06-0.79,0.11-1.06c0.05-0.27,0.14-0.48,0.25-0.62c0.11-0.14,0.25-0.24,0.41-0.28s0.38-0.06,0.63-0.05l0.02-0.55
				c-0.87-0.04-1.73-0.01-2.6-0.09l-2.59-0.2L115.01,214.76z"/>
			<path class="st2" d="M109.37,229.08l2.15,0.27c0.72,0.09,1.44,0.12,2.16,0.18l0.05-0.54c-0.11-0.02-0.22-0.05-0.33-0.09
				c-0.11-0.04-0.22-0.1-0.33-0.2c-0.11-0.09-0.23-0.22-0.35-0.38c-0.12-0.16-0.25-0.37-0.39-0.63l-0.32-0.56l1.06-10.34
				c0.08-0.74,0.23-1.27,0.48-1.6c0.24-0.34,0.58-0.49,1.02-0.46l0.05-0.54c-1.15-0.06-2.28-0.23-3.41-0.37l-0.07,0.54
				c0.3,0.04,0.54,0.12,0.72,0.24c0.18,0.12,0.32,0.28,0.41,0.49s0.15,0.44,0.16,0.72c0.01,0.28,0,0.6-0.04,0.96l-1,9.15
				c-1.05-2.21-2.03-4.42-2.93-6.61c-0.9-2.19-1.71-4.48-2.46-6.7l-0.34-0.06l-2.41,12.83c-0.14,0.74-0.36,1.26-0.66,1.56
				c-0.31,0.3-0.7,0.41-1.19,0.32l-0.11,0.54l3.89,0.7l0.09-0.54c-0.33-0.06-0.59-0.16-0.79-0.3c-0.2-0.14-0.34-0.32-0.43-0.53
				c-0.09-0.21-0.13-0.45-0.13-0.72c0-0.27,0.03-0.57,0.08-0.88l1.11-6.18c0.62,1.63,1.29,3.28,1.99,4.92
				C107.83,225.86,108.58,227.47,109.37,229.08z"/>
			<path class="st2" d="M89.96,225.23l0.39,0.13c0.17-0.31,0.32-0.52,0.46-0.61c0.14-0.09,0.29-0.11,0.45-0.07
				c0.15,0.04,0.3,0.13,0.45,0.28c0.16,0.14,0.34,0.31,0.57,0.49c0.22,0.18,0.49,0.36,0.8,0.55c0.31,0.18,0.7,0.35,1.17,0.48
				c0.86,0.25,1.71,0.26,2.53-0.02c0.82-0.26,1.57-0.7,2.25-1.33c0.68-0.62,1.27-1.41,1.76-2.35c0.49-0.94,0.85-1.99,1.09-3.13
				c0.23-1.06,0.32-2.07,0.3-3.03c-0.02-0.96-0.18-1.82-0.47-2.59c-0.28-0.77-0.71-1.42-1.29-1.94c-0.28-0.27-0.61-0.48-0.98-0.67
				c-0.36-0.21-0.76-0.37-1.2-0.49c-0.67-0.19-1.36-0.27-2.05-0.23c-0.7,0.04-1.34,0.19-1.93,0.39l-1.13,3.55
				c-0.15,0.48-0.35,0.79-0.59,0.94c-0.24,0.15-0.56,0.16-0.94,0.03l-0.18,0.55c1.67,0.61,3.39,1.04,5.09,1.54l0.15-0.56
				c-0.48-0.13-0.78-0.34-0.92-0.59s-0.13-0.65,0.02-1.16l0.96-3.36c0.22-0.09,0.44-0.13,0.67-0.13s0.43,0.03,0.6,0.08
				c0.3,0.08,0.56,0.27,0.79,0.56c0.23,0.29,0.4,0.64,0.53,1.04c0.18,0.6,0.23,1.33,0.16,2.2c-0.07,0.87-0.26,1.95-0.59,3.26
				c-0.27,1.11-0.58,2.08-0.94,2.91c-0.36,0.84-0.75,1.53-1.18,2.07c-0.42,0.54-0.87,0.92-1.34,1.12c-0.47,0.21-0.94,0.25-1.42,0.11
				c-0.45-0.13-0.81-0.34-1.1-0.65c-0.28-0.3-0.5-0.68-0.65-1.13c-0.15-0.45-0.24-0.97-0.27-1.56c-0.03-0.59-0.03-1.23,0.02-1.94
				l-0.37-0.13L89.96,225.23z"/>
			<path class="st2" d="M80.14,222.53c2.15-1.91,3.79-4.45,5.03-7.55c1.26-3.14,1.85-6.12,1.89-8.9c0.06-2.82-0.34-4.9-1.27-6.24
				l-0.34,0.71c0.26,0.72,0.39,1.49,0.38,2.28c-0.02,1.15-0.25,2.56-0.69,4.24c-0.44,1.68-1.26,3.94-2.49,6.78
				c-1.3,3.01-2.47,5.28-3.52,6.8c-0.85,1.23-1.69,2.17-2.55,2.82c-0.62,0.47-1.44,0.85-2.47,1.17l-0.31,0.65
				C75.89,225.31,78.01,224.41,80.14,222.53z"/>
			<path class="st2" d="M66.42,204.76c1.2-1.21,2.18-2.09,2.94-2.61c0.76-0.53,1.44-0.84,2.04-0.92c0.6-0.08,1.19,0.06,1.77,0.43
				c0.3,0.2,0.6,0.39,0.92,0.56c0.53,0.31,0.84,0.54,0.93,0.7c0.12,0.24,0.14,0.5,0.06,0.8c-0.08,0.3-0.39,0.91-0.93,1.86
				l-6.75,11.71c-0.53,0.92-0.9,1.47-1.09,1.65c-0.28,0.25-0.54,0.39-0.78,0.41c-0.35,0.05-0.72-0.04-1.11-0.26l-0.59-0.34
				l-0.3,0.49c2.41,1.4,4.81,2.82,7.32,4.04l0.26-0.52l-0.46-0.23c-0.39-0.2-0.65-0.45-0.78-0.75c-0.13-0.3-0.17-0.59-0.12-0.86
				c0.05-0.28,0.34-0.9,0.85-1.85l6.57-12.32c0.5-0.94,0.84-1.5,1.02-1.69c0.25-0.27,0.48-0.44,0.69-0.49
				c0.31-0.09,0.62-0.05,0.96,0.12l0.38,0.2l0.26-0.52c-0.84-0.44-1.69-0.85-2.52-1.31l-2.46-1.42l-1.23-0.71l-1.19-0.77l-2.39-1.53
				l-4.58,5.89C66.19,204.6,66.3,204.68,66.42,204.76z"/>
			<path class="st2" d="M53.83,199.62c-0.42,0.97-0.65,1.9-0.67,2.79c-0.03,0.89,0.12,1.73,0.47,2.49c0.36,0.75,0.87,1.38,1.53,1.9
				c0.71,0.56,1.49,0.91,2.32,1.05c0.83,0.13,1.71,0.04,2.56-0.23c0.86-0.27,1.69-0.73,2.5-1.38s1.55-1.46,2.22-2.42
				c0.68-0.97,1.2-1.94,1.55-2.9c0.36-0.96,0.55-1.86,0.59-2.72c0.04-0.85-0.1-1.61-0.38-2.33c-0.28-0.72-0.72-1.32-1.35-1.82
				c-0.65-0.51-1.37-0.79-2.16-0.88c-0.78-0.1-1.58-0.02-2.4,0.23c-0.83,0.25-1.67,0.67-2.51,1.24c-0.84,0.57-1.62,1.26-2.34,2.07
				C54.89,197.7,54.25,198.66,53.83,199.62z M60.1,196.58c0.63-0.57,1.22-1.02,1.77-1.35c0.55-0.33,1.06-0.52,1.5-0.58
				c0.45-0.06,0.83,0.03,1.14,0.27c0.37,0.29,0.55,0.71,0.55,1.25c-0.01,0.54-0.14,1.14-0.39,1.8c-0.26,0.66-0.6,1.36-1.04,2.09
				c-0.44,0.73-0.91,1.43-1.42,2.1c-0.77,1.03-1.49,1.87-2.15,2.47c-0.66,0.61-1.27,1.04-1.8,1.31c-0.54,0.26-1.02,0.39-1.43,0.37
				c-0.41-0.02-0.76-0.14-1.03-0.36c-0.33-0.26-0.54-0.61-0.63-1.05s-0.05-0.98,0.13-1.59c0.18-0.61,0.51-1.31,0.98-2.09
				c0.47-0.78,1.1-1.64,1.87-2.57C58.82,197.84,59.47,197.15,60.1,196.58z"/>
			<path class="st2" d="M41.79,194.31l0.3,0.31c0.29-0.18,0.52-0.27,0.72-0.27c0.19,0,0.35,0.08,0.49,0.22
				c0.11,0.12,0.19,0.27,0.23,0.46c0.05,0.19,0.11,0.41,0.2,0.67c0.09,0.26,0.22,0.55,0.39,0.87c0.17,0.32,0.44,0.67,0.8,1.05
				c0.58,0.63,1.33,1.01,2.14,1.2c0.82,0.19,1.67,0.19,2.55,0c0.88-0.19,1.77-0.56,2.65-1.11c0.89-0.55,1.72-1.27,2.51-2.13
				c0.78-0.85,1.4-1.72,1.86-2.59c0.47-0.87,0.76-1.71,0.9-2.52c0.13-0.81,0.09-1.58-0.12-2.29c-0.21-0.72-0.62-1.34-1.18-1.96
				c-0.49-0.52-1.08-0.85-1.76-0.99c-0.69-0.14-1.51-0.11-2.49,0.09l-1.04,0.95c0.5-0.12,0.96-0.21,1.37-0.26
				c0.41-0.05,0.78-0.05,1.12-0.02c0.34,0.03,0.64,0.12,0.9,0.24c0.26,0.13,0.5,0.3,0.72,0.53c0.33,0.34,0.51,0.75,0.55,1.22
				c0.05,0.46-0.03,0.98-0.26,1.57c-0.46,1.18-1.42,2.54-2.9,4.07c-0.71,0.73-1.41,1.37-2.11,1.89c-0.7,0.52-1.36,0.91-1.99,1.16
				c-0.63,0.25-1.22,0.36-1.77,0.31c-0.53-0.06-1-0.29-1.38-0.7c-0.28-0.29-0.46-0.66-0.53-1.1c-0.07-0.44-0.05-0.9,0.05-1.38
				c0.1-0.49,0.29-0.99,0.56-1.5c0.27-0.52,0.59-1,0.97-1.47l-0.28-0.3L41.79,194.31z"/>
			<path class="st2" d="M46.09,181.76l1.49-1.99c0.1-0.14,0.18-0.26,0.26-0.33c0.07-0.08,0.15-0.14,0.22-0.2
				c0.19-0.15,0.37-0.19,0.56-0.13c0.18,0.06,0.4,0.26,0.66,0.59l0.43-0.34c-0.98-1.27-2.02-2.51-2.93-3.85l-0.44,0.32
				c0.16,0.22,0.16,0.51,0.02,0.88c-0.14,0.37-0.46,0.88-0.95,1.52c-2.79,3.54-5.46,7.18-8.04,10.96l0.17,0.22
				c3.97-1.59,7.94-3.36,11.79-5.21c0.85-0.41,1.53-0.67,2.04-0.79s0.91-0.05,1.2,0.18l0.41-0.36l-2.14-2.47l-0.42,0.35
				c0.24,0.27,0.37,0.54,0.41,0.8c0.04,0.26-0.09,0.52-0.39,0.78c-0.1,0.09-0.23,0.18-0.39,0.28c-0.16,0.1-0.33,0.2-0.52,0.3
				l-1.59,0.75C47.28,183.28,46.68,182.52,46.09,181.76z M45.37,182.67c0.49,0.62,0.97,1.25,1.5,1.84c-1.42,0.65-2.88,1.31-4.3,1.91
				C43.5,185.16,44.43,183.91,45.37,182.67z"/>
			<path class="st2" d="M36.97,170.59l0.19,0.34c0.58-0.21,1.14-0.38,1.68-0.5c0.54-0.13,1.04-0.18,1.51-0.17
				c0.46,0.02,0.89,0.11,1.28,0.28c0.39,0.18,0.71,0.47,0.97,0.87l0.26,0.4c0.18,0.27,0.23,0.51,0.16,0.72
				c-0.07,0.21-0.31,0.45-0.73,0.72l-8.65,5.67c-0.39,0.26-0.72,0.44-0.98,0.54s-0.49,0.14-0.69,0.09c-0.2-0.05-0.38-0.16-0.55-0.35
				c-0.17-0.18-0.36-0.44-0.57-0.77l-0.47,0.29l1.77,2.75c0.61,0.9,1.26,1.78,1.89,2.67l0.44-0.32c-0.16-0.23-0.29-0.44-0.38-0.63
				c-0.09-0.19-0.11-0.37-0.07-0.56c0.04-0.19,0.16-0.39,0.35-0.59c0.19-0.21,0.49-0.45,0.88-0.72l8.32-5.78
				c0.33-0.23,0.61-0.4,0.85-0.51c0.24-0.12,0.47-0.18,0.66-0.18s0.37,0.04,0.53,0.15c0.16,0.11,0.32,0.27,0.47,0.49l0.44-0.32
				c-0.81-1.14-1.64-2.28-2.38-3.47c-0.75-1.19-1.55-2.34-2.22-3.57L36.97,170.59z"/>
			<path class="st2" d="M26.53,157.31l1.24,3.15l0.5-0.21c-0.09-0.23-0.1-0.47-0.04-0.69c0.07-0.23,0.27-0.41,0.61-0.54
				c0.31-0.13,0.71-0.22,1.22-0.29c0.5-0.07,1.11-0.08,1.84-0.04c-0.23,0.29-0.48,0.59-0.75,0.92c-0.28,0.32-0.56,0.65-0.85,0.97
				s-0.58,0.63-0.87,0.93c-0.29,0.3-0.57,0.58-0.82,0.82c-0.44-0.35-0.83-0.63-1.2-0.84c-0.37-0.21-0.73-0.34-1.07-0.42
				c-0.34-0.08-0.69-0.09-1.04-0.03c-0.35,0.05-0.72,0.16-1.12,0.32c-0.36,0.15-0.67,0.34-0.96,0.59c-0.28,0.25-0.5,0.52-0.66,0.82
				c-0.17,0.3-0.24,0.61-0.26,0.94c-0.02,0.33,0.04,0.65,0.18,0.96c0.19,0.41,0.47,0.77,0.83,1.04c0.37,0.28,0.79,0.47,1.28,0.58
				c0.49,0.1,1.01,0.13,1.57,0.05c0.56-0.07,1.13-0.25,1.71-0.52c0.38-0.18,0.73-0.39,1.06-0.62s0.68-0.49,1.05-0.79
				c0.39,0.24,0.79,0.46,1.26,0.62c0.46,0.17,0.95,0.28,1.45,0.33s1.03,0.03,1.57-0.08c0.54-0.1,1.09-0.29,1.66-0.58
				c0.51-0.26,0.96-0.56,1.34-0.89c0.39-0.34,0.69-0.69,0.91-1.06c0.22-0.38,0.34-0.76,0.37-1.16c0.02-0.4-0.05-0.81-0.23-1.22
				c-0.23-0.52-0.58-0.91-1.05-1.2c-0.47-0.29-1.06-0.51-1.77-0.67c0.43-0.58,0.68-1.09,0.8-1.58c0.12-0.48,0.11-0.91-0.04-1.27
				c-0.1-0.25-0.28-0.45-0.56-0.6c-0.27-0.15-0.59-0.26-0.96-0.33c-0.36-0.07-0.75-0.1-1.18-0.1c-0.42,0-0.83,0.04-1.23,0.1
				l-0.14,0.38c0.34,0.03,0.6,0.09,0.81,0.19c0.21,0.1,0.33,0.22,0.38,0.34c0.08,0.21,0.05,0.52-0.12,0.91
				c-0.17,0.39-0.47,0.88-0.9,1.49c-0.47-0.05-0.98-0.07-1.55-0.05c-0.57,0.01-1.11,0-1.63-0.02c-0.52-0.02-0.98-0.09-1.37-0.21
				c-0.39-0.11-0.65-0.33-0.77-0.63L26.53,157.31z M31.75,162.82c0.41-0.4,0.81-0.82,1.2-1.25c0.4-0.43,0.78-0.85,1.14-1.27
				c0.36-0.42,0.69-0.82,0.97-1.18c0.17,0.07,0.32,0.16,0.44,0.28s0.23,0.26,0.31,0.44c0.12,0.26,0.1,0.58-0.05,0.95
				c-0.15,0.37-0.38,0.75-0.68,1.13c-0.31,0.38-0.67,0.75-1.08,1.09c-0.41,0.34-0.82,0.61-1.22,0.81c-0.35,0.17-0.71,0.28-1.08,0.32
				c-0.37,0.05-0.75-0.03-1.12-0.22C30.96,163.59,31.35,163.22,31.75,162.82z M26.69,163.99c-0.47,0.32-0.93,0.58-1.38,0.78
				c-0.35,0.16-0.68,0.24-1,0.24c-0.31,0-0.52-0.1-0.61-0.31c-0.08-0.18-0.07-0.36,0.03-0.55c0.1-0.19,0.24-0.37,0.44-0.54
				c0.19-0.17,0.41-0.33,0.66-0.48c0.25-0.15,0.48-0.27,0.69-0.36c0.2-0.09,0.41-0.16,0.63-0.23c0.22-0.06,0.44-0.1,0.65-0.12
				c0.22-0.01,0.43,0.01,0.64,0.07s0.41,0.17,0.59,0.32C27.61,163.28,27.17,163.67,26.69,163.99z"/>
			<path class="st2" d="M12.2,147.4c-0.28-1.21-0.39-2.05-0.34-2.53c0.1-0.87,0.41-1.58,1.02-2.15c0.6-0.56,1.59-1.03,2.97-1.4
				l-0.08-0.44l-5.98,1.13l0.29,1.63l0.36,1.61l0.75,3.23c0.23,1.08,0.58,2.13,0.86,3.2l0.91,3.18l0.55-0.17
				c-0.05-0.16-0.1-0.33-0.15-0.5c-0.12-0.42-0.12-0.78,0-1.09c0.13-0.31,0.31-0.54,0.54-0.69c0.24-0.16,0.88-0.39,1.92-0.69
				l13.4-3.9c1.02-0.3,1.66-0.45,1.92-0.45c0.36-0.01,0.64,0.04,0.83,0.16c0.27,0.16,0.46,0.41,0.56,0.78
				c0.04,0.14,0.07,0.28,0.12,0.41l0.55-0.17l-0.92-3.22c-0.15-0.54-0.32-1.07-0.44-1.61l-0.37-1.63l-0.57,0.13l0.1,0.41
				c0.08,0.35,0.05,0.65-0.1,0.91c-0.15,0.26-0.35,0.45-0.59,0.59c-0.25,0.14-0.9,0.34-1.95,0.61l-6.29,1.61l-0.09-0.4
				c-0.17-0.73-0.01-1.45,0.49-2.17c0.49-0.71,1.71-1.34,3.65-1.9l-0.08-0.34l-10.42,2.25l0.09,0.38c1.13-0.16,2.05-0.17,2.77-0.04
				c0.72,0.13,1.25,0.36,1.62,0.69c0.36,0.33,0.62,0.8,0.76,1.42l0.09,0.4l-8.45,2.16L12.2,147.4z"/>
			<path class="st2" d="M18.15,127.46c-0.98,0.39-1.8,0.88-2.45,1.49c-0.65,0.61-1.13,1.31-1.43,2.09
				c-0.32,0.78-0.37,1.59-0.28,2.42c0.11,0.9,0.42,1.69,0.91,2.38c0.49,0.69,1.12,1.24,1.94,1.66c0.8,0.41,1.72,0.68,2.76,0.79
				c1.03,0.12,2.13,0.07,3.29-0.14c1.17-0.21,2.22-0.53,3.15-0.95c0.93-0.43,1.7-0.93,2.32-1.5c0.61-0.57,1.09-1.21,1.41-1.91
				c0.31-0.7,0.41-1.45,0.31-2.24c-0.1-0.82-0.43-1.53-0.89-2.15c-0.48-0.62-1.11-1.13-1.87-1.54c-0.77-0.41-1.65-0.71-2.65-0.9
				c-1-0.19-2.04-0.26-3.12-0.19C20.26,126.85,19.13,127.08,18.15,127.46z M24.75,129.74c0.85,0.04,1.58,0.14,2.2,0.3
				c0.61,0.16,1.1,0.38,1.46,0.65c0.36,0.28,0.57,0.61,0.62,1c0.06,0.47-0.1,0.89-0.49,1.27c-0.39,0.38-0.9,0.71-1.55,1
				c-0.65,0.29-1.38,0.54-2.21,0.74c-0.83,0.2-1.66,0.36-2.49,0.49c-1.28,0.18-2.37,0.26-3.27,0.22c-0.9-0.04-1.63-0.16-2.2-0.35
				s-1-0.45-1.28-0.75c-0.28-0.31-0.44-0.64-0.49-0.98c-0.05-0.41,0.05-0.81,0.29-1.19c0.25-0.38,0.65-0.72,1.23-1.03
				c0.57-0.31,1.3-0.57,2.19-0.79c0.89-0.22,1.94-0.38,3.14-0.49C22.95,129.73,23.9,129.71,24.75,129.74z"/>
			<path class="st2" d="M22.31,121.62L22.3,121c2.2-0.95,4.48-1.84,6.72-2.66c0-1.22,0.1-2.43,0.15-3.65l-0.54-0.03
				c-0.05,0.49-0.66,0.96-1.82,1.41c-1.75,0.66-3.49,1.37-5.21,2.11c-0.35-0.73-0.81-1.31-1.39-1.73c-0.59-0.42-1.34-0.67-2.28-0.71
				c-0.64-0.03-1.22,0.03-1.74,0.19c-0.52,0.16-0.98,0.42-1.36,0.79c-0.38,0.37-0.67,0.84-0.88,1.42s-0.32,1.28-0.33,2.09
				c0.03,2.02,0.08,4.03,0.15,6.04l0.55-0.03c-0.02-0.32,0.01-0.58,0.07-0.78c0.06-0.2,0.16-0.36,0.3-0.49
				c0.14-0.12,0.33-0.21,0.56-0.26s0.52-0.08,0.86-0.09l10.4-0.39c0.42-0.02,0.76-0.01,1.03,0.03c0.27,0.03,0.48,0.1,0.63,0.19
				c0.16,0.1,0.26,0.23,0.32,0.39c0.06,0.16,0.09,0.37,0.1,0.62l0.54-0.03c-0.04-1.74-0.1-3.48-0.12-5.22h-0.55
				c-0.03,0.26-0.06,0.49-0.1,0.66c-0.05,0.18-0.14,0.31-0.28,0.42c-0.14,0.1-0.34,0.18-0.6,0.23c-0.26,0.05-0.62,0.08-1.07,0.08
				L22.31,121.62z M14.78,121.71l-0.01-0.53c-0.03-0.86,0.27-1.49,0.79-1.88c0.53-0.39,1.29-0.57,2.25-0.55
				c0.41,0.01,0.83,0.05,1.23,0.13c0.4,0.08,0.75,0.22,1.06,0.4c0.31,0.19,0.56,0.43,0.74,0.72c0.18,0.3,0.27,0.67,0.29,1.1
				l0.01,0.52L14.78,121.71z"/>
			<path class="st2" d="M15.29,109.11l0.18-1.58c0.05-0.44,0.17-0.81,0.36-1.12c0.2-0.31,0.46-0.55,0.78-0.74
				c0.32-0.19,0.69-0.33,1.11-0.41c0.42-0.09,0.89-0.13,1.4-0.13l0.05-0.36l-4.35-0.65c-0.5,3.14-0.79,6.31-1.01,9.49l0.55,0.03
				c0.01-0.33,0.08-0.59,0.16-0.8c0.09-0.21,0.22-0.36,0.38-0.47c0.17-0.11,0.37-0.17,0.62-0.2c0.25-0.03,0.55-0.02,0.9,0
				l10.25,0.79c0.34,0.03,0.64,0.06,0.89,0.11c0.25,0.05,0.46,0.13,0.62,0.24c0.16,0.11,0.28,0.26,0.35,0.46
				c0.07,0.19,0.08,0.44,0.08,0.75l0.54,0.03c0.21-2.81,0.46-5.62,0.91-8.4l-4.78-1.18l-0.05,0.35c0.62,0.26,1.14,0.53,1.58,0.8
				c0.44,0.27,0.79,0.56,1.05,0.86c0.26,0.3,0.44,0.62,0.54,0.95c0.11,0.34,0.14,0.7,0.1,1.08l-0.06,0.53
				c-0.02,0.19-0.06,0.34-0.12,0.46c-0.06,0.12-0.16,0.2-0.29,0.26c-0.13,0.06-0.31,0.08-0.54,0.09c-0.23,0-0.52-0.02-0.87-0.05
				l-4.47-0.47l0.05-0.47c0.06-0.51,0.33-0.91,0.81-1.17c0.48-0.27,1.24-0.37,2.26-0.31l0.04-0.37l-6.98-0.92l-0.05,0.4
				c0.61,0.1,1.1,0.24,1.47,0.39c0.38,0.16,0.67,0.34,0.88,0.54s0.34,0.42,0.39,0.67c0.06,0.24,0.07,0.5,0.04,0.78l-0.04,0.36
				L15.29,109.11z"/>
			<path class="st2" d="M30.62,100.21c-0.05,0.26-0.13,0.46-0.21,0.62c-0.09,0.16-0.21,0.27-0.38,0.34
				c-0.16,0.07-0.38,0.1-0.65,0.08s-0.62-0.07-1.05-0.16l-9.95-2.02c-0.46-0.09-0.82-0.19-1.07-0.3c-0.26-0.1-0.44-0.23-0.56-0.38
				c-0.12-0.15-0.18-0.32-0.18-0.52c0-0.2,0.03-0.44,0.09-0.71l-0.54-0.12c-0.44,1.97-0.8,3.95-1.13,5.94l0.54,0.09
				c0.04-0.27,0.1-0.49,0.17-0.67c0.08-0.18,0.2-0.32,0.36-0.42c0.17-0.1,0.39-0.15,0.66-0.16c0.28,0,0.65,0.03,1.11,0.11
				l10.01,1.75c0.43,0.08,0.78,0.16,1.03,0.25c0.26,0.09,0.45,0.2,0.58,0.32c0.13,0.13,0.2,0.27,0.21,0.44
				c0.01,0.17,0,0.39-0.03,0.63l0.54,0.09c0.29-1.71,0.59-3.41,0.97-5.1L30.62,100.21z"/>
			<path class="st2" d="M18.85,85.76l-0.13,0.39c0.32,0.18,0.52,0.33,0.6,0.47c0.09,0.14,0.1,0.29,0.05,0.45
				c-0.05,0.15-0.14,0.29-0.29,0.45c-0.15,0.15-0.31,0.34-0.5,0.55c-0.19,0.22-0.38,0.48-0.58,0.79c-0.18,0.31-0.35,0.7-0.48,1.17
				c-0.24,0.86-0.26,1.71-0.03,2.53c0.25,0.83,0.67,1.58,1.29,2.28c0.61,0.69,1.39,1.29,2.32,1.79c0.93,0.51,1.98,0.88,3.12,1.14
				c1.06,0.24,2.06,0.36,3.02,0.35c0.96-0.01,1.82-0.15,2.6-0.42c0.77-0.27,1.43-0.69,1.97-1.26c0.54-0.56,0.96-1.27,1.21-2.16
				c0.18-0.68,0.28-1.35,0.27-2.04c-0.02-0.69-0.14-1.33-0.36-1.93l-3.53-1.18c-0.47-0.16-0.79-0.36-0.93-0.61
				c-0.15-0.25-0.15-0.56-0.02-0.94l-0.55-0.19c-0.31,0.83-0.57,1.68-0.84,2.52c-0.27,0.84-0.54,1.69-0.78,2.54l0.56,0.16
				c0.13-0.48,0.34-0.78,0.59-0.92c0.27-0.13,0.65-0.12,1.16,0.03l3.34,1.01c0.08,0.22,0.12,0.44,0.12,0.67
				c0,0.23-0.03,0.43-0.08,0.61c-0.08,0.3-0.27,0.56-0.56,0.78c-0.28,0.23-0.64,0.39-1.05,0.52c-0.61,0.17-1.35,0.21-2.21,0.13
				c-0.86-0.08-1.95-0.3-3.25-0.64c-1.1-0.29-2.07-0.62-2.9-0.99c-0.83-0.37-1.51-0.78-2.03-1.21c-0.52-0.43-0.89-0.88-1.1-1.35
				c-0.21-0.47-0.24-0.95-0.11-1.42c0.13-0.45,0.34-0.81,0.66-1.09c0.31-0.28,0.7-0.49,1.15-0.63s0.98-0.23,1.57-0.25
				s1.24,0,1.95,0.05l0.12-0.37L18.85,85.76z"/>
			<path class="st2" d="M21.2,80.35l-0.79,2.02l-0.72,2.04l0.52,0.18c0.05-0.1,0.1-0.2,0.17-0.29s0.16-0.19,0.28-0.27
				c0.12-0.08,0.27-0.17,0.46-0.24c0.19-0.08,0.43-0.15,0.72-0.22l0.62-0.17L32.21,87c0.7,0.26,1.17,0.54,1.44,0.87
				c0.26,0.32,0.32,0.68,0.18,1.09l0.52,0.18c0.37-1.09,0.78-2.15,1.2-3.22l-0.51-0.2c-0.11,0.28-0.25,0.5-0.41,0.65
				c-0.16,0.15-0.36,0.24-0.57,0.28c-0.22,0.04-0.46,0.03-0.74-0.03c-0.28-0.05-0.58-0.15-0.93-0.28l-8.61-3.24
				c4.78-0.95,9.51-1.6,14.22-1.91l0.15-0.31l-11.82-5.53c-0.68-0.32-1.13-0.66-1.34-1.03c-0.21-0.37-0.21-0.78,0-1.23l-0.49-0.24
				c-0.55,1.2-1.13,2.38-1.65,3.59l0.5,0.22c0.13-0.31,0.29-0.54,0.48-0.7c0.19-0.16,0.39-0.25,0.62-0.28
				c0.23-0.03,0.47-0.02,0.74,0.05c0.26,0.07,0.54,0.16,0.83,0.3l5.7,2.61c-1.76,0.19-3.49,0.44-5.24,0.72
				C24.71,79.66,22.95,79.98,21.2,80.35z"/>
			<path class="st2" d="M41.44,76.34c-1.76-2.14-4.07-4.08-6.96-5.72c-2.94-1.66-5.82-2.63-8.71-2.77c-2.9-0.16-5.13,0.45-6.73,1.75
				l0.7,0.34c0.82-0.39,1.64-0.6,2.47-0.62c1.19-0.03,2.62,0.21,4.27,0.72c1.66,0.51,3.85,1.5,6.58,2.94
				c2.9,1.53,5.08,2.87,6.57,3.98c1.19,0.9,2.1,1.74,2.76,2.53c0.47,0.57,0.89,1.3,1.26,2.16l0.65,0.32
				C44.17,80.34,43.19,78.47,41.44,76.34z"/>
		</g>
		<polygon class="st0" points="39.62,54.1 41.34,59.4 46.92,59.4 42.4,62.68 44.13,67.98 39.62,64.71 35.11,67.98 36.83,62.68 
			32.32,59.4 37.9,59.4 		"/>
	</g>
</g>
</svg>
